<svg width="17" height="16" viewBox="0 0 17 16" fill="none" xmlns="http://www.w3.org/2000/svg">
<path d="M7.93736 7.07109C7.75407 7.08429 7.57881 7.15153 7.43372 7.2643C7.28864 7.37708 7.18024 7.53034 7.12223 7.7047C7.06422 7.87907 7.0592 8.06672 7.10781 8.24394C7.15642 8.42115 7.25647 8.57998 7.39532 8.70035C7.53418 8.82072 7.7056 8.89723 7.88792 8.92021C8.07024 8.94318 8.25528 8.91159 8.41965 8.82943C8.58402 8.74727 8.72035 8.61823 8.8114 8.45861C8.90246 8.29899 8.94415 8.11596 8.93121 7.93265C8.91125 7.68755 8.79599 7.46005 8.61018 7.29897C8.42437 7.13789 8.18281 7.05607 7.93736 7.07109Z" fill="#D31E56"/>
<path d="M8.0017 0C6.41897 1.42177e-07 4.87179 0.469278 3.55584 1.34848C2.2399 2.22768 1.2143 3.47731 0.608772 4.93932C0.00324213 6.40132 -0.15502 8.01003 0.154002 9.56197C0.463024 11.1139 1.22545 12.5394 2.34485 13.6581C3.46424 14.7767 4.89033 15.5384 6.44273 15.8467C7.99513 16.155 9.60411 15.9961 11.0662 15.3901C12.5282 14.784 13.7777 13.7581 14.6565 12.4421C15.5353 11.1261 16.0041 9.579 16.0034 7.99661C15.9971 5.87712 15.152 3.84627 13.6526 2.34788C12.1533 0.849481 10.1216 0.00536791 8.0017 0V0ZM7.41489 1.71598C7.41489 1.59366 7.46349 1.47635 7.55 1.38985C7.63651 1.30336 7.75385 1.25477 7.87619 1.25477H8.01527C8.07629 1.25432 8.13681 1.2659 8.19336 1.28883C8.24991 1.31177 8.30139 1.34562 8.34486 1.38845C8.38832 1.43127 8.42293 1.48224 8.44669 1.53844C8.47046 1.59464 8.48292 1.65497 8.48336 1.71598V3.55066C8.48247 3.6727 8.43359 3.7895 8.34727 3.8758C8.26094 3.9621 8.14412 4.01098 8.02205 4.01187H7.88298C7.76063 4.01187 7.6433 3.96328 7.55678 3.87678C7.47027 3.79029 7.42167 3.67298 7.42167 3.55066L7.41489 1.71598ZM3.95845 8.06782C3.95756 8.18987 3.90868 8.30667 3.82236 8.39297C3.73603 8.47927 3.61921 8.52815 3.49714 8.52904H1.66208C1.54 8.52815 1.42318 8.47927 1.33686 8.39297C1.25054 8.30667 1.20165 8.18987 1.20077 8.06782V7.92878C1.19987 7.86765 1.21113 7.80694 1.23391 7.7502C1.25669 7.69346 1.29053 7.64181 1.33346 7.59826C1.37639 7.55471 1.42754 7.52013 1.48396 7.49653C1.54037 7.47293 1.60092 7.46078 1.66208 7.46079H3.49714C3.61949 7.46079 3.73682 7.50938 3.82334 7.59587C3.90985 7.68237 3.95845 7.79968 3.95845 7.922V8.06782ZM8.48336 14.2806C8.48247 14.4027 8.43359 14.5195 8.34727 14.6058C8.26094 14.6921 8.14412 14.7409 8.02205 14.7418H7.88298C7.76091 14.7409 7.64409 14.6921 7.55776 14.6058C7.47144 14.5195 7.42256 14.4027 7.42167 14.2806V12.4459C7.42167 12.3236 7.47027 12.2063 7.55678 12.1198C7.6433 12.0333 7.76063 11.9847 7.88298 11.9847H8.02205C8.14412 11.9856 8.26094 12.0345 8.34727 12.1208C8.43359 12.2071 8.48247 12.3239 8.48336 12.4459V14.2806ZM11.6379 4.10682L9.79267 8.91564C9.65954 9.21509 9.43981 9.46785 9.16176 9.64137L4.64024 12.1306C4.39602 12.2662 4.27391 12.1611 4.37567 11.9L6.21412 7.08096C6.34617 6.78083 6.56615 6.52778 6.84503 6.35523L11.3666 3.86604C11.6108 3.73039 11.7329 3.83213 11.6311 4.09665L11.6379 4.10682ZM14.2328 8.53921H12.4011C12.279 8.53832 12.1622 8.48944 12.0759 8.40314C11.9896 8.31684 11.9407 8.20004 11.9398 8.078V7.93896C11.9375 7.87754 11.9476 7.8163 11.9693 7.75882C11.991 7.70134 12.0241 7.64878 12.0664 7.60423C12.1087 7.55969 12.1596 7.52405 12.2159 7.49942C12.2722 7.47478 12.3329 7.46165 12.3943 7.46079H14.226C14.3487 7.46078 14.4663 7.50927 14.5534 7.59566C14.6404 7.68206 14.6898 7.79937 14.6907 7.922V8.06104C14.6907 8.18458 14.6418 8.3031 14.5548 8.39077C14.4677 8.47844 14.3496 8.52814 14.226 8.52904L14.2328 8.53921Z" fill="#D31E56"/>
</svg>
