<svg width="123" height="56" viewBox="0 0 123 56" fill="none" xmlns="http://www.w3.org/2000/svg">
<path d="M92.2368 21.806C98.0984 27.5043 104.733 33.9546 114.211 36.4998C113.786 36.7962 113.308 37.104 112.772 37.4223C108.874 39.7351 103.207 41.7658 96.6146 43.4269C83.4876 46.7349 68.1558 48.2245 59.7907 48.2245C51.4389 48.2245 36.9878 46.7381 24.7509 43.448C18.6052 41.7957 13.3901 39.7845 9.8307 37.5127C9.24046 37.136 8.72656 36.7732 8.27965 36.4254C16.8122 33.8704 23.2661 27.6531 28.9377 22.1895C29.6226 21.5297 30.2962 20.8808 30.9606 20.2508C39.2039 12.4335 47.2858 5.79501 60.5483 5.79501C74.7078 5.79501 82.5302 12.4578 90.6047 20.2247C91.143 20.7426 91.6865 21.271 92.2368 21.806Z" stroke="#EEB127" stroke-width="10.6074"/>
<circle cx="60.7362" cy="36.8593" r="18.184" fill="#EEB127"/>
<path d="M66.5272 27.8135H65.8009L64.8911 25.9636C64.8024 25.7832 64.6188 25.6689 64.4179 25.6689H55.9803C55.7794 25.6689 55.5958 25.7832 55.5071 25.9636L54.5973 27.8135H53.871C53.5797 27.8135 53.3436 28.0496 53.3436 28.3408V30.4502C53.3436 30.7414 53.5797 30.9775 53.871 30.9775H54.4403C54.4961 31.649 55.3173 41.5332 55.3742 42.2183C55.442 43.0317 56.1345 43.6689 56.9508 43.6689H63.4474C64.2637 43.6689 64.9562 43.0317 65.024 42.2182C65.0296 42.151 65.9513 31.0572 65.9579 30.9775H66.5272C66.8185 30.9775 67.0546 30.7414 67.0546 30.4502V28.3408C67.0546 28.0496 66.8185 27.8135 66.5272 27.8135ZM56.3087 26.7236H64.0895L64.6255 27.8135H55.7727L56.3087 26.7236ZM63.9729 42.1307C63.9503 42.4018 63.7195 42.6143 63.4474 42.6143H56.9508C56.6787 42.6143 56.4479 42.4018 56.4253 42.1309L56.3778 41.5596H64.0204L63.9729 42.1307ZM64.108 40.5049H56.2902L55.6739 33.0869H64.7243L64.108 40.5049ZM64.812 32.0322H55.5862L55.4986 30.9775H64.8996L64.812 32.0322ZM65.9999 29.9229C65.5861 29.9229 54.7714 29.9229 54.3983 29.9229V28.8682C55.6283 28.8682 64.8076 28.8682 65.9999 28.8682V29.9229Z" fill="#5E1331"/>
<path d="M62.8488 37.0275C62.773 36.3354 62.4332 35.6562 61.892 35.1151C60.739 33.962 59.0777 33.828 58.1637 34.742C58.1637 34.742 58.1636 34.7421 58.1636 34.7421C58.1635 34.7422 58.1635 34.7422 58.1635 34.7422C58.1633 34.7424 58.1632 34.7425 58.1631 34.7426C57.2188 35.6864 57.421 37.3555 58.5363 38.4708C59.6932 39.6277 61.3536 39.755 62.2649 38.8436C62.7219 38.3866 62.9292 37.7411 62.8488 37.0275ZM59.2821 37.725C58.8191 37.262 58.5118 36.5793 58.6494 35.9739L61.0328 38.3574C60.4275 38.4968 59.7461 38.189 59.2821 37.725ZM61.779 37.6119L59.3955 35.2285C60.0008 35.0891 60.6822 35.3968 61.1463 35.8608C61.7158 36.4303 61.89 37.1232 61.779 37.6119Z" fill="#5E1331"/>
</svg>
