<?xml version="1.0" encoding="UTF-8" standalone="no"?>
<svg
   xmlns:dc="http://purl.org/dc/elements/1.1/"
   xmlns:cc="http://creativecommons.org/ns#"
   xmlns:rdf="http://www.w3.org/1999/02/22-rdf-syntax-ns#"
   xmlns:svg="http://www.w3.org/2000/svg"
   xmlns="http://www.w3.org/2000/svg"
   xmlns:sodipodi="http://sodipodi.sourceforge.net/DTD/sodipodi-0.dtd"
   xmlns:inkscape="http://www.inkscape.org/namespaces/inkscape"
   width="81"
   height="38"
   viewBox="0 0 81 38"
   fill="none"
   version="1.1"
   id="svg10"
   sodipodi:docname="cup.svg"
   inkscape:version="0.92.4 (5da689c313, 2019-01-14)">
  <metadata
     id="metadata16">
    <rdf:RDF>
      <cc:Work
         rdf:about="">
        <dc:format>image/svg+xml</dc:format>
        <dc:type
           rdf:resource="http://purl.org/dc/dcmitype/StillImage" />
      </cc:Work>
    </rdf:RDF>
  </metadata>
  <defs
     id="defs14">
    <clipPath
       clipPathUnits="userSpaceOnUse"
       id="clipPath4538">
      <rect
         style="opacity:0.95999995;fill:#c84141;fill-opacity:1;fill-rule:evenodd;stroke:#ffffff;stroke-width:3.905653;stroke-miterlimit:4;stroke-dasharray:11.71695894, 3.90565298;stroke-dashoffset:0.75600004;stroke-opacity:1;paint-order:stroke fill markers"
         id="rect4540"
         width="84.275253"
         height="32.343994"
         x="-1.4497348"
         y="0.047122523" />
    </clipPath>
  </defs>
  <sodipodi:namedview
     pagecolor="#ffffff"
     bordercolor="#666666"
     borderopacity="1"
     objecttolerance="10"
     gridtolerance="10"
     guidetolerance="10"
     inkscape:pageopacity="0"
     inkscape:pageshadow="2"
     inkscape:window-width="1697"
     inkscape:window-height="737"
     id="namedview12"
     showgrid="false"
     inkscape:zoom="9.9169544"
     inkscape:cx="30.208815"
     inkscape:cy="24.176632"
     inkscape:window-x="165"
     inkscape:window-y="30"
     inkscape:window-maximized="0"
     inkscape:current-layer="svg10" />
  <g
     id="g4530"
     clip-path="url(#clipPath4538)">
    <path
       id="path2"
       d="m 60.8283,14.9303 c 4.0204,4.2827 8.6066,9.1682 15.3372,10.8061 -0.4661,0.4331 -1.0621,0.8924 -1.8178,1.3745 -2.5826,1.6477 -6.3258,3.0796 -10.6712,4.2442 -8.6581,2.3205 -18.7748,3.3399 -24.3005,3.3399 -5.517,0 -15.0525,-1.0173 -23.1234,-3.3252 -4.0505,-1.1582 -7.49701,-2.5768 -9.8591,-4.1977 -0.75476,-0.518 -1.34001,-1.013 -1.7878,-1.4826 2.67236,-0.7329 5.00897,-2.0596 7.1083,-3.647 2.6546,-2.0073 5.1103,-4.5837 7.4151,-7.0018 0.4025,-0.4222 0.8004,-0.8397 1.1939,-1.2484 C 25.8105,8.09281 31.1606,3.305 39.876,3.305 c 9.3065,0 14.4859,4.80435 19.8641,10.4703 0.3588,0.378 0.7211,0.764 1.0882,1.155 z"
       inkscape:connector-curvature="0"
       style="stroke:#eeb127;stroke-width:6.61000013" />
    <circle
       id="circle4"
       r="13.5"
       cy="22.5"
       cx="39.5"
       style="fill:#eeb127" />
    <path
       id="path6"
       d="m 45.4853,16.6951 h -0.6491 l -0.813,-1.6531 c -0.0793,-0.1612 -0.2433,-0.2633 -0.4229,-0.2633 h -7.5402 c -0.1796,0 -0.3436,0.1021 -0.4228,0.2633 l -0.8131,1.6531 h -0.6491 c -0.2602,0 -0.4712,0.211 -0.4712,0.4713 v 1.885 c 0,0.2603 0.211,0.4713 0.4712,0.4713 h 0.5088 c 0.0498,0.6 0.7837,9.433 0.8346,10.0452 0.0606,0.727 0.6794,1.2964 1.4089,1.2964 h 5.8056 c 0.7295,0 1.3483,-0.5694 1.4089,-1.2965 0.005,-0.06 0.8287,-9.974 0.8346,-10.0451 h 0.5088 c 0.2603,0 0.4713,-0.211 0.4713,-0.4713 v -1.885 c 0,-0.2603 -0.211,-0.4713 -0.4713,-0.4713 z m -9.1317,-0.9739 h 6.9533 l 0.479,0.9739 h -7.9113 z m 6.8491,13.7685 c -0.0202,0.2423 -0.2265,0.4321 -0.4697,0.4321 h -5.8056 c -0.2431,0 -0.4495,-0.1898 -0.4696,-0.432 l -0.0424,-0.5105 h 6.8297 z m 0.1207,-1.4529 H 36.337 l -0.5507,-6.6291 h 8.0878 z m 0.6291,-7.5716 H 35.708 l -0.0783,-0.9425 h 8.4011 z m 1.0616,-1.885 c -0.3699,0 -10.0343,0 -10.3677,0 v -0.9425 c 1.0992,0 9.3022,0 10.3677,0 z"
       inkscape:connector-curvature="0"
       style="fill:#5e1331" />
    <path
       id="path8"
       d="m 42.1983,24.9292 c -0.0678,-0.6185 -0.3714,-1.2254 -0.855,-1.709 -1.0304,-1.0304 -2.515,-1.1502 -3.3318,-0.3335 0,10e-5 -10e-5,10e-5 -10e-5,2e-4 -1e-4,0 -1e-4,10e-5 -1e-4,10e-5 -10e-5,10e-5 -2e-4,2e-4 -3e-4,3e-4 -0.8439,0.8434 -0.6632,2.335 0.3335,3.3317 1.0338,1.0339 2.5176,1.1476 3.332,0.3332 0.4084,-0.4084 0.5936,-0.9853 0.5218,-1.623 z m -3.1874,0.6233 c -0.4137,-0.4137 -0.6883,-1.0239 -0.5654,-1.5648 l 2.13,2.1299 c -0.541,0.1246 -1.1499,-0.1504 -1.5646,-0.5651 z m 2.2314,-0.101 -2.13,-2.13 c 0.5409,-0.1245 1.1498,0.1505 1.5645,0.5651 0.509,0.509 0.6647,1.1282 0.5655,1.5649 z"
       inkscape:connector-curvature="0"
       style="fill:#5e1331" />
  </g>
</svg>
