<svg width="9" height="16" viewBox="0 0 9 16" fill="none" xmlns="http://www.w3.org/2000/svg">
<g clip-path="url(#clip0)">
<path d="M0.254005 8.66329H1.82884L2.18445 15.7468C2.18445 15.8886 2.29621 16 2.43845 16H5.11059C5.25283 16 5.36459 15.8886 5.36459 15.7468L5.6186 8.69873H7.60492C7.73193 8.69873 7.84369 8.60253 7.85893 8.47595L8.26026 5.86835C8.27042 5.79747 8.24502 5.72658 8.1993 5.67089C8.15357 5.61519 8.08245 5.58481 8.01133 5.58481H5.62368V3.94937C5.62368 3.45823 5.88785 3.20506 6.41618 3.20506C6.49238 3.20506 8.11293 3.20506 8.11293 3.20506C8.25518 3.20506 8.36694 3.09367 8.36694 2.9519L8.67175 0.253165C8.67175 0.111392 8.55998 0 8.41774 0H5.85229C5.83705 0 5.80656 0 5.75576 0C5.40016 0 4.15553 0.374684 3.17507 1.27595C2.08284 2.26835 2.23525 3.46329 2.27081 3.67089V5.58481H0.45721C0.314967 5.58481 0.203204 5.6962 0.203204 5.83798L0 8.41013C0 8.5519 0.111762 8.66329 0.254005 8.66329Z" fill="#5E1331"/>
</g>
<defs>
<clipPath id="clip0">
<rect width="8.66667" height="16" fill="white"/>
</clipPath>
</defs>
</svg>
