<svg width="245" height="99" viewBox="0 0 245 99" fill="none" xmlns="http://www.w3.org/2000/svg">
<g clip-path="url(#clip0)">
<path d="M32.6356 76.5128C31.3264 75.2065 28.9886 75.1132 27.6795 76.5128C27.586 76.6061 27.586 76.6994 27.4924 76.6994C28.334 72.5938 21.8818 70.9143 20.6661 75.1132C19.6375 78.5656 21.2272 81.5514 24.126 83.4176C25.5287 84.3507 27.3054 84.5373 28.8951 84.164C30.3913 83.7908 31.6069 82.5778 32.5421 81.4581C33.8512 80.0585 34.0382 77.9124 32.6356 76.5128Z" fill="#FFD400"/>
<path d="M80.7939 55.6116C80.2328 54.9584 79.8588 54.212 79.4848 53.3722C79.2042 52.9989 79.0172 52.6257 78.8302 52.1592C78.6432 51.7859 78.5496 51.3194 78.4561 50.8529C77.708 49.1733 76.8664 47.5871 76.8664 45.8142C76.8664 45.7209 76.8664 45.7209 76.8664 45.6276C75.2767 42.735 73.4065 40.0291 71.2557 37.6964C70.2271 33.9641 68.0764 32.4711 64.6164 30.5117C63.4008 29.8585 62.3722 29.2987 61.1565 28.8321C61.1565 28.8321 61.1565 28.8321 61.063 28.8321C60.876 28.7388 60.5954 28.6455 60.4084 28.5522C59.4733 26.3128 57.7901 24.7266 54.9848 24.7266C53.4886 24.7266 51.6183 25.6596 50.3092 26.8727C44.3244 26.4994 38.8073 28.5522 34.6928 33.031C34.5993 33.1243 34.4122 33.2176 34.3187 33.3109C30.2042 36.2035 28.708 40.6823 27.0248 45.2544C26.3702 46.9339 27.1183 48.2402 28.2405 48.8934C27.9599 51.1328 27.7729 53.3722 27.6794 55.5183C26.8378 55.145 25.8092 55.0517 24.687 55.6116C20.3855 57.6644 19.7309 61.2101 20.7596 64.8491C20.479 65.3156 20.292 65.8755 20.292 66.5286C20.1985 69.1413 22.3493 71.474 24.4065 72.9669C24.5 72.7803 24.7806 72.5937 24.9676 72.7803C25.0611 72.8736 25.1546 72.9669 25.2481 72.9669C25.4351 73.0602 25.6222 73.2468 25.8092 73.4334C25.8092 73.4334 25.8092 73.5267 25.9027 73.5267C26.0897 73.6201 26.1832 73.8067 26.3703 73.9C26.8378 74.6464 27.5859 75.2996 28.4275 75.5795C28.6145 75.9528 28.708 76.326 28.8951 76.6992C29.0821 77.0725 29.2691 77.4457 29.4561 77.8189C29.6432 77.2591 29.8302 76.7925 30.1107 76.4193C30.0172 76.4193 30.0172 76.4193 29.9237 76.4193C29.5496 76.326 29.6432 75.8594 29.9237 75.7661H30.0172H30.1107C30.5783 75.8594 31.0458 75.9528 31.4199 76.2327C31.5134 76.2327 31.6069 76.326 31.7004 76.4193C31.9809 76.6059 32.168 76.7925 32.355 76.9791C32.729 77.3524 33.0096 77.9122 33.1966 78.2855C33.3836 78.6587 33.6641 79.0319 33.7577 79.4985C33.8512 79.965 33.1966 80.1516 33.1031 79.6851C33.0096 79.2185 32.729 78.752 32.4485 78.3788C32.4485 78.9386 32.4485 79.4052 32.4485 79.965C32.4485 80.1516 32.355 80.2449 32.168 80.2449C32.168 80.3382 32.168 80.4316 32.168 80.6182C32.168 80.9914 32.355 82.0178 31.7939 82.2044C31.8874 82.391 32.0744 82.5776 32.168 82.7643C33.1031 84.0706 34.0382 85.2836 35.1603 86.4966C38.9008 88.4561 41.7996 91.6285 45.4466 93.6813C49.187 95.8274 53.3951 97.6936 57.6966 98.8133C64.0554 99.1865 70.3206 96.4806 74.6222 91.6285C74.6222 91.5352 74.6222 91.4419 74.7157 91.3486C75.5573 90.1356 76.0248 88.6427 76.8664 87.4297C77.8015 86.2167 78.5496 84.817 79.2977 83.5107L79.3912 83.4174C81.355 78.1922 82.0096 72.3137 82.1031 67.0885C82.1966 63.1695 81.729 59.3439 80.7939 55.6116ZM69.8531 79.0319C66.1126 82.1111 61.063 83.6973 56.5744 81.178C55.6393 80.6182 55.0783 79.8717 54.8912 79.0319C51.4313 80.5249 48.5325 75.0197 51.9924 72.687C54.7042 70.8208 57.9771 69.981 61.1565 69.1413C64.0554 68.3948 67.3283 67.8349 69.9466 69.7011C72.0038 71.194 71.8168 73.7134 70.6012 75.2063C71.0687 76.4193 70.9752 78.0988 69.8531 79.0319Z" fill="#A7572A"/>
<path d="M68.1697 68.8612C67.8892 68.8612 67.6087 68.8612 67.4216 68.9546C66.019 68.488 64.4293 68.3947 63.1201 68.5813C59.0056 69.1412 55.3587 70.914 51.6182 72.5936C48.2518 74.0865 50.0285 78.472 53.1144 78.9385C53.3949 79.4051 53.769 79.7783 54.33 80.0582C57.6964 82.0177 60.9694 83.1374 64.8968 82.111C68.6373 81.0846 71.2556 77.7255 71.5361 73.9932C71.5361 73.8066 71.5361 73.62 71.5361 73.4333C71.9102 71.3806 70.8816 68.8612 68.1697 68.8612Z" fill="#F7EED7"/>
<path d="M74.3417 34.8041C74.0612 33.9643 73.9677 33.0312 73.6871 32.1914C73.5936 31.7249 73.4066 31.2584 73.3131 30.7918C73.3131 30.7918 72.8455 29.7654 73.1261 30.232C72.8455 29.6721 72.752 29.1123 72.752 28.5524C72.565 28.3658 72.2844 28.2725 72.0974 28.1792C71.7234 26.0331 70.4142 23.7937 69.5726 22.3008C66.5803 16.609 61.5306 12.8766 56.5745 9.05101C51.9925 5.31868 47.6909 1.21312 41.5192 3.82575C41.1451 4.01237 40.7711 4.19899 40.397 4.29229C40.1165 3.91906 39.9295 3.63914 39.5554 3.2659C37.4982 1.21312 35.3474 1.21312 33.2902 2.23951C32.5421 1.86628 31.607 1.58636 30.5783 1.49305C29.2692 1.39974 28.2406 1.95959 27.399 2.79936C26.7444 2.51944 26.0898 2.42613 25.2482 2.61275C23.939 2.89267 22.5364 2.70605 21.2272 3.07929C19.8245 3.45252 18.7024 4.19899 17.2997 4.47891C13.6528 5.31868 11.9696 9.33094 8.69666 10.6373C6.45239 11.477 5.98483 13.7164 6.5459 15.4893C5.98483 16.3291 5.61079 17.1688 5.61079 18.1952C5.61079 18.3818 5.61079 18.4751 5.61079 18.6618C3.55353 22.1142 2.52491 25.6599 2.80544 30.232C3.17949 36.0171 2.4314 41.8955 2.4314 47.6806C2.4314 53.9323 2.61842 59.2508 5.61079 64.8493C6.26537 65.969 6.91995 67.0887 7.66804 68.2084C7.85506 71.1943 8.50964 74.3668 11.128 76.1396C11.5955 76.4195 12.0631 76.6995 12.5306 76.8861C13.2787 78.2857 13.9333 79.592 14.7749 80.9916C17.1127 85.0039 22.5364 81.4582 20.8532 77.4459C21.1337 77.9125 21.1337 77.6325 20.8532 76.6995C20.7596 76.0463 20.6661 75.4865 20.6661 74.8333C21.8818 72.5939 21.4142 70.1679 20.4791 67.6486C20.0115 66.5289 19.2635 65.7824 18.4219 65.4092C18.7959 64.9426 19.0764 64.3828 19.357 63.9162C21.0402 60.5571 21.4142 56.8248 23.752 53.9323C23.939 53.9323 24.0325 53.9323 24.2196 53.9323C26.9314 53.9323 28.0535 51.3196 27.4925 49.3602C28.2406 47.8672 28.5211 46.281 28.5211 44.1349C28.5211 41.8022 26.5574 40.5892 24.5936 40.7758C25.9028 38.5364 27.1184 36.1104 28.147 33.6844C29.4562 30.7918 26.7444 28.0859 24.4066 28.3658C24.4066 27.9926 24.5001 27.6193 24.5001 27.1528C26.9314 26.2197 29.4562 25.2866 31.981 24.4469C32.168 24.4469 32.3551 24.3536 32.5421 24.3536C36.2825 23.5138 39.649 25.9398 43.3894 25.9398C46.1012 25.9398 49.1871 26.593 51.5249 24.7268C51.9925 24.3536 52.3665 23.887 52.7406 23.5138C54.9848 24.2602 57.1356 25.2866 59.1928 26.593C60.5955 27.4327 61.7177 28.5524 62.9333 29.6721C63.2138 29.7654 63.4009 29.952 63.6814 30.1387C63.0268 29.5788 63.9619 30.3253 64.149 30.4186C64.4295 30.6052 64.8035 30.7918 65.1776 30.9784C65.7386 31.3517 66.3932 31.6316 66.9543 31.9115C67.8894 32.2848 68.4505 33.2178 68.6375 34.2442C68.8245 34.4308 69.0116 34.5242 69.1986 34.7108C69.2921 34.8041 69.3856 34.8974 69.4791 34.9907C70.7883 36.297 73.1261 36.297 74.4352 34.9907C74.4352 34.8974 74.3417 34.8974 74.3417 34.8041Z" fill="#D01F50"/>
<path d="M51.9924 51.5995C51.8054 51.6928 51.6183 51.7861 51.3378 51.6928C50.1222 51.1329 48.5325 50.6664 46.9428 50.7597C44.6985 50.853 42.7347 52.066 41.6126 52.9058C40.397 53.4656 39.2748 53.7456 37.8722 53.9322C37.4981 54.0255 37.5916 54.5853 37.9657 54.5853C38.9008 54.5853 39.8359 54.492 40.771 54.492C40.8645 54.492 40.958 54.5853 40.958 54.6786C40.958 54.6786 40.958 54.6786 40.958 54.7719C40.397 55.1452 39.8359 55.5184 39.4618 55.9849C39.1813 56.2649 39.5554 56.7314 39.9294 56.5448C40.958 55.9849 41.9867 55.3318 43.2023 55.0519C43.5764 54.9586 44.0439 54.8653 44.418 54.8653C45.2596 54.9586 46.1947 55.0519 47.1298 54.9586C48.3454 54.8653 49.4676 54.6786 50.4962 54.3987H50.5897C50.6832 54.492 50.7767 54.492 50.6832 54.6786C50.4962 54.9586 50.3092 55.1452 50.1222 55.4251C49.9351 55.5184 49.8416 55.705 49.6546 55.7983C49.0935 56.1716 48.626 56.5448 47.9714 56.6381C47.5038 56.7314 47.6909 57.3846 48.1584 57.2913C48.2519 57.2913 48.4389 57.198 48.5325 57.198C48.5325 57.198 48.5325 57.198 48.626 57.198C49 57.0113 49.3741 56.918 49.7481 56.7314C49.8416 56.7314 49.8416 56.7314 49.9351 56.6381C52.7405 55.4251 55.1718 53.7456 55.8264 50.5731C56.2004 49.4534 56.2004 48.1471 56.0134 47.0274C56.0134 46.9341 56.0134 46.9341 56.0134 46.8407C56.0134 46.2809 55.8264 45.8144 55.5458 45.4411C55.2653 44.9746 54.7977 44.6014 54.2367 44.4147C54.2367 44.4147 54.1431 44.4147 54.0496 44.4147C54.0496 44.4147 53.9561 44.4147 53.8626 44.4147H53.7691C53.6756 44.3214 53.4886 44.3214 53.3951 44.4147C52.9275 44.3214 52.1794 44.2281 51.4313 44.1348C50.5897 44.0415 49.6546 44.0415 48.626 44.0415C48.0649 44.0415 47.5973 44.0415 47.0363 44.1348C46.4752 44.1348 45.9141 44.2281 45.3531 44.3214C44.792 44.4147 44.2309 44.508 43.7634 44.6947C43.2023 44.8813 42.7347 44.9746 42.2672 45.1612C41.7996 45.3478 41.3321 45.5344 40.8645 45.8144C40.4905 46.0943 40.0229 46.2809 39.7424 46.4675C39.3683 46.7474 39.0878 46.9341 38.8073 47.1207C38.5267 47.3073 38.3397 47.5872 38.1527 47.6805C37.7786 48.0538 37.5916 48.2404 37.5916 48.2404C37.4981 48.3337 37.4981 48.5203 37.5916 48.7069C37.6851 48.8935 37.8722 48.8935 38.0592 48.8002C38.0592 48.8002 38.2462 48.6136 38.6202 48.427C38.8073 48.3337 38.9943 48.1471 39.2748 47.9604C39.5554 47.8671 39.8359 47.6805 40.2099 47.4939C40.4905 47.3073 40.958 47.214 41.3321 47.1207C41.7061 46.9341 42.1737 46.9341 42.6412 46.8407C43.1088 46.7474 43.5763 46.7474 44.0439 46.6541C44.5115 46.6541 44.979 46.6541 45.5401 46.6541C46.0076 46.6541 46.4752 46.6541 47.0363 46.7474C47.5038 46.8407 47.9714 46.8407 48.4389 46.9341C48.5325 46.9341 48.7195 47.0274 48.813 47.0274C49.0935 47.1207 49.2805 47.214 49.5611 47.3073C50.2157 47.4939 50.8702 47.7738 51.4313 48.1471C51.8054 48.5203 52.1794 48.9868 52.3664 49.5467C52.834 49.9199 52.7405 50.9463 51.9924 51.5995Z" fill="#6D0B2E"/>
<path d="M61.2501 62.3296C60.7825 61.7698 60.2214 61.4899 59.4734 61.3966C58.6318 61.3033 57.9772 61.4899 57.3226 61.6765C57.0421 61.7698 56.7615 61.7698 56.481 61.9564C56.1069 62.0497 55.8264 62.143 55.3589 62.2363C54.8913 62.2363 54.4237 62.2363 54.1432 61.9564C53.8627 61.7698 53.8627 61.3032 53.7692 61.0233C53.6756 60.7434 53.5821 60.4635 53.3016 60.3702C53.2081 60.2769 53.1146 60.2769 53.0211 60.2769C51.6184 60.7434 50.9638 62.423 50.6833 63.7293C50.5898 64.1958 51.1508 64.2891 51.3379 63.9159C51.6184 63.2627 51.8989 62.7962 52.7405 62.7029C53.1146 62.7029 53.5821 62.8895 54.0497 62.9828C54.8913 63.5426 55.7329 63.4493 56.7615 63.4493H56.9486C57.5096 63.356 58.1642 63.4493 58.7253 63.5426C59.1928 63.636 59.7539 63.636 60.315 63.636C60.5955 63.8226 60.876 63.7293 61.1566 63.5426C61.8111 63.356 61.8111 62.5163 61.2501 62.3296Z" fill="#6D0B2E"/>
<path d="M73.1259 71.2875C73.0324 70.8209 72.7518 70.3544 72.3778 69.7945C72.0038 69.2347 71.4427 68.6748 70.8816 68.3016C70.227 67.8351 69.4789 67.4618 68.6373 67.2752C67.7957 66.9953 66.9541 66.902 66.019 66.8087C65.5515 66.8087 65.0839 66.8087 64.6163 66.8087C64.3358 66.8087 64.1488 66.8087 63.8683 66.8087H63.2137C62.2786 66.902 61.3434 66.9953 60.4083 67.2752C58.5381 67.7418 56.7614 68.3949 55.2652 69.1414C53.6755 69.9812 52.3664 70.9142 51.3377 71.8473C51.2442 71.9406 51.0572 72.0339 50.9637 72.2206C50.8702 72.2206 50.8702 72.2206 50.7767 72.3139C50.6831 72.4072 50.4961 72.5938 50.3091 72.8737C50.1221 72.8737 50.0286 72.967 49.9351 73.0603C49.9351 73.0603 48.9999 74.18 48.2518 74.5533C48.0648 74.6466 47.7843 74.6466 47.5973 74.5533C46.7557 74.18 46.4751 73.7135 46.4751 72.8737C46.7557 70.0745 47.2232 67.2752 48.7194 64.9425V64.8492C48.7194 64.7559 48.8129 64.7559 48.9064 64.6626C49.187 64.2894 48.5324 63.9161 48.3454 64.2894C46.1011 67.3685 44.4179 70.2611 44.2309 74.0867C44.0438 77.5391 44.6049 80.8049 47.2232 83.3242C47.3167 83.4175 47.4102 83.4175 47.5038 83.4175L47.5973 83.5109C47.7843 83.8841 48.4389 83.5109 48.1583 83.1376C48.0648 82.951 47.8778 82.7644 47.6908 82.5778C47.5038 82.3912 47.4102 82.2045 47.2232 81.9246C47.1297 81.738 46.9427 81.4581 46.7557 81.2715C46.7557 81.1781 46.7557 81.0848 46.6622 80.9915C46.5686 80.8049 46.5686 80.7116 46.4751 80.525C46.2881 79.4986 46.1011 78.3789 47.0362 77.7257C47.7843 77.1659 48.8129 77.6324 49.6545 78.1923C50.0286 78.7521 51.0572 80.0585 52.7404 81.4581C53.3015 81.9246 53.956 82.3912 54.7041 82.8577C55.0782 83.0443 55.4522 83.3242 55.8263 83.5109C56.2003 83.6975 56.6679 83.8841 57.1354 84.0707C57.603 84.2573 58.0705 84.4439 58.5381 84.5372C59.0057 84.7239 59.4732 84.8172 60.0343 84.9105C60.5018 85.0038 61.0629 85.0971 61.624 85.0971C62.1851 85.1904 62.6526 85.0971 63.2137 85.0971C63.7747 85.0971 64.2423 85.0038 64.8034 84.9105L65.1774 84.8172H65.2709H65.3644H65.5515L66.206 84.6305C66.3931 84.5372 66.5801 84.5372 66.8606 84.4439C67.1412 84.3506 67.4217 84.2573 67.6087 84.164C68.1698 83.9774 68.6373 83.6975 69.0114 83.4175C69.853 82.8577 70.6011 82.1112 71.2557 81.3648C71.5362 80.9915 71.8167 80.6183 72.0038 80.2451C72.1908 79.8718 72.3778 79.4986 72.5648 79.1254C72.7518 78.7521 72.8454 78.3789 72.9389 78.0057C73.0324 77.6324 73.1259 77.3525 73.1259 76.9793C73.2194 76.6994 73.4064 76.5127 73.4999 76.606C73.687 76.7927 73.7805 77.1659 73.7805 77.5391C73.7805 77.9124 73.687 78.2856 73.7805 78.6588C73.874 79.0321 74.3415 79.1254 74.4351 78.7521C74.6221 78.2856 74.6221 77.8191 74.8091 77.4458C74.9026 77.1659 74.9026 76.7927 74.9961 76.606C75.0896 76.3261 75.0896 76.0462 75.0896 75.7663C75.0896 75.673 75.0896 75.673 75.0896 75.5797C75.0896 73.7135 74.9961 71.9406 74.7156 70.0745C74.5286 68.7682 73.874 67.4618 73.3129 66.2488C73.2194 65.8756 73.0324 65.5957 72.8454 65.2224C72.7518 65.0358 72.6583 64.9425 72.6583 64.7559V64.6626C72.6583 64.6626 72.6583 64.5693 72.5648 64.5693C72.5648 64.5693 72.5648 64.5693 72.5648 64.476C72.3778 64.2894 72.0973 64.3827 72.0038 64.6626C71.9102 64.7559 71.8167 64.9425 72.0038 65.1291C72.0973 65.2224 72.0973 65.2224 72.1908 65.3158C72.5648 66.8087 73.0324 68.2083 73.4064 69.7012C73.4064 69.8879 73.4064 70.0745 73.4064 70.2611C73.4064 70.6343 73.4064 71.0076 73.4064 71.3808L73.3129 71.2875C73.1259 71.2875 73.1259 71.2875 73.1259 71.2875ZM69.4789 78.5655C69.2919 78.7521 69.0114 78.9388 68.7309 79.2187C68.1698 79.5919 67.7022 79.9651 67.0476 80.2451C66.8606 80.3384 66.7671 80.4317 66.5801 80.4317C66.3931 80.525 66.2996 80.525 66.1125 80.6183C65.9255 80.7116 65.832 80.7116 65.645 80.8049C65.458 80.8982 65.2709 80.8982 64.9904 80.9915L64.4293 81.1781H64.2423H64.1488L63.8683 81.2715C63.4942 81.3648 63.1202 81.4581 62.7461 81.4581C62.3721 81.4581 61.998 81.5514 61.5305 81.5514C61.1564 81.5514 60.7824 81.5514 60.3148 81.5514C59.9408 81.4581 59.5667 81.4581 59.0992 81.3648C58.7251 81.2715 58.3511 81.1781 57.977 81.0848C57.603 80.9915 57.2289 80.8982 56.8549 80.8049C56.4809 80.7116 56.2003 80.6183 55.8263 80.4317C60.6889 80.8049 64.8969 80.3384 69.1984 78.2856C69.2919 78.1923 69.4789 78.099 69.5725 78.0057C69.666 77.9124 69.7595 77.9124 69.853 77.9124C69.853 78.1923 69.666 78.3789 69.4789 78.5655ZM71.0686 72.8737C71.0686 72.967 71.0686 72.967 71.0686 73.0603C71.0686 73.1536 70.9751 73.2469 70.8816 73.3403C70.7881 73.5269 70.7881 73.5269 70.4141 73.5269C70.04 73.5269 69.666 73.5269 69.1984 73.6202C69.1049 73.6202 69.1049 73.6202 69.0114 73.6202C68.8244 73.6202 68.7309 73.6202 68.5438 73.6202C68.3568 73.6202 68.2633 73.6202 68.0763 73.6202H67.9828C65.3644 73.9001 62.7461 73.9001 60.1278 74.3666C57.2289 74.8332 54.6106 76.1395 51.8053 76.7927C51.6183 76.886 51.3377 76.9793 51.1507 76.9793C50.7767 76.7927 50.4961 76.5127 50.1221 76.2328C50.0286 76.1395 50.0286 76.0462 49.9351 75.9529C50.1221 75.7663 50.3091 75.4863 50.4961 75.2064C50.9637 74.7399 51.7118 74.0867 52.5534 73.3403C53.582 72.5938 54.7976 71.754 56.2003 71.0076C56.9484 70.6343 57.603 70.3544 58.4446 70.0745C59.1927 69.7945 60.0343 69.6079 60.8759 69.4213C61.7175 69.2347 62.5591 69.1414 63.3072 69.0481L63.9618 68.9548H64.5228C64.8969 68.9548 65.2709 68.9548 65.7385 68.9548C67.2347 69.0481 68.6373 69.328 69.5725 69.8879C69.7595 69.9812 69.853 70.0745 70.04 70.1678C70.1335 70.2611 70.1335 70.2611 70.227 70.3544C70.3205 70.4477 70.4141 70.541 70.5076 70.6343C70.9751 71.2875 71.1622 72.0339 71.0686 72.8737C71.0686 72.7804 71.0686 72.7804 71.0686 72.8737Z" fill="#6D0B2E"/>
<path d="M42.5478 67.0884C42.4543 67.1817 42.4543 67.275 42.3608 67.3683C41.2387 68.3014 40.7711 69.6077 40.21 70.9141C39.836 71.7538 39.462 74.4598 40.4906 75.0196C40.6776 75.1129 40.9581 75.0196 41.0516 74.833C41.5192 74.0865 41.5192 72.5936 41.6127 71.7538C41.7997 70.3542 42.3608 69.1412 43.0154 67.8349C43.1089 67.7416 43.2024 67.6483 43.2024 67.4617C43.4829 66.9951 42.8284 66.6219 42.5478 67.0884Z" fill="#6D0B2E"/>
<path d="M76.0247 72.2204C76.1182 72.6869 76.6793 72.5003 76.7728 72.1271C76.8663 71.194 76.9598 70.3542 76.9598 69.4211C76.9598 68.6747 76.3052 68.1148 75.8377 67.555C75.7442 67.3683 75.6507 67.275 75.5571 67.0884C75.3701 66.6219 74.622 66.9951 74.9026 67.4617C75.2766 68.2081 75.5571 68.8613 75.7442 69.7944C75.8377 70.6341 75.7442 71.4739 76.0247 72.2204Z" fill="#6D0B2E"/>
<path d="M83.7864 66.6221C83.7864 65.9689 83.7864 65.4091 83.7864 64.8492C83.6929 64.1961 83.5994 63.6362 83.5059 62.9831C82.7578 59.9972 81.8226 57.0114 79.9524 54.3054C79.7654 54.0255 79.5784 53.7456 79.4849 53.4656C78.7368 52.3459 78.4562 50.853 78.1757 49.64C77.9887 48.8935 77.8017 48.1471 77.5211 47.4006C76.773 44.9746 75.9314 42.8285 75.8379 40.4958V40.4025C75.3704 37.7899 75.8379 35.1772 74.7158 32.6579C74.1547 31.4449 73.7807 30.3252 73.4066 29.2055C73.4066 29.2055 73.5001 29.2055 73.5001 29.1122C72.191 24.1669 69.9467 20.0613 66.5803 15.6758C62.1852 9.89072 58.2578 6.62493 51.1509 3.82568C47.878 2.51937 42.3608 2.42606 41.8933 2.33275C31.3265 -2.05273 17.9543 -0.0932604 10.4734 6.81155C5.89134 11.0104 2.71196 16.329 1.58982 22.5806C0.561193 27.9925 0.467681 33.2178 1.4028 38.6296C-1.21552 45.0679 -0.186899 60.0905 4.6757 68.2083C6.73295 72.6871 9.44478 76.7927 12.5307 80.6183C15.2425 83.9774 18.6089 86.4967 22.0688 89.0161C31.8875 96.2941 39.9295 89.8558 34.0383 79.1254C33.6642 78.3789 33.1967 77.7258 32.6356 76.9793C32.5421 76.7927 32.3551 76.6061 32.1681 76.5128C32.4486 78.2856 32.4486 80.0585 31.7005 81.738C30.6719 83.7908 28.4276 84.2574 26.4639 83.4176C24.1261 82.3912 23.2845 79.6852 23.4715 77.2592C23.565 75.673 24.4066 74.1801 25.4352 72.8737C23.752 71.1942 21.6013 68.7682 21.4142 67.2753C20.9467 63.5429 21.3207 60.3704 23.565 57.0114L23.6585 56.918C23.752 56.8247 23.752 56.7314 23.8455 56.6381C23.8455 56.5448 23.9391 56.5448 23.9391 56.4515C24.6871 55.5184 25.7158 55.5184 26.8379 55.7983C27.1184 55.985 27.4925 56.1716 27.8665 56.1716C28.6146 56.2649 28.7081 55.2385 28.7081 54.5853C28.8952 53.1857 28.8952 51.5995 28.7081 49.5467C26.7444 31.7248 45.8207 27.4327 54.0497 27.526C57.4162 27.526 61.1566 29.0189 64.4295 31.0717C64.523 31.165 64.523 31.2583 64.71 31.3516C66.7673 32.7512 68.544 34.3375 70.0402 36.2969C71.0688 37.6033 71.9104 39.0029 72.752 40.4025C72.8455 41.0557 72.9391 41.7088 72.752 42.362C72.6585 42.4553 72.6585 42.5486 72.565 42.5486C72.378 43.0151 71.7234 43.1084 71.1623 43.1084H71.0688C70.9753 43.1084 70.7883 43.1084 70.6948 43.1084C69.8532 43.1084 69.0116 43.1084 68.2635 43.2017C67.5154 43.2951 66.7673 43.3884 66.2062 43.575C65.9257 43.6683 65.6452 43.6683 65.3646 43.7616C65.0841 43.8549 64.8971 43.8549 64.71 43.9482C64.4295 44.0415 64.2425 44.1348 64.2425 44.1348C64.0555 44.1348 63.962 44.2281 63.7749 44.3214C63.2139 44.6947 62.9333 45.2545 62.8398 45.8144C62.8398 45.8144 62.8398 45.8144 62.8398 45.9077C62.6528 46.4675 62.6528 47.0274 62.6528 47.5872C62.6528 48.1471 62.6528 48.7069 62.6528 49.2668C62.6528 50.1999 62.7463 51.1329 63.0268 51.6928C63.4944 53.1857 64.4295 54.5853 65.3646 55.8917C65.6452 56.2649 65.9257 56.6381 66.2062 57.0114C66.5803 57.5712 67.0478 58.1311 67.5154 58.5976C67.5154 58.5976 67.5154 58.6909 67.6089 58.6909C67.9829 59.5307 68.2635 60.5571 67.7959 61.0236C66.9543 61.2102 65.9257 61.1169 65.1776 61.5835C64.4295 61.9567 64.336 62.7032 64.523 63.4496C64.523 63.6362 64.7101 63.6362 64.8036 63.7295H64.8971C65.1776 63.8229 65.5517 63.5429 65.8322 63.4496C66.2062 63.263 66.5803 63.0764 66.9543 62.9831C67.0478 62.9831 67.1413 62.9831 67.2349 62.8898C67.8894 62.7965 68.4505 62.7965 69.0116 62.7965C69.4791 62.5165 69.7597 62.2366 69.8532 61.7701C69.9467 60.837 69.8532 59.8106 69.4791 58.9708C69.4791 58.8775 69.3856 58.7842 69.3856 58.6909C69.1051 58.2244 68.731 57.7578 68.4505 57.2913C68.357 57.198 68.357 57.1047 68.2635 57.0114C68.2635 56.918 68.17 56.918 68.17 56.8247C67.7024 56.2649 67.3284 55.6117 66.9543 54.9586C66.9543 54.6787 67.1413 54.772 67.3284 54.772C67.4219 54.772 67.5154 54.8653 67.6089 54.8653C67.8894 55.1452 68.2635 55.3318 68.6375 55.5184C69.4791 55.985 70.9753 56.0783 71.9104 55.985C72.2845 55.985 72.4715 55.3318 72.0039 55.3318C70.6948 55.1452 69.3856 54.492 68.2635 53.6523C68.2635 53.6523 68.2635 53.559 68.17 53.559C68.17 53.559 67.8894 53.279 67.9829 53.279C68.0765 53.279 68.0765 53.1857 68.17 53.1857C69.1051 53.3723 70.2272 53.4656 71.4429 53.4656C72.6585 53.4656 73.7807 53.279 74.6223 53.0924C76.212 53.1857 77.4276 53.8389 78.3627 55.2385C78.8303 56.7314 79.3913 58.1311 79.8589 59.1574C81.9162 64.0095 81.8226 67.4619 81.0745 73.5269C80.607 77.2592 79.2978 80.9916 77.6146 83.7908C77.1471 84.6306 76.399 85.5637 75.7444 86.7767C74.7158 88.4562 73.6871 90.509 72.378 92.3752C71.7234 93.3082 70.9753 94.148 70.0402 94.8012C69.1051 95.4543 68.0765 96.0142 66.8608 96.2941C65.7387 96.6673 64.523 96.854 63.2139 96.9473L62.7463 97.0406H62.2787C61.9982 97.0406 61.6242 97.0406 61.3436 97.0406C60.7826 97.0406 60.2215 97.0406 59.5669 97.0406C58.4448 96.9473 57.3226 96.7607 56.294 96.574C55.2654 96.3874 54.3303 96.0142 53.3952 95.7343C52.5536 95.4543 51.712 95.0811 50.9639 94.7079C50.2158 94.3346 49.6547 94.0547 49.0936 93.8681C48.5326 93.5882 48.1585 93.4949 47.878 93.3082C47.5975 93.2149 47.4104 93.1216 47.4104 93.1216C47.0364 93.0283 46.6623 93.1216 46.5688 93.4949C46.3818 93.8681 46.5688 94.2413 46.9429 94.4279C46.9429 94.4279 47.5039 94.7079 48.5326 95.1744C49.5612 95.641 50.9639 96.4807 52.8341 97.3205C53.7692 97.6937 54.7978 98.067 55.92 98.3469C57.0421 98.6268 58.2578 98.9067 59.5669 98.9067C60.2215 99 60.8761 99 61.5307 99C61.8112 99 62.1852 99 62.4658 99H62.9333H63.4009C64.7101 98.9067 66.1127 98.7201 67.4219 98.3469C68.731 97.9737 70.1337 97.4138 71.2558 96.574C72.378 95.7343 73.4066 94.7079 74.1547 93.6815C74.9028 92.6551 75.5574 91.6287 76.1184 90.6023C76.6795 89.6692 77.1471 88.7361 77.7081 87.8964C78.1757 87.1499 78.5497 86.4967 78.9238 85.9369C79.1108 85.4704 79.3913 85.0038 79.6719 84.5373C79.7654 84.3507 79.9524 84.0707 80.0459 83.8841C80.0459 83.8841 80.0459 83.8841 80.0459 83.7908C80.1394 83.6975 80.1394 83.5109 80.2329 83.4176C80.42 83.0443 80.607 82.6711 80.794 82.2979C80.794 82.2046 80.8875 82.2046 80.8875 82.1113C80.8875 82.018 80.981 82.018 80.981 81.9247C81.6356 79.9652 82.5707 78.0057 83.0383 75.9529C83.6929 72.9671 83.9734 69.9812 84.0669 66.9953C83.7864 66.8087 83.7864 66.7154 83.7864 66.6221ZM51.6184 7.18478C53.5822 7.83794 55.4524 8.5844 57.2291 9.7041C57.6032 9.89072 57.8837 10.1706 58.2578 10.4506C50.5898 11.3836 42.8284 13.2498 35.628 16.0491C37.5917 15.116 39.462 14.1829 41.0517 13.1565C44.6051 10.7305 47.9715 8.67771 51.6184 7.18478ZM42.9219 4.38553C44.5116 4.85207 46.1013 5.22531 47.7845 5.69185H47.878C45.2597 6.99816 42.7349 8.5844 40.21 10.3573C36.1891 13.1565 30.6719 14.8361 27.1184 18.2885C29.6433 14.9294 32.5421 12.2234 36.0955 9.51748C38.2463 7.93124 40.4906 5.87846 42.9219 4.38553ZM36.8436 2.79929C37.6852 2.98591 38.6204 3.26583 39.462 3.45245C38.2463 4.29222 37.1242 5.22531 36.002 6.06508C30.3913 10.5439 25.7158 14.3695 22.1623 20.8078C22.0688 20.9944 22.0688 21.0877 21.9753 21.2743C21.5078 21.2743 20.9467 21.3676 20.4791 21.3676C22.2558 17.8219 23.4715 13.903 25.7158 10.5439C28.2406 6.71824 32.6356 4.47884 36.8436 2.79929ZM28.0536 4.47884C27.212 5.03869 26.4639 5.69185 25.6223 6.34501C25.5287 6.43831 25.4352 6.53162 25.3417 6.62493C25.1547 6.43831 24.9677 6.2517 24.7807 6.15839C24.6871 5.87846 24.5001 5.69185 24.1261 5.50523C24.0326 5.50523 24.0326 5.41192 23.9391 5.41192C23.0039 4.66546 21.8818 4.10561 20.7597 3.54576C23.2845 3.26583 25.5287 3.35914 28.0536 4.47884ZM15.2425 6.2517C15.336 6.15839 15.4295 6.06508 15.523 5.87846H15.6165C18.0478 5.87846 20.6662 6.90485 22.8169 7.83794C23.0975 8.11786 23.378 8.39779 23.6585 8.67771C22.9104 9.7041 22.2558 10.8238 21.6948 11.9435C21.6948 11.6636 21.5078 11.477 21.3207 11.197C19.544 9.33087 17.2062 8.67771 14.7749 8.02455C14.4009 7.93124 14.0268 7.83794 13.7463 7.74463C14.1204 7.3714 14.6814 6.81155 15.2425 6.2517ZM11.2215 10.4506C11.9696 10.6372 12.8112 10.9171 13.5593 11.2903C15.8971 12.3167 18.1413 13.8097 20.3856 15.0227C20.2921 15.2093 20.2921 15.3026 20.1986 15.4892H20.1051C17.1127 14.8361 14.2139 13.8097 11.0345 13.623C10.1929 13.5297 9.44478 13.5297 8.60318 13.623C9.35127 12.41 10.2864 11.3836 11.2215 10.4506ZM6.63944 16.6089C7.66806 16.4223 8.69669 16.329 9.72531 16.329C12.9047 16.2357 15.8971 17.3554 19.0765 18.0085C15.2425 17.4487 11.128 18.3818 7.29402 18.5684C6.73295 18.5684 6.17188 18.6617 5.70432 18.755C5.89135 18.1018 6.17188 17.3554 6.63944 16.6089ZM4.6757 21.8342C6.17188 21.5542 7.66806 21.3676 9.25776 21.3676C12.0631 21.2743 14.8684 20.5279 17.6738 20.7145C17.4868 21.0877 17.4868 21.3676 17.5803 21.6476C13.4658 22.3007 9.44478 23.4204 5.42379 24.6334C5.04974 24.7267 4.58219 24.9133 4.20814 25.0066C4.39516 23.9803 4.48867 22.9539 4.6757 21.8342ZM3.27302 44.4147C3.46005 43.8549 3.55356 43.2017 3.64707 42.5486C6.26539 39.8426 9.53829 37.5099 12.1566 35.8304C14.7749 34.1508 17.5803 32.7512 20.5726 31.7248C17.0192 33.3111 13.9333 35.8304 11.0345 39.0962C8.22913 42.1754 5.79783 45.6278 3.55356 49.0802C3.27302 49.5467 2.89898 50.0132 2.61844 50.5731C2.52493 48.6136 2.71196 46.5608 3.27302 44.4147ZM4.11463 38.3497C4.11463 37.4166 4.11463 36.5769 4.11463 35.6438C8.97722 32.2847 14.0268 29.8587 19.9181 28.5524C21.0402 28.2724 22.2558 28.0858 23.378 27.9925C18.5154 29.2988 13.9333 31.3516 9.72531 34.0575C7.9486 35.2705 5.98486 36.7635 4.11463 38.3497ZM3.74058 58.0377C3.46005 56.918 3.27302 55.985 3.086 54.9586C3.64707 54.2121 4.11463 53.4656 4.58219 52.8125C6.63944 49.3601 8.88371 46.0943 11.4085 42.9218C14.6814 38.8163 18.3284 35.6438 22.7234 33.8709C18.6089 36.2036 15.4295 41.149 12.6242 44.6014C9.72531 48.2404 7.29402 51.9727 4.86272 55.8917C4.58218 56.6381 4.11463 57.2913 3.74058 58.0377ZM5.04974 61.1169C5.89135 59.5307 6.91997 58.0377 7.85508 56.5448C9.91234 53.0924 12.1566 49.8266 14.6814 46.6541C17.2997 43.2951 20.6662 37.6966 25.0612 35.9237C24.9677 36.1103 24.8742 36.2036 24.8742 36.3902C23.0975 37.8832 21.6013 39.8426 20.1051 41.6155C17.8608 44.4147 15.523 47.4006 13.5593 50.4798C11.6891 53.3723 10.4734 56.8247 9.16425 59.9972C8.32264 61.9567 7.38753 63.9162 6.63944 65.9689C5.98486 64.2894 5.5173 62.7032 5.04974 61.1169ZM10.2864 73.247C9.53829 72.1273 8.88371 70.9143 8.22913 69.7013C8.88371 67.2753 10.0058 65.1292 10.941 62.7965C12.1566 59.8106 13.3723 56.7314 14.7749 53.8389C15.4295 52.4393 17.3933 48.9869 18.3284 47.7738C17.1127 50.2932 14.962 54.9586 13.9333 57.5712C12.0631 62.5165 10.8475 67.8351 10.2864 73.247ZM18.3284 81.738C18.3284 81.9246 18.2349 82.018 18.2349 82.2046C17.6738 81.738 17.0192 81.1782 16.4581 80.7116C16.5517 77.6325 16.8322 74.46 17.3933 71.5674C17.5803 70.541 18.4219 68.115 18.9829 67.0886C19.357 68.0217 19.6375 69.9812 20.2921 70.821C21.0402 74.2734 18.9829 78.4722 18.3284 81.738ZM21.9753 53.9322C21.0402 54.8653 20.2921 55.5184 19.8246 56.7314C19.0765 58.5043 18.5154 59.8106 17.8608 62.5165C17.1127 65.8756 15.523 68.9548 14.962 72.3139C14.5879 74.1801 13.9333 75.5797 13.7463 77.6325C13.4658 77.2592 13.0917 76.886 12.8112 76.5128C13.0917 71.3808 13.9333 66.2489 15.4295 61.3035C16.5517 57.5712 18.0478 54.1188 19.8246 50.6664C20.4791 49.3601 24.2196 45.9077 25.7158 44.1348C25.1547 47.0274 26.0898 52.3459 26.0898 52.3459C26.0898 52.3459 23.8455 52.1593 21.9753 53.9322ZM18.2349 26.033C13.7463 27.0594 9.53829 28.5524 5.70432 31.0717C5.14325 31.4449 4.58219 31.8181 4.11463 32.2847C4.11463 31.5382 4.11463 30.8851 4.11463 30.1386C4.11463 29.4854 4.11463 28.739 4.11463 28.0858C5.14325 27.6193 6.26539 27.246 7.48104 26.9661C11.315 25.7531 15.2425 24.7267 19.2635 24.2602C22.7234 23.8869 26.2768 23.9803 29.7368 23.8869C30.4849 23.8869 31.2329 23.8869 31.8875 23.9803C27.212 24.2602 22.6299 25.0066 18.2349 26.033ZM31.7005 20.6212C31.607 20.6212 31.5135 20.6212 31.5135 20.6212C36.7501 18.1951 42.4543 16.4223 48.3455 15.116C48.1585 15.2093 48.065 15.2093 47.878 15.3026C44.3246 16.7955 41.1452 19.3148 38.1528 21.8342C36.0955 21.181 34.1318 20.7145 31.7005 20.6212ZM41.8933 23.7936C41.8933 23.7936 41.7997 23.7936 41.7997 23.7003C41.4257 23.607 40.9581 23.4204 40.5841 23.3271C42.7349 21.4609 44.9791 19.6881 47.5039 18.2885C51.5249 15.9557 56.107 14.7427 60.502 13.1565C60.7826 13.0632 60.9696 12.8766 61.0631 12.7833C61.7177 13.7164 62.3723 14.6494 63.1204 15.4892C63.2139 15.5825 63.2139 15.7691 63.3074 15.8624C59.941 15.7691 56.8551 16.1424 53.7692 17.542C50.2158 19.1282 46.4753 20.9011 43.4829 23.5137C43.0154 23.5137 42.4543 23.7003 41.8933 23.7936ZM52.46 21.2743C52.8341 21.0877 53.2081 20.9011 53.5822 20.7145C56.481 19.3148 59.0058 18.6617 62.2787 18.6617C63.2139 18.6617 64.149 18.6617 65.0841 18.5684C65.6452 19.3148 66.1127 19.968 66.6738 20.7145C65.2711 20.7145 63.7749 20.8078 62.3723 20.8078C59.2864 20.8078 55.7329 20.7145 52.46 21.2743ZM61.1566 23.7003C61.4371 23.7003 61.6242 23.7003 61.9047 23.7003C63.7749 23.7003 65.6452 23.607 67.6089 23.607C68.357 24.3535 69.0116 25.1 69.5726 25.9397C66.7673 25.1 63.962 24.2602 61.1566 23.7003ZM71.0688 32.6579C70.1337 31.2583 69.2921 29.6721 68.2635 28.3657C68.8246 28.6457 69.2921 29.0189 69.8532 29.2988C70.1337 29.4854 70.5078 29.5787 70.7883 29.7654C71.3494 31.165 71.8169 32.5646 72.2845 34.0575C71.9104 33.4977 71.5364 33.0312 71.0688 32.6579ZM74.9963 49.9199C74.7158 50.1999 74.1547 50.1999 73.8742 50.1999C73.1261 49.9199 72.191 49.7333 71.2558 49.7333C70.0402 49.7333 68.9181 50.1066 67.9829 50.5731C67.8894 50.5731 67.8894 50.5731 67.7959 50.5731C67.5154 50.853 67.0478 50.853 66.7673 50.3865C65.7387 48.1471 69.0116 45.1612 71.1623 45.8144C71.1623 45.8144 71.1623 45.8144 71.2558 45.8144C72.565 45.8144 73.6871 46.0943 74.5287 47.4006C74.8093 47.9605 75.2768 49.0802 74.9963 49.9199Z" fill="#6D0B2E"/>
<path d="M27.9601 79.7785C30.2043 80.3383 30.4849 77.6324 30.4849 75.8595C29.3627 75.5796 28.1471 75.5796 27.399 74.9265C27.3055 74.8331 27.212 74.7398 27.0249 74.5532C26.7444 75.0198 26.5574 75.2064 26.3704 75.7662C26.0898 77.3525 26.0898 79.3119 27.9601 79.7785Z" fill="#6D0B2E"/>
<path d="M27.0248 74.4599C27.5858 73.5268 28.4274 72.2205 29.082 71.2874C29.1755 71.1941 29.3625 71.0075 29.456 70.9142C30.0171 70.3543 29.269 69.5146 28.6144 69.9811C27.5858 70.9142 26.3702 71.754 25.4351 72.8737C25.5286 72.967 25.6221 73.0603 25.7156 73.2469C25.6221 73.1536 25.6221 73.1536 25.5286 73.0603C25.9961 73.6201 26.5572 74.18 27.0248 74.4599Z" fill="#6D0B2E"/>
<path d="M100.805 85.4702C99.9637 84.9104 99.2156 84.2572 98.7481 83.3242C98.2805 82.3911 98 81.458 98 80.4316C98 79.3119 98.2805 78.3788 98.7481 77.4457C99.2156 76.606 99.9637 75.8595 100.805 75.393C101.647 74.9264 102.676 74.6465 103.798 74.6465C104.639 74.6465 105.387 74.7398 106.042 75.0197C106.697 75.2996 107.351 75.6729 108.006 76.2327L106.977 77.539C106.135 76.6993 105.013 76.326 103.798 76.326C103.05 76.326 102.395 76.5127 101.834 76.8859C101.273 77.2591 100.805 77.7257 100.431 78.2855C100.057 78.8454 99.9637 79.5918 99.9637 80.3383C99.9637 81.0848 100.151 81.7379 100.431 82.3911C100.712 83.0442 101.179 83.5108 101.74 83.884C102.302 84.2572 102.956 84.4438 103.704 84.4438C104.359 84.4438 105.013 84.3505 105.574 84.0706C106.135 83.7907 106.603 83.4175 106.977 82.9509L108.193 84.1639C107.632 84.8171 106.977 85.3769 106.229 85.7502C105.481 86.1234 104.639 86.31 103.704 86.31C102.676 86.2167 101.647 85.9368 100.805 85.4702Z" fill="#6D0B2E"/>
<path d="M111.185 85.7502C110.624 85.3769 110.157 85.0037 109.782 84.3505C109.408 83.7907 109.315 83.1375 109.315 82.3911C109.315 81.6446 109.502 80.9914 109.782 80.4316C110.157 79.8717 110.624 79.4052 111.185 79.032C111.746 78.6587 112.494 78.5654 113.242 78.5654C113.991 78.5654 114.645 78.752 115.3 79.032C115.861 79.4052 116.328 79.7784 116.702 80.4316C117.076 80.9914 117.17 81.6446 117.17 82.3911C117.17 83.1375 116.983 83.7907 116.702 84.3505C116.328 84.9104 115.861 85.3769 115.3 85.7502C114.739 86.1234 113.991 86.2167 113.242 86.2167C112.401 86.2167 111.746 86.0301 111.185 85.7502ZM114.739 83.9773C115.113 83.5108 115.3 83.0442 115.3 82.2978C115.3 81.6446 115.113 81.0848 114.739 80.6182C114.365 80.1517 113.803 79.9651 113.242 79.9651C112.588 79.9651 112.12 80.1517 111.746 80.6182C111.372 81.0848 111.185 81.5513 111.185 82.2978C111.185 82.9509 111.372 83.5108 111.746 83.9773C112.12 84.4438 112.681 84.6305 113.242 84.6305C113.803 84.6305 114.365 84.4438 114.739 83.9773Z" fill="#6D0B2E"/>
<path d="M126.895 75.8594C126.708 76.046 126.615 76.4192 126.615 76.7925V78.6586H128.578V80.1516H126.615V85.9367H124.838V80.1516H121.004V85.9367H119.227V80.1516H117.824V78.6586H119.134V76.6991C119.134 75.8594 119.321 75.2062 119.788 74.6464C120.256 74.1798 120.91 73.8999 121.752 73.8999C122.126 73.8999 122.407 73.8999 122.687 73.9932C122.968 74.0865 123.342 74.1798 123.622 74.3664L123.155 75.7661C122.781 75.6728 122.5 75.5795 122.126 75.5795C121.752 75.5795 121.471 75.6728 121.284 75.9527C121.097 76.1393 121.004 76.5125 121.004 76.8858V78.7519H124.838V76.7925C124.838 75.9527 125.025 75.2995 125.492 74.7397C125.96 74.2731 126.615 73.9932 127.363 73.9932C127.737 73.9932 128.111 74.0865 128.485 74.1798C128.765 74.2731 129.139 74.4598 129.42 74.6464L128.765 75.9527C128.578 75.8594 128.391 75.7661 128.204 75.6728C128.017 75.5795 127.83 75.5795 127.643 75.5795C127.363 75.5795 127.176 75.6728 126.895 75.8594Z" fill="#6D0B2E"/>
<path d="M135.405 79.4053C135.966 80.0585 136.34 80.8983 136.34 82.018C136.34 82.2046 136.34 82.4845 136.246 82.8577H130.916C131.01 83.4176 131.29 83.8841 131.758 84.1641C132.225 84.444 132.693 84.6306 133.254 84.6306C133.628 84.6306 134.002 84.5373 134.376 84.444C134.657 84.3507 134.937 84.1641 135.218 83.8841L135.966 85.0038C135.498 85.3771 135.124 85.5637 134.657 85.7503C134.189 85.9369 133.721 86.0302 133.16 86.0302C132.412 86.0302 131.664 85.8436 131.103 85.5637C130.542 85.1904 130.075 84.8172 129.7 84.1641C129.326 83.6042 129.233 82.8577 129.233 82.1113C129.233 81.3648 129.42 80.7117 129.7 80.1518C129.981 79.592 130.449 79.1254 131.01 78.7522C131.571 78.379 132.225 78.2856 132.973 78.2856C134.002 78.4723 134.75 78.7522 135.405 79.4053ZM131.664 80.4317C131.29 80.7117 131.103 81.1782 131.01 81.738H134.657C134.657 81.1782 134.47 80.7117 134.189 80.4317C133.908 80.1518 133.441 79.9652 132.973 79.9652C132.412 79.9652 131.945 80.0585 131.664 80.4317Z" fill="#6D0B2E"/>
<path d="M143.634 79.4053C144.195 80.0585 144.569 80.8983 144.569 82.018C144.569 82.2046 144.569 82.4845 144.475 82.8577H139.239C139.332 83.4176 139.613 83.8841 140.08 84.1641C140.548 84.444 141.015 84.6306 141.576 84.6306C141.95 84.6306 142.324 84.5373 142.699 84.444C142.979 84.3507 143.26 84.1641 143.54 83.8841L144.288 85.0038C143.821 85.3771 143.447 85.5637 142.979 85.7503C142.512 85.9369 142.044 86.0302 141.483 86.0302C140.735 86.0302 139.987 85.8436 139.426 85.5637C138.865 85.1904 138.397 84.8172 138.023 84.1641C137.649 83.6042 137.555 82.8577 137.555 82.1113C137.555 81.3648 137.742 80.7117 138.023 80.1518C138.304 79.592 138.771 79.1254 139.332 78.7522C139.893 78.379 140.548 78.2856 141.296 78.2856C142.231 78.4723 143.073 78.7522 143.634 79.4053ZM139.893 80.4317C139.519 80.7117 139.332 81.1782 139.239 81.738H142.886C142.886 81.1782 142.699 80.7117 142.418 80.4317C142.137 80.1518 141.67 79.9652 141.202 79.9652C140.641 79.9652 140.267 80.0585 139.893 80.4317Z" fill="#6D0B2E"/>
<path d="M150.367 80.1516H148.964V78.6586H150.367V76.6991C150.367 75.8594 150.554 75.2062 151.021 74.6464C151.489 74.1798 152.143 73.8999 152.891 73.8999C153.265 73.8999 153.639 73.9932 154.013 74.0865C154.294 74.1798 154.668 74.3664 154.949 74.5531L154.294 75.8594C154.107 75.7661 153.92 75.6728 153.733 75.5795C153.546 75.4861 153.359 75.4861 153.172 75.4861C152.798 75.4861 152.517 75.5795 152.33 75.8594C152.143 76.046 152.05 76.4192 152.05 76.7925V78.6586H154.107V80.1516H152.143V85.9367H150.367V80.1516Z" fill="#6D0B2E"/>
<path d="M160.372 78.8452L159.905 80.3381C159.624 80.2448 159.25 80.1515 158.969 80.1515C158.408 80.1515 158.034 80.3381 157.66 80.618C157.38 80.9913 157.193 81.3645 157.193 81.9244V85.9366H155.416V78.6586H156.632L157.006 79.7783C157.193 79.405 157.473 79.0318 157.847 78.8452C158.221 78.6586 158.595 78.5653 159.156 78.5653C159.624 78.472 159.998 78.5653 160.372 78.8452Z" fill="#6D0B2E"/>
<path d="M162.616 85.7502C162.055 85.3769 161.588 85.0037 161.214 84.3505C160.84 83.7907 160.746 83.1375 160.746 82.3911C160.746 81.6446 160.933 80.9914 161.214 80.4316C161.588 79.8717 162.055 79.4052 162.616 79.032C163.177 78.6587 163.925 78.5654 164.674 78.5654C165.422 78.5654 166.076 78.752 166.731 79.032C167.292 79.4052 167.759 79.7784 168.134 80.4316C168.508 80.9914 168.601 81.6446 168.601 82.3911C168.601 83.1375 168.414 83.7907 168.134 84.3505C167.759 84.9104 167.292 85.3769 166.731 85.7502C166.17 86.1234 165.422 86.2167 164.674 86.2167C163.925 86.2167 163.271 86.0301 162.616 85.7502ZM166.17 83.9773C166.544 83.5108 166.731 83.0442 166.731 82.2978C166.731 81.6446 166.544 81.0848 166.17 80.6182C165.796 80.1517 165.235 79.9651 164.674 79.9651C164.019 79.9651 163.551 80.1517 163.177 80.6182C162.803 81.0848 162.616 81.5513 162.616 82.2978C162.616 82.9509 162.803 83.5108 163.177 83.9773C163.551 84.4438 164.113 84.6305 164.674 84.6305C165.328 84.6305 165.796 84.4438 166.17 83.9773Z" fill="#6D0B2E"/>
<path d="M180.571 79.2187C181.038 79.6853 181.225 80.4317 181.225 81.2715V85.9369H179.449V81.4581C179.449 80.9916 179.355 80.7117 179.168 80.4317C178.981 80.1518 178.7 80.0585 178.326 80.0585C177.765 80.0585 177.391 80.2451 177.111 80.6183C176.83 80.9916 176.737 81.4581 176.737 82.018V85.9369H174.866V81.3648C174.866 80.9916 174.773 80.6183 174.586 80.3384C174.399 80.0585 174.118 79.9652 173.744 79.9652C173.183 79.9652 172.809 80.1518 172.529 80.525C172.248 80.8983 172.155 81.3648 172.155 81.9247V85.8436H170.378V78.5656H171.594L171.968 79.6853C172.248 79.2187 172.529 78.9388 172.903 78.6589C173.277 78.379 173.744 78.2856 174.305 78.2856C174.866 78.2856 175.241 78.379 175.615 78.6589C175.989 78.8455 176.269 79.2187 176.456 79.592C176.737 79.2187 177.017 78.8455 177.391 78.6589C177.765 78.4723 178.233 78.2856 178.794 78.2856C179.542 78.4723 180.197 78.7522 180.571 79.2187Z" fill="#6D0B2E"/>
<path d="M197.029 85.9367L194.971 86.03L194.036 83.9772H188.799L187.864 86.03H185.807L191.044 74.833H191.605L197.029 85.9367ZM190.67 79.7783L189.454 82.391H193.382L192.166 79.7783C191.885 79.1252 191.605 78.472 191.418 77.9122C191.231 78.5653 190.95 79.2185 190.67 79.7783Z" fill="#6D0B2E"/>
<path d="M198.151 80.1516H196.748V78.6586H198.151V76.6991C198.151 75.8594 198.338 75.2062 198.805 74.6464C199.273 74.1798 199.927 73.8999 200.676 73.8999C201.05 73.8999 201.424 73.9932 201.798 74.0865C202.078 74.1798 202.452 74.3664 202.733 74.5531L202.078 75.8594C201.891 75.7661 201.704 75.6728 201.517 75.5795C201.33 75.4861 201.143 75.4861 200.956 75.4861C200.582 75.4861 200.301 75.5795 200.114 75.8594C199.927 76.046 199.834 76.4192 199.834 76.7925V78.6586H201.891V80.1516H199.927V85.9367H198.151V80.1516Z" fill="#6D0B2E"/>
<path d="M208.157 78.8452L207.689 80.3381C207.408 80.2448 207.034 80.1515 206.754 80.1515C206.193 80.1515 205.819 80.3381 205.445 80.618C205.164 80.9913 204.977 81.3645 204.977 81.9244V85.9366H203.2V78.6586H204.416L204.79 79.7783C204.977 79.405 205.258 79.0318 205.632 78.8452C206.006 78.6586 206.38 78.5653 206.941 78.5653C207.408 78.472 207.782 78.5653 208.157 78.8452Z" fill="#6D0B2E"/>
<path d="M209.466 76.8861C209.279 76.6995 209.185 76.4196 209.185 76.1397C209.185 75.8597 209.279 75.5798 209.466 75.3932C209.653 75.2066 209.933 75.1133 210.307 75.1133C210.681 75.1133 210.962 75.2066 211.149 75.3932C211.336 75.5798 211.429 75.8597 211.429 76.1397C211.429 76.4196 211.336 76.6995 211.149 76.8861C210.962 77.0728 210.681 77.1661 210.307 77.1661C209.933 77.1661 209.653 77.0728 209.466 76.8861ZM209.372 78.659H211.149V85.937H209.372V78.659Z" fill="#6D0B2E"/>
<path d="M214.702 85.7502C214.141 85.4702 213.674 85.0037 213.3 84.4438C212.926 83.884 212.739 83.1375 212.739 82.3911C212.739 81.6446 212.926 80.8981 213.3 80.3383C213.674 79.7784 214.141 79.3119 214.702 79.032C215.263 78.752 215.918 78.5654 216.666 78.5654C217.695 78.5654 218.63 78.9387 219.378 79.5918L218.536 80.8048C218.256 80.6182 217.975 80.4316 217.695 80.3383C217.414 80.245 217.134 80.1517 216.76 80.1517C216.105 80.1517 215.637 80.3383 215.17 80.8048C214.796 81.2714 214.515 81.7379 214.515 82.4844C214.515 83.2308 214.702 83.6974 215.17 84.1639C215.544 84.5372 216.105 84.8171 216.666 84.8171C217.04 84.8171 217.414 84.7238 217.695 84.6305C217.975 84.5372 218.256 84.3505 218.536 84.0706L219.471 85.2836C219.004 85.6569 218.63 85.9368 218.162 86.1234C217.695 86.31 217.134 86.4033 216.572 86.4033C215.918 86.2167 215.263 86.0301 214.702 85.7502Z" fill="#6D0B2E"/>
<path d="M226.017 79.2186C226.578 79.6852 226.859 80.3383 226.859 81.2714V86.0301H225.643L225.363 84.9104C225.082 85.2837 224.708 85.6569 224.24 85.8435C223.773 86.0301 223.305 86.2168 222.744 86.2168C222.09 86.2168 221.529 86.0301 221.061 85.6569C220.594 85.2837 220.406 84.8171 220.406 84.164C220.406 83.3242 220.781 82.671 221.435 82.2978C222.09 81.9246 223.025 81.6446 224.147 81.6446C224.427 81.6446 224.708 81.6446 225.082 81.6446V81.1781C225.082 80.8049 224.989 80.5249 224.708 80.3383C224.427 80.1517 224.053 80.0584 223.586 80.0584C222.838 80.0584 222.09 80.245 221.342 80.6183L220.874 79.2186C221.996 78.7521 223.025 78.4722 223.96 78.4722C224.802 78.5655 225.55 78.7521 226.017 79.2186ZM224.521 84.2573C224.895 83.884 225.082 83.4175 225.082 82.671C224.802 82.671 224.521 82.5777 224.24 82.5777C223.586 82.5777 223.118 82.671 222.744 82.951C222.37 83.1376 222.183 83.5108 222.183 83.884C222.183 84.164 222.277 84.3506 222.464 84.5372C222.651 84.7238 222.931 84.7238 223.212 84.7238C223.773 84.8171 224.24 84.6305 224.521 84.2573Z" fill="#6D0B2E"/>
<path d="M183.469 55.9851C183.002 52.626 182.441 49.2669 181.973 45.9078C181.412 42.5487 180.851 39.0963 180.384 35.7372C180.384 35.5506 180.384 35.2706 180.197 35.1773C179.635 34.8041 177.578 35.1773 177.204 35.7372C173.931 40.4959 170.565 45.1613 167.292 49.92C167.011 50.2933 166.918 50.5732 166.45 49.92C163.364 45.4412 160.092 41.0558 157.099 36.4837C156.351 35.364 155.603 34.8041 154.2 35.084C154.107 35.084 154.107 35.084 154.013 35.084C153.546 34.9907 153.359 35.2706 153.359 35.7372C152.985 38.2565 152.611 40.7758 152.143 43.3885C151.676 46.281 151.208 49.1736 150.74 52.0661C150.46 54.1189 150.086 56.265 149.805 58.3178C149.431 60.7438 149.057 63.1698 148.683 65.5958C148.59 66.0624 148.87 66.1557 149.244 66.1557C151.582 66.1557 154.013 66.1557 156.351 66.1557C156.725 66.1557 156.912 66.0624 157.006 65.6891C157.567 61.8635 158.128 57.9445 158.689 54.1189C158.782 53.3724 158.782 52.626 158.969 51.6929C161.027 54.9587 163.271 57.8512 165.422 60.8371C166.17 61.8635 167.479 61.8635 168.227 60.8371C169.443 59.2509 170.565 57.6646 171.687 55.9851C172.622 54.6788 173.557 53.4657 174.492 52.1594C174.866 52.4394 174.773 52.7193 174.773 52.9992C175.427 57.1981 176.082 61.3969 176.737 65.5958C176.83 66.1557 177.017 66.249 177.485 66.249C179.729 66.249 182.067 66.249 184.311 66.249C184.966 66.249 184.966 66.0624 184.872 65.5025C184.405 62.2367 183.937 59.0642 183.469 55.9851Z" fill="#6D0B2E"/>
<path d="M208.717 50.573C208.156 50.2931 208.156 50.1065 208.624 49.7332C209.933 48.8002 210.681 47.4938 211.242 46.0009C212.364 42.6418 211.149 38.9095 208.25 36.95C206.567 35.8303 204.697 35.3638 202.733 35.2705C198.338 35.1772 194.036 35.2705 189.641 35.2705C188.893 35.2705 188.8 35.4571 188.8 36.2036C188.8 41.0556 188.8 45.9076 188.8 50.7596C188.8 55.6117 188.8 60.3704 188.8 65.2224C188.8 66.0622 189.08 66.2488 189.828 66.2488C194.13 66.2488 198.431 66.2488 202.733 66.2488C203.855 66.2488 204.977 66.1555 206.099 65.8756C210.681 64.9425 213.393 60.8369 212.645 56.2648C212.084 53.6522 210.868 51.786 208.717 50.573ZM197.029 44.4147C197.029 43.6682 197.029 42.9217 197.029 42.1753C197.029 41.8954 196.935 41.6154 197.403 41.6154C198.805 41.6154 200.301 41.4288 201.704 42.082C202.733 42.5485 203.294 43.6682 203.2 44.6013C203.013 45.9076 202.172 46.934 201.143 47.1206C200.021 47.4005 198.805 47.3072 197.59 47.3072C197.122 47.3072 197.029 47.0273 197.029 46.6541C197.029 45.9076 197.029 45.1611 197.029 44.4147ZM204.042 57.1046C203.948 58.4109 202.546 59.6239 201.05 59.6239C199.927 59.6239 198.712 59.6239 197.59 59.6239C197.122 59.6239 197.029 59.5306 197.029 59.0641C197.029 58.2243 197.029 57.3845 197.029 56.5447C197.029 55.705 197.029 54.9585 197.029 54.1187C197.029 53.7455 197.122 53.4656 197.59 53.5589C198.899 53.6522 200.301 53.4656 201.611 53.6522C203.387 54.0254 204.229 55.1451 204.042 57.1046Z" fill="#6D0B2E"/>
<path d="M145.13 58.7843C141.483 58.7843 137.929 58.7843 134.283 58.7843C133.628 58.7843 133.441 58.691 133.441 58.0378C133.534 57.0115 133.534 55.8918 133.441 54.8654C133.441 54.2122 133.534 54.0256 134.283 54.0256C137.275 54.0256 140.174 54.0256 143.166 54.0256C144.008 54.0256 144.195 53.7457 144.101 52.9992C144.008 51.3197 144.008 49.5468 144.101 47.8673C144.101 47.1208 143.821 46.9342 143.166 46.9342C140.267 46.9342 137.275 46.9342 134.376 46.9342C133.721 46.9342 133.441 46.7476 133.441 46.0944C133.534 45.068 133.534 44.1349 133.441 43.1085C133.347 42.3621 133.628 42.2688 134.376 42.2688C137.836 42.2688 141.389 42.2688 144.849 42.2688C145.691 42.2688 145.878 41.9888 145.784 41.2424C145.691 39.4695 145.691 37.79 145.784 36.0171C145.784 35.2706 145.597 34.9907 144.756 34.9907C138.491 34.9907 132.319 34.9907 126.054 34.9907C125.212 34.9907 125.118 35.2706 125.118 36.0171C125.118 40.7758 125.118 45.6279 125.118 50.3866C125.118 55.2386 125.118 60.0906 125.118 64.9427C125.118 65.5958 125.212 65.8757 126.054 65.8757C132.506 65.8757 138.865 65.8757 145.317 65.8757C145.971 65.8757 146.158 65.6891 146.158 65.036C146.158 63.2631 146.065 61.3969 146.158 59.6241C146.158 59.0642 145.878 58.7843 145.13 58.7843Z" fill="#6D0B2E"/>
<path d="M120.443 39.2828C121.097 38.2564 121.378 37.23 121.284 36.017C121.284 35.3639 121.097 35.1772 120.443 35.1772C113.149 35.1772 105.949 35.1772 98.6546 35.1772C98.0936 35.1772 97.813 35.3639 97.813 36.017C97.813 38.0698 97.813 40.0293 97.813 42.082C97.813 42.7352 98 43.0151 98.7481 43.0151C101.928 43.0151 105.2 43.0151 108.38 43.0151C108.567 43.0151 108.941 42.8285 109.034 43.1084C109.221 43.3884 108.941 43.575 108.847 43.7616C105.294 49.8266 101.741 55.8917 98.1871 61.9567C97.626 62.9831 97.252 64.0095 97.252 65.2225C97.252 66.0623 97.5325 66.2489 98.2806 66.1556C100.057 66.1556 101.928 66.1556 103.704 66.1556C105.481 66.1556 107.351 66.1556 109.128 66.1556C110.998 66.1556 112.868 66.1556 114.739 66.1556C116.609 66.1556 118.479 66.1556 120.349 66.1556C121.004 66.1556 121.191 65.9689 121.191 65.3158C121.191 63.3563 121.097 61.3968 121.191 59.4374C121.191 58.6909 120.91 58.411 120.162 58.411C116.796 58.5043 113.429 58.3177 110.063 58.5043C109.782 58.5043 109.502 58.6909 109.315 58.3177C109.221 58.0378 109.502 57.8511 109.595 57.6645C113.242 51.5062 116.796 45.3478 120.443 39.2828Z" fill="#6D0B2E"/>
<path d="M244.532 64.6626C240.044 55.3317 235.555 46.0009 231.16 36.6701C230.599 35.3638 229.945 34.8039 228.448 34.9906C227.887 35.0839 227.513 35.2705 227.326 35.737C224.988 40.6824 222.651 45.5344 220.313 50.4797C217.975 55.3317 215.637 60.2771 213.3 65.1291C213.019 65.7823 213.112 65.9689 213.861 65.9689C216.292 65.9689 218.723 65.9689 221.154 65.9689C221.622 65.9689 221.903 65.8756 222.09 65.3157C222.37 64.3826 222.838 63.5429 223.212 62.7031C223.399 62.2365 223.679 62.0499 224.24 62.0499C227.42 62.0499 230.693 62.0499 233.872 62.0499C234.433 62.0499 234.807 62.1432 234.994 62.7964C235.275 63.6362 235.742 64.4759 236.023 65.409C236.21 65.8756 236.397 66.0622 236.958 66.0622C238.174 66.0622 239.389 66.0622 240.605 66.0622C241.821 66.0622 243.036 66.0622 244.252 66.0622C245 66.0622 245.187 65.8756 244.813 65.2224C244.719 65.0358 244.626 64.8492 244.532 64.6626ZM231.534 56.0782C229.851 56.0782 228.168 56.0782 226.485 56.0782C226.298 56.0782 225.924 56.1715 225.924 55.8916C226.298 54.9585 226.672 54.0254 227.046 53.1857C227.607 51.786 228.168 50.2931 228.635 48.8935C228.729 48.7069 228.729 48.5202 228.916 48.4269C229.196 48.4269 229.103 48.6136 229.196 48.8002C229.945 51.0396 230.88 53.279 231.815 55.4251C232.189 55.8916 232.095 56.0782 231.534 56.0782Z" fill="#6D0B2E"/>
</g>
<defs>
<clipPath id="clip0">
<rect width="245" height="99" fill="white"/>
</clipPath>
</defs>
</svg>
