<svg width="77" height="78" viewBox="0 0 77 78" fill="none" xmlns="http://www.w3.org/2000/svg">
<path d="M52.7787 62.2476C50.8423 60.3072 48.5418 58.7684 46.0092 57.7195C43.4766 56.6706 40.7617 56.1322 38.0205 56.1352V56.0599C33.4928 56.0599 29.1504 54.2616 25.9485 51.0604C22.7465 47.8593 20.947 43.5174 20.9458 38.9897H20.875C20.8799 36.1975 20.3209 33.433 19.2317 30.862C18.1854 28.3794 16.6677 26.1232 14.7626 24.2182C12.8578 22.3118 10.6016 20.7926 8.11878 19.7447C5.54948 18.6615 2.78827 18.1072 0 18.1147L0 21.915C2.24322 21.9088 4.46539 22.3476 6.53791 23.2059C8.61042 24.0643 10.4921 25.3252 12.0741 26.9156C13.6645 28.4975 14.9254 30.3792 15.7837 32.4518C16.6421 34.5243 17.0809 36.7464 17.0747 38.9897H17.1455C17.1421 41.7326 17.6795 44.4493 18.7272 46.9843C19.7748 49.5193 21.3121 51.8228 23.2511 53.763C25.19 55.7032 27.4925 57.2419 30.0269 58.2912C32.5612 59.3405 35.2776 59.8797 38.0205 59.8779V59.9488C42.5482 59.95 46.8901 61.7494 50.0913 64.9514C53.2924 68.1534 55.0908 72.4958 55.0908 77.0235H58.9088C58.9118 74.2812 58.373 71.5653 57.3233 69.0319C56.2736 66.4984 54.7337 64.1974 52.792 62.2608L52.7787 62.2476Z" fill="#D32056"/>
<path d="M38.0205 63.4569V63.4215C34.8107 63.4244 31.6317 62.7945 28.6655 61.5679C25.6992 60.3413 23.0039 58.542 20.7335 56.2729C18.4632 54.0038 16.6625 51.3094 15.4342 48.3439C14.206 45.3783 13.5744 42.1997 13.5756 38.9898H13.549C13.552 37.2085 13.2011 35.4444 12.5168 33.7998C11.8325 32.1551 10.8284 30.6628 9.56271 29.4094C8.30963 28.1494 6.81946 27.15 5.17818 26.4689C3.53691 25.7878 1.777 25.4383 0 25.4408L0 29.2411C2.58435 29.2411 5.06285 30.2677 6.89026 32.0951C8.71768 33.9225 9.74431 36.401 9.74431 38.9854H9.77088C9.76972 42.6949 10.4995 46.3684 11.9185 49.7957C13.3376 53.2231 15.4181 56.3373 18.0411 58.9604C20.6642 61.5834 23.7783 63.6639 27.2057 65.0829C30.6331 66.502 34.3065 67.2318 38.0161 67.2306V67.2572C40.6004 67.2572 43.0789 68.2838 44.9063 70.1112C46.7338 71.9386 47.7604 74.4171 47.7604 77.0015H51.5607C51.5613 75.2218 51.2112 73.4595 50.5306 71.8151C49.8499 70.1708 48.852 68.6766 47.5938 67.418C46.3356 66.1594 44.8418 65.161 43.1977 64.4798C41.5535 63.7986 39.7913 63.448 38.0117 63.448L38.0205 63.4569Z" fill="#D32056"/>
<path d="M58.7537 56.2726C56.483 54.0057 54.6819 51.313 53.4536 48.3488C52.2254 45.3846 51.5942 42.2072 51.5961 38.9986H51.5695C51.5707 37.2186 51.2211 35.4558 50.5407 33.8109C49.8603 32.166 48.8625 30.6714 47.6042 29.4123C46.346 28.1532 44.852 27.1544 43.2075 26.4729C41.5631 25.7915 39.8005 25.4407 38.0205 25.4407V25.4097C34.7524 25.4177 31.5163 24.7654 28.5065 23.4919C25.6015 22.2619 22.963 20.4793 20.7377 18.2432C18.5073 16.0193 16.7294 13.384 15.5023 10.4832C14.2259 7.47402 13.5705 4.23796 13.5756 0.969238L9.77531 0.969238C9.76736 4.74527 10.5206 8.48417 11.9899 11.9626C12.2645 12.6093 12.5657 13.2382 12.8758 13.8583C12.2557 13.5394 11.6267 13.2382 10.9801 12.9725C7.5067 11.5003 3.77247 10.7426 0 10.7445L0 14.5448C3.26872 14.5398 6.50478 15.1951 9.51399 16.4715C12.4148 17.6986 15.0501 19.4765 17.274 21.7069C19.5101 23.9322 21.2926 26.5707 22.5226 29.4758C23.7961 32.4856 24.4485 35.7216 24.4405 38.9897H24.4715C24.4715 42.5832 25.899 46.0294 28.4399 48.5704C30.9808 51.1113 34.4271 52.5388 38.0205 52.5388V52.5653C41.2305 52.5636 44.4094 53.1948 47.3752 54.4228C50.3411 55.6508 53.0357 57.4516 55.3049 59.722C57.5741 61.9924 59.3734 64.688 60.5998 67.6545C61.8262 70.621 62.4556 73.8002 62.4521 77.0103H66.2569C66.2664 73.2326 65.5131 69.492 64.0422 66.0125C63.7721 65.3658 63.4664 64.7369 63.1564 64.1168C63.7765 64.4357 64.4054 64.7413 65.0521 65.0026C68.5316 66.4735 72.2723 67.2268 76.0499 67.2172V63.4214C72.8411 63.4248 69.6632 62.7942 66.6988 61.5659C63.7344 60.3376 61.0419 58.5357 58.7759 56.2637L58.7537 56.2726ZM49.0094 50.9841C45.5315 49.5131 41.7923 48.7598 38.0161 48.7695V48.7429C35.4317 48.7429 32.9532 47.7163 31.1258 45.8889C29.2984 44.0615 28.2718 41.583 28.2718 38.9986H28.2452C28.2532 35.2226 27.5 31.4837 26.0306 28.0053C25.756 27.3586 25.4504 26.7296 25.1447 26.1095C25.7648 26.424 26.3938 26.7296 27.0404 26.9954C30.5189 28.4648 34.2578 29.218 38.0338 29.21V29.2366C40.6181 29.2366 43.0966 30.2632 44.9241 32.0906C46.7515 33.918 47.7781 36.3965 47.7781 38.9809H47.8047C47.795 42.7571 48.5483 46.4963 50.0193 49.9742C50.2939 50.6209 50.5951 51.2499 50.9051 51.87C50.2895 51.5599 49.6605 51.2587 49.0139 50.9841H49.0094Z" fill="#D32056"/>
<path d="M58.9663 38.9898H58.9088C58.9111 36.2466 58.3723 33.53 57.3232 30.9954C56.2742 28.4608 54.7354 26.1581 52.7951 24.219C50.8548 22.28 48.5511 20.7427 46.0159 19.6952C43.4806 18.6478 40.7636 18.1107 38.0205 18.1148V18.0439C35.7773 18.0501 33.5551 17.6113 31.4826 16.753C29.4101 15.8946 27.5284 14.6338 25.9464 13.0433C24.356 11.4614 23.0951 9.57966 22.2368 7.50715C21.3784 5.43463 20.9396 3.21246 20.9458 0.969238L17.1456 0.969238C17.1396 3.7611 17.697 6.52546 18.7844 9.09688C19.8323 11.5797 21.3515 13.8359 23.2579 15.7407C25.1629 17.6458 27.4191 19.1635 29.9017 20.2098C32.4727 21.299 35.2372 21.858 38.0294 21.8531V21.9239C42.5571 21.9251 46.899 23.7246 50.1001 26.9266C53.3013 30.1286 55.0996 34.4709 55.0996 38.9986H55.1749C55.1726 41.7401 55.7106 44.4551 56.7583 46.9885C57.8059 49.5219 59.3426 51.824 61.2805 53.7631C63.2184 55.7022 65.5194 57.2403 68.0522 58.2896C70.5849 59.3388 73.2996 59.8786 76.041 59.878V56.0733C71.5133 56.0733 67.171 54.275 63.969 51.0738C60.767 47.8726 58.9675 43.5308 58.9663 39.003V38.9898Z" fill="#D32056"/>
<path d="M66.2922 38.9897H66.2657C66.2686 35.2797 65.54 31.6055 64.1216 28.1773C62.7031 24.7492 60.6227 21.6343 57.9993 19.0109C55.3759 16.3875 52.2611 14.3071 48.8329 12.8887C45.4047 11.4702 41.7305 10.7416 38.0205 10.7445V10.7135C35.4361 10.7135 32.9576 9.68691 31.1302 7.8595C29.3028 6.03209 28.2762 3.55359 28.2762 0.969238L24.4714 0.969238C24.469 2.75046 24.82 4.51447 25.5043 6.15902C26.1886 7.80357 27.1925 9.29595 28.4578 10.5497C29.7112 11.8154 31.2035 12.8195 32.8481 13.5038C34.4927 14.1881 36.2569 14.5389 38.0382 14.536V14.5625C41.2452 14.5631 44.4207 15.1954 47.3834 16.4234C50.346 17.6514 53.0377 19.4509 55.3048 21.7192C57.5719 23.9875 59.37 26.6803 60.5963 29.6436C61.8227 32.6069 62.4533 35.7827 62.4521 38.9897H62.4787C62.4787 40.7694 62.8293 42.5316 63.5105 44.1758C64.1916 45.8199 65.19 47.3137 66.4487 48.5719C67.7073 49.8301 69.2014 50.828 70.8458 51.5087C72.4901 52.1893 74.2525 52.5393 76.0321 52.5388V48.7385C74.7525 48.7379 73.4855 48.4853 72.3035 47.995C71.1215 47.5048 70.0476 46.7866 69.1432 45.8813C68.2387 44.9761 67.5214 43.9015 67.0323 42.7191C66.5431 41.5366 66.2917 40.2694 66.2922 38.9897Z" fill="#D32056"/>
<path d="M38.0207 32.6339C36.7636 32.6339 35.5348 33.0067 34.4896 33.7051C33.4443 34.4035 32.6297 35.3961 32.1486 36.5575C31.6675 37.7189 31.5417 38.9969 31.7869 40.2298C32.0322 41.4628 32.6375 42.5953 33.5264 43.4842C34.4153 44.3731 35.5478 44.9784 36.7808 45.2237C38.0137 45.4689 39.2916 45.343 40.453 44.862C41.6144 44.3809 42.6071 43.5662 43.3055 42.521C44.0039 41.4758 44.3767 40.2469 44.3767 38.9898C44.3773 38.155 44.2133 37.3283 43.894 36.5569C43.5748 35.7855 43.1067 35.0845 42.5164 34.4942C41.926 33.9039 41.2251 33.4358 40.4537 33.1165C39.6823 32.7973 38.8556 32.6333 38.0207 32.6339Z" fill="#D32056"/>
</svg>
