<svg width="161" height="162" viewBox="0 0 161 162" fill="none" xmlns="http://www.w3.org/2000/svg">
<path d="M160.986 78.1883C154.553 78.1873 148.384 75.6341 143.835 71.0902C139.286 66.5462 136.73 60.3836 136.73 53.9574H136.622C136.625 50.0661 135.86 46.2123 134.37 42.6166C132.881 39.0209 130.696 35.7538 127.942 33.0022C125.187 30.2506 121.917 28.0685 118.317 26.5806C114.718 25.0928 110.86 24.3284 106.965 24.3312V24.2308C103.778 24.2398 100.622 23.617 97.6777 22.3985C94.7338 21.1801 92.0611 19.3902 89.8145 17.1326C87.5559 14.8878 85.7655 12.2176 84.547 9.27676C83.3285 6.3359 82.7062 3.18278 82.7161 0L77.3331 0C77.3262 3.96188 78.1196 7.88442 79.6657 11.5329C81.1532 15.0529 83.3118 18.2503 86.0213 20.947C88.7208 23.6537 91.9215 25.8101 95.4452 27.296C99.0975 28.8402 103.024 29.6327 106.99 29.6262V29.7266C113.422 29.7295 119.589 32.2835 124.136 36.8272C128.683 41.371 131.238 47.5326 131.239 53.9574H131.339C131.336 57.8488 132.102 61.7026 133.591 65.2983C135.08 68.894 137.265 72.1611 140.019 74.9127C142.774 77.6643 146.044 79.8464 149.644 81.3343C153.243 82.8221 157.101 83.5865 160.996 83.5837L160.986 78.1883Z" fill="#D32056"/>
<path d="M160.986 73.1872V67.7919C157.314 67.7881 153.794 66.3293 151.197 63.7357C148.601 61.142 147.141 57.6254 147.137 53.9574H147.097C147.108 48.5989 146.035 43.2934 143.943 38.3592C143.558 37.4558 143.144 36.5679 142.701 35.6956C143.57 36.1437 144.46 36.556 145.368 36.9396C150.309 39.0285 155.621 40.1003 160.986 40.0908V34.7133C156.343 34.7224 151.746 33.7958 147.471 31.9887C143.344 30.2476 139.595 27.7224 136.432 24.5535C133.26 21.3937 130.732 17.6486 128.989 13.5261C127.177 9.24706 126.249 4.64623 126.261 0L120.86 0C120.851 5.3596 121.924 10.6661 124.015 15.6018C124.399 16.5088 124.812 17.3943 125.26 18.269C124.388 17.8209 123.498 17.4086 122.594 17.025C117.652 14.9342 112.339 13.8623 106.972 13.8739V13.8344C103.3 13.8306 99.7802 12.3719 97.1839 9.77822C94.5875 7.18458 93.1273 3.66795 93.1235 0L87.7225 0C87.7155 2.52634 88.2102 5.02897 89.178 7.36303C90.1457 9.6971 91.5673 11.8162 93.3603 13.5978C95.1437 15.389 97.2651 16.8091 99.6016 17.7758C101.938 18.7426 104.443 19.2368 106.972 19.2298V19.2692C111.533 19.265 116.051 20.1593 120.266 21.9011C124.48 23.6428 128.31 26.1978 131.535 29.4197C134.761 32.6417 137.318 36.4673 139.062 40.6778C140.805 44.8883 141.701 49.4009 141.696 53.9574H141.736C141.736 59.0575 143.764 63.9487 147.374 67.555C150.984 71.1613 155.88 73.1872 160.986 73.1872Z" fill="#D32056"/>
<path d="M160.986 62.9772V44.9341C159.8 44.9341 158.625 45.1675 157.53 45.621C156.434 46.0745 155.438 46.7392 154.6 47.5772C153.761 48.4151 153.096 49.4099 152.643 50.5046C152.189 51.5994 151.956 52.7727 151.957 53.9575C151.956 55.1421 152.189 56.3152 152.643 57.4097C153.096 58.5043 153.762 59.4988 154.6 60.3365C155.439 61.1741 156.434 61.8385 157.53 62.2916C158.625 62.7447 159.8 62.9777 160.986 62.9772Z" fill="#D32056"/>
<path d="M151.978 107.908C152.134 110.188 153.15 112.325 154.822 113.886C156.494 115.446 158.697 116.314 160.986 116.314V98.8915C158.697 98.8926 156.494 99.7615 154.822 101.323C153.15 102.884 152.134 105.021 151.978 107.302H151.957C151.957 107.402 151.957 107.506 151.957 107.607C151.957 107.707 151.957 107.811 151.957 107.915L151.978 107.908Z" fill="#D32056"/>
<path d="M131.328 0C131.322 3.96188 132.115 7.88441 133.661 11.5328C135.149 15.0529 137.307 18.2503 140.017 20.947C142.716 23.6537 145.917 25.81 149.441 27.296C153.093 28.8404 157.019 29.633 160.985 29.6262V24.2487C157.799 24.2577 154.642 23.6349 151.698 22.4164C148.754 21.198 146.082 19.4081 143.835 17.1505C141.573 14.9041 139.78 12.2313 138.56 9.28723C137.34 6.34311 136.718 3.1863 136.729 0L131.328 0Z" fill="#D32056"/>
<path d="M160.986 13.8344C157.314 13.8306 153.794 12.3718 151.197 9.7782C148.601 7.18457 147.141 3.66795 147.137 0L141.736 0C141.731 2.52734 142.228 5.03057 143.198 7.36469C144.168 9.6988 145.592 11.8174 147.388 13.5978C149.171 15.389 151.293 16.8091 153.629 17.7758C155.966 18.7425 158.471 19.2367 161 19.2298L160.986 13.8344Z" fill="#D32056"/>
<path d="M160.986 9.02337V0H151.957C151.956 1.1848 152.189 2.35808 152.643 3.45282C153.096 4.54757 153.761 5.54232 154.6 6.38027C155.438 7.21821 156.434 7.88293 157.53 8.33644C158.625 8.78995 159.8 9.02337 160.986 9.02337Z" fill="#D32056"/>
<path d="M106.972 44.9341C105.786 44.9341 104.612 45.1675 103.516 45.621C102.42 46.0745 101.425 46.7392 100.586 47.5772C99.7477 48.4151 99.0827 49.4099 98.6291 50.5046C98.1756 51.5994 97.9424 52.7727 97.9429 53.9575H106.972V62.9772C108.158 62.9777 109.333 62.7448 110.428 62.2917C111.524 61.8386 112.52 61.1743 113.359 60.3367C114.198 59.4991 114.863 58.5046 115.317 57.41C115.771 56.3154 116.005 55.1423 116.005 53.9575C116.005 52.7725 115.771 51.5991 115.317 50.5044C114.863 49.4096 114.198 48.4149 113.359 47.577C112.52 46.7391 111.525 46.0744 110.429 45.6209C109.333 45.1675 108.158 44.9341 106.972 44.9341Z" fill="#D32056"/>
<path d="M116.005 0H97.9429C97.9424 1.1848 98.1756 2.35808 98.6291 3.45282C99.0827 4.54757 99.7477 5.54232 100.586 6.38027C101.425 7.21821 102.42 7.88293 103.516 8.33644C104.612 8.78995 105.786 9.02337 106.972 9.02337C109.368 9.02337 111.665 8.07269 113.359 6.38049C115.053 4.68828 116.005 2.39315 116.005 0V0Z" fill="#D32056"/>
<path d="M93.0838 53.9574C93.0943 48.5989 92.0214 43.2934 89.9293 38.3592C89.5489 37.4558 89.1326 36.5667 88.6876 35.6956C89.5561 36.1437 90.4461 36.556 91.354 36.9396C96.2949 39.0285 101.607 40.1003 106.972 40.0908V40.1302C110.644 40.1311 114.166 41.5877 116.765 44.1801C119.363 46.7725 120.826 50.2889 120.832 53.9574H120.871C120.859 59.3127 121.929 64.6153 124.015 69.5485C124.399 70.4555 124.811 71.341 125.26 72.2121C124.389 71.7676 123.5 71.3541 122.594 70.9717C117.652 68.8809 112.339 67.809 106.972 67.8205V73.198C111.535 73.1937 116.054 74.0888 120.27 75.8319C124.487 77.575 128.317 80.1319 131.543 83.3561C134.768 86.5803 137.326 90.4085 139.068 94.6215C140.81 98.8345 141.703 103.349 141.696 107.908H141.75C141.9 112.904 143.993 117.645 147.584 121.125C151.175 124.605 155.982 126.551 160.985 126.55V121.136C157.314 121.132 153.793 119.674 151.197 117.08C148.601 114.486 147.14 110.97 147.137 107.302H147.09C147.025 102.148 145.956 97.0556 143.943 92.3095C143.558 91.4061 143.144 90.5182 142.701 89.6459C143.57 90.094 144.46 90.5063 145.367 90.8898C150.308 92.9788 155.62 94.0506 160.985 94.041V88.6636C156.424 88.6678 151.907 87.7735 147.692 86.0317C143.477 84.29 139.648 81.735 136.422 78.5131C133.197 75.2912 130.639 71.4655 128.896 67.255C127.152 63.0445 126.257 58.5319 126.261 53.9754H126.215C126.215 48.8753 124.186 43.9841 120.576 40.3778C116.966 36.7716 112.07 34.7456 106.965 34.7456V34.7061C102.322 34.7149 97.7256 33.7882 93.4498 31.9816C89.3292 30.2326 85.5876 27.7015 82.4325 24.5284C79.2603 21.3686 76.7325 17.6235 74.9896 13.501C73.1757 9.23076 72.2432 4.63877 72.2478 0L66.8468 0C66.8372 5.3596 67.9101 10.6661 70.0013 15.6018C70.3853 16.5088 70.798 17.3943 71.2465 18.269C70.3745 17.8209 69.4845 17.4086 68.5801 17.025C64.0436 15.1052 59.1895 14.0439 54.2648 13.8954V13.8344C50.5931 13.8306 47.0728 12.3719 44.4765 9.77822C41.8802 7.18458 40.4199 3.66795 40.4161 0L35.033 0C35.0261 2.52634 35.5208 5.02897 36.4885 7.36303C37.4563 9.6971 38.8778 11.8162 40.6709 13.5978C43.9549 16.8947 48.3306 18.8807 52.9765 19.1832V19.2692C57.5377 19.265 62.0551 20.1593 66.2699 21.9011C70.4848 23.6428 74.3144 26.1978 77.5397 29.4197C80.765 32.6417 83.3226 36.4673 85.0661 40.6778C86.8097 44.8883 87.705 49.4009 87.7007 53.9574H93.0838Z" fill="#D32056"/>
<path d="M77.2145 53.9574H82.5975C82.6055 46.324 79.6601 38.9828 74.3768 33.4678C69.0936 27.9528 61.8812 24.6909 54.2469 24.3635V24.2308C51.0603 24.2398 47.9036 23.617 44.9596 22.3985C42.0157 21.1801 39.3431 19.3902 37.0965 17.1326C34.8398 14.8869 33.0514 12.2163 31.8348 9.27551C30.6182 6.33469 29.9975 3.18203 30.0088 0L24.6258 0C24.619 3.96188 25.4123 7.88442 26.9584 11.5329C28.4459 15.052 30.6031 18.2492 33.3104 20.947C36.0119 23.653 39.2136 25.8093 42.7379 27.296C45.985 28.6696 49.4532 29.448 52.9765 29.594V29.7266C59.4093 29.7276 65.5783 32.2807 70.127 36.8247C74.6757 41.3687 77.2315 47.5313 77.2324 53.9574H77.2145Z" fill="#D32056"/>
<path d="M53.612 8.99469C53.8273 9.01261 54.0462 9.02337 54.2651 9.02337V8.92657C56.4086 8.6101 58.3669 7.53442 59.7826 5.89574C61.1984 4.25706 61.9772 2.16458 61.9772 0L45.218 0C45.2185 2.16671 45.9994 4.26092 47.418 5.89991C48.8367 7.5389 50.7983 8.61323 52.9445 8.92657V9.02337C53.1777 9.02337 53.3966 9.01261 53.612 8.99469Z" fill="#D32056"/>
<path d="M18.5538 18.2834C17.6818 17.8352 16.7918 17.423 15.8838 17.0394C10.9402 14.9415 5.62267 13.8647 0.251465 13.8738L0.251465 19.2513C4.89406 19.2422 9.49078 20.1689 13.7665 21.9759C17.8947 23.7224 21.6438 26.2537 24.8053 29.429C27.9775 32.5888 30.5053 36.334 32.2483 40.4564C34.0572 44.7277 34.9848 49.3197 34.9757 53.9574H40.3587C40.3707 48.5998 39.3015 43.2948 37.215 38.3592C36.831 37.4558 36.4183 36.5667 35.9697 35.6956C36.8562 36.1365 37.739 36.5667 38.6505 36.9252C43.1872 38.8447 48.0412 39.9059 52.9658 40.0549V40.1159C56.6376 40.1197 60.1578 41.5784 62.7542 44.1721C65.3505 46.7657 66.8108 50.2823 66.8146 53.9503H72.1976C72.1987 49.076 70.3462 44.3833 67.0149 40.8219C63.6836 37.2604 59.1223 35.0961 54.2541 34.7671V34.681C49.6115 34.6902 45.0148 33.7635 40.7391 31.9565C36.6168 30.2162 32.8716 27.6936 29.7111 24.5284C26.5388 21.3686 24.0111 17.6235 22.2681 13.501C20.4592 9.22974 19.5316 4.63778 19.5407 0L14.1577 0C14.1466 5.35975 15.2196 10.6665 17.3121 15.6018C17.6782 16.5088 18.0909 17.3979 18.5538 18.2834Z" fill="#D32056"/>
<path d="M0.251465 24.3312V29.7087C3.43805 29.6998 6.59474 30.3226 9.53867 31.541C12.4826 32.7594 15.1553 34.5493 17.4018 36.8069C19.6618 39.0511 21.4535 41.721 22.6732 44.6619C23.8929 47.6028 24.5164 50.7562 24.5074 53.9395H29.8905C29.8973 49.9776 29.1039 46.0551 27.5578 42.4066C26.0728 38.8939 23.9206 35.7018 21.2202 33.0068C18.5196 30.3024 15.3191 28.1474 11.7963 26.6615C8.14406 25.117 4.21745 24.3244 0.251465 24.3312H0.251465Z" fill="#D32056"/>
<path d="M0.251465 34.7276V40.1051C3.92322 40.1089 7.44349 41.5676 10.0398 44.1613C12.6361 46.7549 14.0964 50.2715 14.1002 53.9395H19.4833C19.4902 51.4131 18.9955 48.9105 18.0278 46.5764C17.06 44.2424 15.6385 42.1232 13.8454 40.3417C12.0627 38.5558 9.94356 37.1403 7.61039 36.1768C5.27722 35.2132 2.77615 34.7207 0.251465 34.7276H0.251465Z" fill="#D32056"/>
<path d="M0.251465 44.9341V53.9575H9.2842C9.2842 51.5643 8.33254 49.2692 6.63857 47.577C4.94461 45.8848 2.64709 44.9341 0.251465 44.9341H0.251465Z" fill="#D32056"/>
<path d="M53.6118 44.9628C53.3964 44.9628 53.1775 44.9341 52.9586 44.9341V45.0309C50.8125 45.3442 48.8508 46.4185 47.4322 48.0575C46.0136 49.6965 45.2326 51.7907 45.2322 53.9575H61.977C61.9765 51.7907 61.1956 49.6965 59.777 48.0575C58.3584 46.4185 56.3967 45.3442 54.2506 45.0309V44.9341C54.046 44.9341 53.8271 44.9448 53.6118 44.9628Z" fill="#D32056"/>
<path d="M0.251465 9.02337C2.64709 9.02337 4.94461 8.07269 6.63857 6.38049C8.33254 4.68828 9.2842 2.39315 9.2842 0L0.251465 0V9.02337Z" fill="#D32056"/>
<path d="M160.986 136.946V131.533C154.553 131.532 148.384 128.979 143.835 124.435C139.286 119.891 136.73 113.728 136.73 107.302H136.622C136.47 99.5511 133.279 92.1694 127.736 86.744C122.193 81.3185 114.74 78.2825 106.979 78.2887V83.6841C113.411 83.6841 119.58 86.2359 124.13 90.7784C128.679 95.3209 131.236 101.482 131.239 107.908H131.354C131.499 115.661 134.686 123.048 140.227 128.478C145.769 133.909 153.223 136.949 160.986 136.946Z" fill="#D32056"/>
<path d="M143.943 145.654C143.557 144.751 143.144 143.863 142.701 142.99C143.569 143.435 144.458 143.85 145.367 144.234C150.308 146.323 155.62 147.395 160.985 147.386V141.99C156.424 141.994 151.907 141.1 147.692 139.358C143.477 137.617 139.647 135.062 136.422 131.84C133.197 128.618 130.639 124.792 128.896 120.582C127.152 116.371 126.257 111.858 126.261 107.302H126.215C126.058 102.31 123.962 97.5759 120.372 94.101C116.782 90.6261 111.978 88.6837 106.979 88.6852V94.0806C110.65 94.0834 114.17 95.5408 116.767 98.133C119.364 100.725 120.826 104.24 120.831 107.908H120.878C120.945 113.061 122.014 118.151 124.025 122.897C124.409 123.804 124.822 124.689 125.271 125.56C124.4 125.116 123.511 124.701 122.604 124.316C117.658 122.228 112.341 121.159 106.972 121.172V126.571C111.533 126.567 116.05 127.461 120.265 129.203C124.48 130.945 128.31 133.5 131.535 136.722C134.76 139.944 137.318 143.769 139.062 147.98C140.805 152.19 141.7 156.703 141.696 161.259H147.097C147.109 155.898 146.036 150.59 143.943 145.654Z" fill="#D32056"/>
<path d="M106.972 137.029C110.158 137.028 113.313 137.654 116.257 138.871C119.201 140.088 121.876 141.873 124.129 144.123C126.383 146.373 128.171 149.044 129.39 151.985C130.61 154.925 131.238 158.077 131.239 161.259H136.622C136.625 157.368 135.859 153.514 134.37 149.919C132.881 146.323 130.696 143.056 127.942 140.304C125.187 137.553 121.917 135.37 118.317 133.883C114.718 132.395 110.86 131.63 106.965 131.633L106.972 137.029Z" fill="#D32056"/>
<path d="M106.972 142.03V147.425C110.646 147.426 114.169 148.883 116.767 151.477C119.366 154.071 120.828 157.59 120.832 161.259H126.215C126.215 156.159 124.186 151.268 120.576 147.662C116.966 144.056 112.07 142.03 106.965 142.03H106.972Z" fill="#D32056"/>
<path d="M106.972 152.236V161.259H116.005C116.005 160.074 115.771 158.901 115.317 157.806C114.863 156.711 114.198 155.717 113.359 154.879C112.52 154.041 111.525 153.376 110.429 152.923C109.333 152.469 108.158 152.236 106.972 152.236Z" fill="#D32056"/>
<path d="M160.986 152.236C159.8 152.236 158.625 152.469 157.53 152.923C156.434 153.376 155.438 154.041 154.6 154.879C153.761 155.717 153.096 156.712 152.643 157.806C152.189 158.901 151.956 160.074 151.957 161.259H160.986V152.236Z" fill="#D32056"/>
<path d="M115.98 107.302C115.824 105.021 114.808 102.884 113.136 101.323C111.464 99.7615 109.261 98.8926 106.972 98.8915V116.322C109.261 116.321 111.465 115.452 113.138 113.89C114.81 112.328 115.826 110.19 115.98 107.908H116.005C116.005 107.804 116.005 107.703 116.005 107.599C116.005 107.495 116.005 107.395 116.005 107.295L115.98 107.302Z" fill="#D32056"/>
</svg>
