<svg width="109" height="108" viewBox="0 0 109 108" fill="none" xmlns="http://www.w3.org/2000/svg">
<path d="M75.6471 87.1014C72.9084 84.3571 69.6546 82.1807 66.0726 80.6971C62.4905 79.2136 58.6507 78.4521 54.7736 78.4564V78.3499C48.3698 78.3499 42.2281 75.8064 37.6993 71.2788C33.1706 66.7511 30.6255 60.6102 30.6238 54.2063H30.5236C30.5305 50.2571 29.74 46.3472 28.1994 42.7109C26.7195 39.1995 24.573 36.0084 21.8785 33.314C19.1844 30.6177 15.9933 28.469 12.4817 26.9869C8.84776 25.4549 4.94241 24.6708 0.998779 24.6815L0.998779 30.0565C4.17151 30.0477 7.31447 30.6683 10.2458 31.8823C13.1771 33.0964 15.8385 34.8797 18.0759 37.1292C20.3254 39.3666 22.1087 42.028 23.3227 44.9593C24.5368 47.8906 25.1574 51.0336 25.1486 54.2063H25.2488C25.2439 58.0858 26.0041 61.9283 27.4858 65.5137C28.9676 69.0991 31.1419 72.357 33.8843 75.1012C36.6267 77.8453 39.8833 80.0216 43.4677 81.5057C47.0522 82.9898 50.8941 83.7524 54.7736 83.7499V83.8501C61.1775 83.8518 67.3185 86.3969 71.8461 90.9257C76.3737 95.4545 78.9172 101.596 78.9172 108H84.3172C84.3215 104.121 83.5594 100.28 82.0748 96.6969C80.5901 93.1137 78.4121 89.8592 75.6659 87.1202L75.6471 87.1014Z" fill="#D32056"/>
<path d="M54.7736 88.8117V88.7616C50.2337 88.7657 45.7375 87.8749 41.5422 86.14C37.3469 84.4051 33.5346 81.8602 30.3236 78.6509C27.1125 75.4416 24.5656 71.6308 22.8284 67.4364C21.0913 63.242 20.198 58.7463 20.1996 54.2064H20.162C20.1662 51.6869 19.67 49.1918 18.7022 46.8657C17.7343 44.5396 16.3141 42.4289 14.5239 40.6561C12.7516 38.8741 10.644 37.4606 8.32262 36.4972C6.00126 35.5338 3.51211 35.0396 0.998779 35.0431L0.998779 40.4181C4.65399 40.4181 8.1595 41.8701 10.7441 44.4547C13.3288 47.0394 14.7808 50.5449 14.7808 54.2001H14.8184C14.8167 59.4467 15.8489 64.6423 17.8559 69.4899C19.863 74.3374 22.8056 78.742 26.5155 82.452C30.2254 86.1619 34.63 89.1045 39.4776 91.1115C44.3252 93.1186 49.5207 94.1507 54.7674 94.1491V94.1867C58.4226 94.1867 61.9281 95.6387 64.5127 98.2233C67.0973 100.808 68.5494 104.313 68.5494 107.969H73.9244C73.9252 105.452 73.4301 102.959 72.4674 100.633C71.5048 98.3076 70.0933 96.1943 68.3138 94.4142C66.5342 92.634 64.4214 91.2219 62.096 90.2585C59.7706 89.2951 57.2782 88.7992 54.7611 88.7992L54.7736 88.8117Z" fill="#D32056"/>
<path d="M84.098 78.6506C80.8863 75.4444 78.3389 71.636 76.6017 67.4435C74.8645 63.2511 73.9717 58.757 73.9745 54.2189H73.9369C73.9385 51.7013 73.4441 49.208 72.4818 46.8816C71.5195 44.5552 70.1082 42.4411 68.3285 40.6603C66.5489 38.8795 64.4358 37.4669 62.11 36.503C59.7842 35.5392 57.2912 35.0431 54.7736 35.0431V34.9993C50.1513 35.0106 45.5744 34.0879 41.3174 32.2867C37.2086 30.547 33.4768 28.0259 30.3294 24.8632C27.1748 21.7178 24.6602 17.9905 22.9247 13.8878C21.1194 9.63165 20.1925 5.05468 20.1996 0.431519L14.8246 0.431519C14.8134 5.7722 15.8787 11.0604 17.9569 15.9801C18.3453 16.8947 18.7713 17.7843 19.2098 18.6613C18.3328 18.2103 17.4432 17.7843 16.5286 17.4084C11.616 15.3262 6.33442 14.2546 0.998779 14.2574L0.998779 19.6323C5.62195 19.6252 10.1989 20.5521 14.455 22.3574C18.5578 24.0929 22.2851 26.6076 25.4305 29.7621C28.5931 32.9096 31.1143 36.6413 32.854 40.7501C34.6552 45.0071 35.5778 49.584 35.5665 54.2064H35.6104C35.6104 59.2888 37.6294 64.163 41.2232 67.7568C44.817 71.3506 49.6912 73.3696 54.7736 73.3696V73.4072C59.3138 73.4047 63.8098 74.2975 68.0046 76.0343C72.1994 77.7712 76.0106 80.3181 79.22 83.5293C82.4295 86.7406 84.9744 90.5531 86.709 94.7488C88.4435 98.9445 89.3338 103.441 89.3289 107.981H94.7101C94.7236 102.638 93.6582 97.3477 91.5778 92.4264C91.1957 91.5117 90.7635 90.6222 90.3249 89.7451C91.202 90.1962 92.0915 90.6284 93.0062 90.9981C97.9275 93.0784 103.218 94.1438 108.561 94.1303V88.7616C104.023 88.7664 99.5279 87.8746 95.3352 86.1373C91.1425 84.4 87.3343 81.8514 84.1293 78.6381L84.098 78.6506ZM70.316 71.1708C65.3969 69.0902 60.1083 68.0248 54.7674 68.0385V68.0009C51.1122 68.0009 47.6067 66.5489 45.022 63.9643C42.4374 61.3796 40.9854 57.8741 40.9854 54.2189H40.9478C40.959 48.8782 39.8937 43.5901 37.8155 38.6703C37.4271 37.7557 36.9949 36.8661 36.5626 35.9891C37.4396 36.4339 38.3292 36.8661 39.2438 37.242C44.1636 39.3202 49.4518 40.3855 54.7924 40.3743V40.4118C58.4477 40.4118 61.9532 41.8639 64.5378 44.4485C67.1224 47.0331 68.5744 50.5386 68.5744 54.1938H68.612C68.5984 59.5348 69.6638 64.8234 71.7443 69.7424C72.1327 70.6571 72.5587 71.5466 72.9972 72.4237C72.1264 71.9852 71.2369 71.5592 70.3223 71.1708H70.316Z" fill="#D32056"/>
<path d="M84.3987 54.2064H84.3172C84.3205 50.3266 83.5585 46.4843 82.0747 42.8995C80.591 39.3147 78.4146 36.0577 75.6703 33.3152C72.9261 30.5727 69.6677 28.3984 66.082 26.9169C62.4962 25.4354 58.6534 24.6758 54.7736 24.6816V24.5813C51.6009 24.5901 48.458 23.9695 45.5267 22.7555C42.5954 21.5415 39.934 19.7581 37.6965 17.5087C35.4471 15.2712 33.6637 12.6098 32.4497 9.6785C31.2357 6.74722 30.6151 3.60425 30.6238 0.431519L25.2488 0.431519C25.2405 4.38023 26.0288 8.29004 27.5667 11.927C29.0489 15.4386 31.1976 18.6297 33.8939 21.3238C36.5883 24.0182 39.7794 26.1648 43.2907 27.6447C46.9271 29.1853 50.837 29.9758 54.7862 29.9689V30.0691C61.19 30.0707 67.331 32.6158 71.8586 37.1446C76.3862 41.6734 78.9297 47.8151 78.9297 54.2189H79.0362C79.0329 58.0963 79.7939 61.9364 81.2756 65.5195C82.7574 69.1027 84.9308 72.3586 87.6717 75.1012C90.4126 77.8439 93.6671 80.0194 97.2493 81.5034C100.832 82.9874 104.671 83.7508 108.549 83.75V78.3687C102.145 78.3687 96.003 75.8253 91.4742 71.2976C86.9454 66.77 84.4003 60.629 84.3987 54.2252V54.2064Z" fill="#D32056"/>
<path d="M94.7602 54.2064H94.7226C94.7267 48.959 93.6962 43.7624 91.6901 38.9137C89.6839 34.065 86.7415 29.6594 83.031 25.949C79.3206 22.2385 74.915 19.2961 70.0663 17.2899C65.2176 15.2838 60.021 14.2533 54.7736 14.2574V14.2135C51.1184 14.2135 47.6129 12.7615 45.0283 10.1769C42.4436 7.59224 40.9916 4.08673 40.9916 0.431519L35.6104 0.431519C35.6068 2.95082 36.1034 5.44577 37.0712 7.77176C38.039 10.0977 39.4589 12.2085 41.2485 13.9817C43.0213 15.7719 45.1319 17.1921 47.458 18.16C49.7841 19.1278 52.2793 19.624 54.7987 19.6198V19.6574C59.3346 19.6582 63.8259 20.5526 68.0162 22.2893C72.2064 24.0261 76.0135 26.5713 79.22 29.7795C82.4265 32.9878 84.9696 36.7963 86.7041 40.9875C88.4386 45.1786 89.3305 49.6705 89.3289 54.2064H89.3664C89.3664 56.7235 89.8623 59.2159 90.8258 61.5413C91.7892 63.8667 93.2013 65.9795 94.9814 67.759C96.7616 69.5386 98.8749 70.95 101.201 71.9127C103.526 72.8754 106.019 73.3704 108.536 73.3696V67.9946C106.726 67.9938 104.934 67.6365 103.262 66.9432C101.59 66.2498 100.072 65.2339 98.7924 63.9536C97.5132 62.6732 96.4988 61.1534 95.8069 59.481C95.1151 57.8086 94.7594 56.0163 94.7602 54.2064Z" fill="#D32056"/>
<path d="M54.7737 45.2168C52.9957 45.2168 51.2576 45.744 49.7793 46.7318C48.301 47.7196 47.1488 49.1236 46.4684 50.7662C45.788 52.4089 45.6099 54.2164 45.9568 55.9602C46.3037 57.704 47.1598 59.3058 48.4171 60.563C49.6743 61.8202 51.2761 62.6764 53.0199 63.0233C54.7637 63.3702 56.5712 63.1921 58.2138 62.5117C59.8565 61.8313 61.2605 60.6791 62.2483 59.2008C63.2361 57.7224 63.7633 55.9844 63.7633 54.2064C63.7641 53.0256 63.5321 51.8563 63.0807 50.7653C62.6292 49.6742 61.9671 48.6829 61.1321 47.848C60.2972 47.013 59.3059 46.3509 58.2148 45.8994C57.1238 45.4479 55.9544 45.216 54.7737 45.2168Z" fill="#D32056"/>
</svg>
