<svg width="307" height="307" viewBox="0 0 307 307" fill="none" xmlns="http://www.w3.org/2000/svg">
<path d="M306 148.852C293.753 148.85 282.009 143.99 273.349 135.339C264.69 126.688 259.824 114.956 259.822 102.722H259.617C259.623 95.3141 258.166 87.9775 255.33 81.1321C252.495 74.2867 248.336 68.0669 243.093 62.8285C237.849 57.5901 231.622 53.4358 224.77 50.6033C217.918 47.7707 210.573 46.3156 203.157 46.3209V46.1298C197.091 46.1468 191.081 44.9612 185.477 42.6415C179.872 40.3219 174.784 36.9144 170.507 32.6164C166.207 28.3428 162.799 23.2595 160.479 17.6608C158.159 12.0621 156.974 6.05928 156.993 0L146.745 0C146.732 7.5425 148.243 15.0101 151.186 21.9559C154.018 28.6571 158.127 34.7443 163.286 39.8782C168.425 45.0311 174.518 49.1363 181.226 51.9652C188.18 54.905 195.655 56.4138 203.205 56.4014V56.5925C215.449 56.5979 227.19 61.4602 235.847 70.1104C244.504 78.7607 249.367 90.4909 249.369 102.722H249.561C249.555 110.131 251.012 117.467 253.847 124.313C256.683 131.158 260.841 137.378 266.085 142.616C271.329 147.855 277.555 152.009 284.408 154.841C291.26 157.674 298.605 159.129 306.02 159.124L306 148.852Z" fill="#D32056"/>
<path d="M306 139.331V129.06C299.01 129.053 292.308 126.275 287.365 121.338C282.422 116.4 279.642 109.705 279.635 102.722H279.56C279.58 92.5209 277.538 82.4206 273.555 73.027C272.821 71.3071 272.033 69.6168 271.191 67.956C272.844 68.8092 274.539 69.594 276.267 70.3243C285.673 74.3012 295.786 76.3416 306 76.3234V66.086C297.162 66.1034 288.411 64.3392 280.271 60.899C272.414 57.5843 265.277 52.777 259.255 46.7441C253.216 40.7286 248.404 33.5988 245.086 25.7505C241.636 17.6042 239.869 8.84534 239.893 0L229.611 0C229.593 10.2034 231.635 20.3057 235.616 29.7022C236.347 31.4289 237.133 33.1147 237.987 34.78C236.327 33.9268 234.633 33.142 232.911 32.4117C223.503 28.4312 213.388 26.3906 203.171 26.4126V26.3375C196.181 26.3303 189.479 23.5531 184.536 18.6154C179.594 13.6778 176.814 6.98292 176.806 0L166.524 0C166.511 4.80956 167.453 9.57398 169.295 14.0175C171.137 18.461 173.844 22.4954 177.257 25.887C180.652 29.2971 184.691 32.0006 189.139 33.841C193.587 35.6814 198.357 36.6223 203.171 36.609V36.6841C211.855 36.676 220.455 38.3787 228.479 41.6945C236.503 45.0104 243.793 49.8744 249.934 56.0082C256.074 62.1421 260.943 69.4253 264.262 77.4411C267.582 85.4568 269.286 94.0478 269.278 102.722H269.353C269.353 112.432 273.214 121.743 280.087 128.609C286.959 135.474 296.281 139.331 306 139.331Z" fill="#D32056"/>
<path d="M306 119.894V85.5439C303.742 85.5439 301.506 85.9883 299.42 86.8517C297.334 87.7151 295.439 88.9805 293.843 90.5758C292.246 92.171 290.98 94.0648 290.117 96.149C289.254 98.2331 288.81 100.467 288.811 102.722C288.81 104.978 289.254 107.211 290.117 109.295C290.981 111.378 292.247 113.272 293.843 114.867C295.44 116.461 297.335 117.726 299.421 118.589C301.507 119.451 303.742 119.895 306 119.894Z" fill="#D32056"/>
<path d="M288.852 205.431C289.148 209.773 291.083 213.841 294.266 216.812C297.45 219.783 301.643 221.435 306 221.436V188.266C301.643 188.268 297.449 189.923 294.266 192.895C291.083 195.867 289.148 199.935 288.852 204.278H288.811C288.811 204.469 288.811 204.667 288.811 204.858C288.811 205.049 288.811 205.247 288.811 205.445L288.852 205.431Z" fill="#D32056"/>
<path d="M249.54 0C249.527 7.5425 251.038 15.0101 253.981 21.9559C256.813 28.6572 260.922 34.7443 266.08 39.8782C271.22 45.0311 277.313 49.1363 284.021 51.9652C290.974 54.9055 298.45 56.4144 306 56.4014V46.164C299.934 46.181 293.924 44.9953 288.319 42.6757C282.715 40.356 277.627 36.9485 273.35 32.6506C269.043 28.374 265.63 23.2857 263.308 17.6807C260.985 12.0758 259.801 6.06597 259.822 0L249.54 0Z" fill="#D32056"/>
<path d="M306 26.3375C299.01 26.3303 292.308 23.5531 287.365 18.6154C282.422 13.6778 279.642 6.98292 279.635 0L269.353 0C269.343 4.81147 270.289 9.57704 272.136 14.0207C273.984 18.4643 276.695 22.4976 280.113 25.887C283.509 29.2971 287.547 32.0006 291.995 33.841C296.443 35.6814 301.213 36.6223 306.027 36.609L306 26.3375Z" fill="#D32056"/>
<path d="M306 17.1784V0H288.811C288.81 2.25558 289.254 4.48923 290.117 6.57337C290.98 8.65751 292.246 10.5513 293.843 12.1466C295.439 13.7418 297.334 15.0073 299.42 15.8706C301.506 16.734 303.742 17.1784 306 17.1784Z" fill="#D32056"/>
<path d="M203.171 85.5439C200.913 85.5439 198.677 85.9883 196.591 86.8517C194.505 87.7151 192.61 88.9805 191.014 90.5758C189.418 92.171 188.152 94.0648 187.288 96.149C186.425 98.2331 185.981 100.467 185.982 102.722H203.171V119.894C205.429 119.895 207.665 119.451 209.751 118.589C211.838 117.726 213.733 116.462 215.33 114.867C216.927 113.272 218.194 111.379 219.058 109.295C219.922 107.211 220.367 104.978 220.367 102.722C220.367 100.466 219.923 98.2326 219.058 96.1485C218.194 94.0643 216.927 92.1706 215.331 90.5754C213.734 88.9802 211.838 87.7149 209.752 86.8516C207.665 85.9883 205.429 85.5439 203.171 85.5439Z" fill="#D32056"/>
<path d="M220.367 0H185.982C185.981 2.25558 186.425 4.48923 187.288 6.57337C188.152 8.65751 189.418 10.5513 191.014 12.1466C192.61 13.7418 194.505 15.0073 196.591 15.8706C198.677 16.734 200.913 17.1784 203.171 17.1784C207.732 17.1784 212.106 15.3685 215.331 12.147C218.556 8.92539 220.367 4.556 220.367 0V0Z" fill="#D32056"/>
<path d="M176.731 102.722C176.751 92.5209 174.709 82.4206 170.726 73.027C170.002 71.3071 169.209 69.6145 168.362 67.956C170.015 68.8092 171.71 69.594 173.438 70.3243C182.844 74.3012 192.957 76.3416 203.171 76.3234V76.3985C210.162 76.4003 216.867 79.1732 221.814 84.1085C226.761 89.0438 229.546 95.7383 229.556 102.722H229.632C229.61 112.917 231.645 123.012 235.616 132.404C236.347 134.131 237.133 135.817 237.987 137.475C236.329 136.629 234.637 135.842 232.911 135.114C223.503 131.133 213.388 129.093 203.171 129.114V139.352C211.858 139.344 220.461 141.048 228.488 144.366C236.515 147.685 243.807 152.552 249.948 158.69C256.089 164.829 260.957 172.117 264.274 180.137C267.591 188.158 269.291 196.753 269.278 205.431H269.38C269.666 214.942 273.65 223.968 280.487 230.593C287.323 237.219 296.475 240.923 306 240.921V230.615C299.01 230.608 292.308 227.831 287.365 222.893C282.422 217.955 279.642 211.261 279.635 204.278H279.546C279.422 194.465 277.387 184.771 273.555 175.736C272.821 174.016 272.033 172.325 271.191 170.665C272.844 171.518 274.538 172.303 276.267 173.033C285.673 177.01 295.786 179.05 306 179.032V168.795C297.316 168.803 288.717 167.1 280.692 163.784C272.668 160.468 265.378 155.604 259.237 149.471C253.097 143.337 248.228 136.054 244.909 128.038C241.59 120.022 239.885 111.431 239.893 102.756H239.804C239.804 93.0471 235.943 83.7355 229.071 76.87C222.198 70.0044 212.877 66.1474 203.157 66.1474V66.0724C194.319 66.089 185.568 64.3248 177.428 60.8854C169.583 57.5559 162.46 52.7371 156.454 46.6963C150.414 40.6808 145.602 33.551 142.284 25.7028C138.831 17.5732 137.056 8.83113 137.064 0L126.782 0C126.764 10.2034 128.806 20.3057 132.787 29.7022C133.518 31.4289 134.304 33.1147 135.158 34.78C133.498 33.9268 131.804 33.142 130.082 32.4117C121.445 28.7567 112.204 26.7364 102.829 26.4535V26.3375C95.8388 26.3303 89.137 23.5531 84.1942 18.6154C79.2514 13.6778 76.4714 6.98292 76.4641 0L66.2161 0C66.2028 4.80956 67.1446 9.57398 68.987 14.0175C70.8293 18.461 73.5356 22.4954 76.9492 25.887C83.2012 32.1635 91.5315 35.9445 100.376 36.5203V36.6841C109.06 36.676 117.66 38.3787 125.684 41.6945C133.708 45.0104 140.999 49.8744 147.139 56.0082C153.279 62.1421 158.148 69.4253 161.467 77.4411C164.787 85.4568 166.491 94.0478 166.483 102.722H176.731Z" fill="#D32056"/>
<path d="M146.52 102.722H156.768C156.783 88.19 151.176 74.2141 141.118 63.7149C131.059 53.2157 117.329 47.0056 102.795 46.3824V46.1298C96.7283 46.1468 90.7186 44.9612 85.1141 42.6415C79.5095 40.3219 74.4214 36.9144 70.1445 32.6164C65.8482 28.3411 62.4435 23.257 60.1274 17.6584C57.8113 12.0598 56.6297 6.05784 56.6512 0L46.4032 0C46.3902 7.5425 47.9006 15.0101 50.844 21.9559C53.6757 28.6555 57.7826 34.7422 62.9367 39.8782C68.0796 45.0298 74.175 49.1348 80.8844 51.9652C87.0662 54.5803 93.6688 56.0622 100.376 56.34V56.5925C112.623 56.5943 124.367 61.455 133.027 70.1056C141.686 78.7562 146.552 90.4885 146.554 102.722H146.52Z" fill="#D32056"/>
<path d="M101.585 17.1238C101.995 17.1579 102.412 17.1784 102.829 17.1784V16.9941C106.91 16.3916 110.638 14.3438 113.333 11.2241C116.028 8.10445 117.511 4.12087 117.511 0L85.6053 0C85.6062 4.12492 87.0929 8.1118 89.7936 11.2321C92.4944 14.3523 96.2289 16.3976 100.315 16.9941V17.1784C100.759 17.1784 101.176 17.1579 101.585 17.1238Z" fill="#D32056"/>
<path d="M34.8434 34.8073C33.1832 33.9541 31.4888 33.1693 29.7603 32.439C20.3488 28.4452 10.2255 26.3952 0 26.4126L0 36.65C8.83842 36.6326 17.5895 38.3968 25.7294 41.837C33.5886 45.1618 40.7261 49.9809 46.7448 56.026C52.784 62.0415 57.5963 69.1713 60.9144 77.0196C64.3581 85.1511 66.1242 93.8931 66.1068 102.722H76.3548C76.3777 92.5227 74.3422 82.4231 70.37 73.027C69.6389 71.3071 68.8532 69.6145 67.9992 67.956C69.6868 68.7955 71.3674 69.6145 73.1028 70.297C81.7396 73.9512 90.9805 75.9715 100.356 76.2552V76.3712C107.346 76.3784 114.048 79.1556 118.991 84.0933C123.933 89.0309 126.713 95.7258 126.721 102.709H136.969C136.971 93.4292 133.444 84.4955 127.102 77.7153C120.76 70.9351 112.076 66.8149 102.808 66.1884V66.0246C93.97 66.042 85.219 64.2778 77.079 60.8376C69.2311 57.5246 62.1011 52.7221 56.0842 46.6963C50.045 40.6808 45.2327 33.551 41.9145 25.7028C38.4708 17.5713 36.7048 8.82926 36.7222 0L26.4741 0C26.4531 10.2037 28.4958 20.3065 32.4795 29.7022C33.1764 31.4289 33.962 33.1215 34.8434 34.8073Z" fill="#D32056"/>
<path d="M0 46.3209V56.5584C6.06652 56.5414 12.0761 57.7271 17.6807 60.0467C23.2852 62.3663 28.3734 65.7738 32.6503 70.0718C36.9527 74.3443 40.3638 79.4271 42.6858 85.0259C45.0078 90.6246 46.1947 96.628 46.1777 102.688H56.4258C56.4387 95.1457 54.9283 87.6781 51.9849 80.7323C49.1579 74.0449 45.0606 67.9679 39.9196 62.8373C34.7783 57.6886 28.6852 53.586 21.9787 50.7572C15.0257 47.8168 7.55033 46.308 0 46.3209H0Z" fill="#D32056"/>
<path d="M0 66.1133V76.3507C6.99017 76.358 13.692 79.1351 18.6348 84.0728C23.5776 89.0105 26.3576 95.7053 26.3648 102.688H36.6129C36.6261 97.8787 35.6843 93.1142 33.842 88.6707C31.9996 84.2272 29.2933 80.1929 25.8797 76.8012C22.4858 73.4014 18.4515 70.7065 14.0097 68.8721C9.56787 67.0377 4.80641 66.1001 0 66.1133H0Z" fill="#D32056"/>
<path d="M0 85.5439V102.722H17.1962C17.1962 98.1664 15.3845 93.797 12.1596 90.5754C8.93465 87.3538 4.56072 85.5439 0 85.5439H0Z" fill="#D32056"/>
<path d="M101.585 85.5985C101.176 85.5985 100.759 85.5439 100.342 85.5439V85.7282C96.2563 86.3248 92.5218 88.37 89.821 91.4903C87.1202 94.6105 85.6336 98.5974 85.6327 102.722H117.511C117.51 98.5974 116.023 94.6105 113.323 91.4903C110.622 88.37 106.887 86.3248 102.802 85.7282V85.5439C102.412 85.5439 101.995 85.5644 101.585 85.5985Z" fill="#D32056"/>
<path d="M0 17.1784C4.56072 17.1784 8.93465 15.3685 12.1596 12.147C15.3845 8.92539 17.1962 4.556 17.1962 0L0 0V17.1784Z" fill="#D32056"/>
<path d="M306 260.713V250.407C293.753 250.406 282.009 245.545 273.349 236.894C264.69 228.244 259.824 216.511 259.822 204.278H259.617C259.327 189.522 253.253 175.469 242.7 165.14C232.147 154.811 217.959 149.031 203.185 149.043V159.315C215.43 159.315 227.174 164.173 235.835 172.821C244.496 181.469 249.364 193.198 249.369 205.431H249.588C249.865 220.192 255.931 234.254 266.481 244.592C277.031 254.931 291.221 260.719 306 260.713Z" fill="#D32056"/>
<path d="M273.555 277.291C272.821 275.571 272.033 273.881 271.191 272.22C272.844 273.066 274.536 273.856 276.267 274.588C285.673 278.565 295.786 280.606 306 280.587V270.316C297.316 270.324 288.717 268.621 280.692 265.306C272.668 261.99 265.378 257.126 259.237 250.992C253.097 244.858 248.228 237.575 244.909 229.559C241.59 221.543 239.885 212.952 239.893 204.278H239.804C239.506 194.775 235.517 185.762 228.682 179.146C221.846 172.531 212.702 168.833 203.185 168.836V179.107C210.174 179.113 216.875 181.887 221.819 186.822C226.763 191.757 229.545 198.449 229.556 205.431H229.645C229.773 215.241 231.808 224.932 235.637 233.966C236.368 235.693 237.154 237.379 238.008 239.037C236.35 238.191 234.658 237.401 232.931 236.669C223.515 232.694 213.393 230.658 203.171 230.683V240.962C211.855 240.954 220.454 242.656 228.479 245.972C236.503 249.288 243.793 254.152 249.934 260.286C256.074 266.42 260.943 273.703 264.262 281.719C267.582 289.735 269.286 298.326 269.278 307H279.56C279.582 296.794 277.539 286.689 273.555 277.291Z" fill="#D32056"/>
<path d="M203.171 260.87C209.237 260.868 215.243 262.06 220.848 264.378C226.452 266.695 231.545 270.092 235.835 274.376C240.125 278.66 243.528 283.746 245.85 289.343C248.173 294.941 249.368 300.941 249.369 307H259.617C259.623 299.592 258.166 292.255 255.331 285.41C252.495 278.564 248.336 272.345 243.093 267.106C237.849 261.868 231.622 257.714 224.77 254.881C217.918 252.048 210.573 250.593 203.157 250.599L203.171 260.87Z" fill="#D32056"/>
<path d="M203.171 270.391V280.663C210.165 280.664 216.872 283.439 221.819 288.377C226.766 293.316 229.549 300.014 229.556 307H239.804C239.804 297.291 235.943 287.979 229.071 281.114C222.198 274.248 212.877 270.391 203.157 270.391H203.171Z" fill="#D32056"/>
<path d="M203.171 289.822V307H220.367C220.367 304.744 219.922 302.51 219.058 300.426C218.194 298.342 216.927 296.448 215.331 294.853C213.734 293.258 211.838 291.992 209.752 291.129C207.665 290.266 205.429 289.822 203.171 289.822Z" fill="#D32056"/>
<path d="M306 289.822C303.742 289.822 301.506 290.266 299.42 291.129C297.334 291.993 295.439 293.258 293.843 294.853C292.246 296.449 290.98 298.342 290.117 300.427C289.254 302.511 288.81 304.744 288.811 307H306V289.822Z" fill="#D32056"/>
<path d="M220.319 204.278C220.023 199.935 218.088 195.867 214.905 192.895C211.722 189.923 207.528 188.268 203.171 188.266V221.449C207.53 221.449 211.725 219.794 214.909 216.82C218.093 213.846 220.027 209.775 220.319 205.431H220.367C220.367 205.233 220.367 205.042 220.367 204.844C220.367 204.646 220.367 204.455 220.367 204.264L220.319 204.278Z" fill="#D32056"/>
</svg>
