<svg width="229" height="229" viewBox="0 0 229 229" fill="none" xmlns="http://www.w3.org/2000/svg">
<path d="M227.989 110.587C218.891 110.585 210.165 106.974 203.732 100.547C197.298 94.1206 193.684 85.4044 193.682 76.3155H193.53C193.534 70.8117 192.452 65.3611 190.345 60.2755C188.239 55.1898 185.149 50.569 181.253 46.6772C177.357 42.7854 172.732 39.6991 167.641 37.5947C162.55 35.4903 157.094 34.4092 151.584 34.4132V34.2712C147.077 34.2839 142.612 33.403 138.449 31.6797C134.285 29.9563 130.505 27.4248 127.327 24.2317C124.133 21.0567 121.6 17.2802 119.877 13.1207C118.154 8.96127 117.274 4.50162 117.287 0L109.674 0C109.664 5.60355 110.786 11.1514 112.973 16.3117C115.077 21.2902 118.13 25.8126 121.962 29.6267C125.78 33.4549 130.307 36.5048 135.291 38.6065C140.457 40.7905 146.01 41.9115 151.62 41.9023V42.0443C160.716 42.0483 169.439 45.6606 175.87 52.0871C182.301 58.5137 185.915 67.2284 185.916 76.3155H186.058C186.054 81.8193 187.137 87.2699 189.243 92.3555C191.35 97.4412 194.439 102.062 198.335 105.954C202.231 109.846 206.857 112.932 211.948 115.036C217.038 117.141 222.495 118.222 228.004 118.218L227.989 110.587Z" fill="#D32056"/>
<path d="M227.989 103.513V95.8824C222.796 95.877 217.817 93.8138 214.145 90.1455C210.473 86.4771 208.407 81.5033 208.402 76.3155H208.346C208.361 68.7366 206.843 61.2327 203.885 54.2539C203.34 52.9762 202.754 51.7204 202.128 50.4866C203.357 51.1204 204.615 51.7035 205.9 52.246C212.888 55.2006 220.401 56.7165 227.989 56.703V49.0973C221.423 49.1102 214.921 47.7995 208.874 45.2437C203.037 42.7811 197.735 39.2096 193.261 34.7276C188.774 30.2585 185.199 24.9615 182.734 19.1308C180.171 13.0787 178.859 6.57146 178.876 0L171.237 0C171.224 7.58043 172.741 15.0857 175.699 22.0666C176.242 23.3495 176.826 24.6019 177.46 25.8391C176.227 25.2053 174.968 24.6222 173.689 24.0796C166.7 21.1224 159.185 19.6064 151.594 19.6227V19.5669C146.401 19.5615 141.422 17.4983 137.75 13.83C134.078 10.1616 132.013 5.18782 132.007 0L124.368 0C124.358 3.57316 125.058 7.11279 126.427 10.414C127.796 13.7152 129.806 16.7125 132.342 19.2323C134.865 21.7657 137.865 23.7742 141.17 25.1415C144.474 26.5088 148.018 27.2078 151.594 27.198V27.2537C158.046 27.2477 164.435 28.5126 170.396 30.9761C176.357 33.4396 181.774 37.0532 186.336 41.6102C190.897 46.1672 194.515 51.5781 196.981 57.5333C199.447 63.4884 200.713 69.8709 200.707 76.3155H200.763C200.763 83.5288 203.631 90.4467 208.737 95.5474C213.843 100.648 220.768 103.513 227.989 103.513Z" fill="#D32056"/>
<path d="M227.989 89.0728V63.5532C226.312 63.5532 224.651 63.8833 223.101 64.5247C221.551 65.1662 220.143 66.1063 218.957 67.2915C217.771 68.4766 216.831 69.8836 216.189 71.432C215.548 72.9803 215.218 74.6398 215.219 76.3155C215.218 77.991 215.548 79.6502 216.189 81.1983C216.831 82.7464 217.772 84.153 218.958 85.3377C220.144 86.5225 221.552 87.4622 223.101 88.103C224.651 88.7439 226.312 89.0734 227.989 89.0728Z" fill="#D32056"/>
<path d="M215.249 152.621C215.469 155.847 216.907 158.868 219.272 161.076C221.637 163.283 224.753 164.511 227.989 164.511V139.869C224.752 139.87 221.636 141.099 219.272 143.307C216.907 145.515 215.469 148.538 215.249 151.764H215.219C215.219 151.906 215.219 152.053 215.219 152.195C215.219 152.337 215.219 152.484 215.219 152.631L215.249 152.621Z" fill="#D32056"/>
<path d="M186.043 0C186.034 5.60354 187.156 11.1514 189.342 16.3116C191.446 21.2902 194.499 25.8125 198.332 29.6267C202.15 33.4549 206.677 36.5048 211.66 38.6064C216.826 40.7909 222.38 41.9119 227.989 41.9022V34.2966C223.482 34.3092 219.017 33.4283 214.853 31.705C210.69 29.9817 206.91 27.4501 203.732 24.2571C200.533 21.0799 197.997 17.2996 196.272 13.1355C194.546 8.97147 193.666 4.50658 193.682 0L186.043 0Z" fill="#D32056"/>
<path d="M227.989 19.5669C222.796 19.5615 217.817 17.4983 214.145 13.8299C210.473 10.1616 208.408 5.18781 208.402 0L200.763 0C200.756 3.57458 201.459 7.11506 202.831 10.4164C204.203 13.7176 206.218 16.7141 208.757 19.2322C211.28 21.7657 214.28 23.7742 217.585 25.1415C220.89 26.5088 224.433 27.2077 228.01 27.1979L227.989 19.5669Z" fill="#D32056"/>
<path d="M227.989 12.7623V0H215.219C215.218 1.67573 215.548 3.33518 216.189 4.88355C216.831 6.43192 217.771 7.83887 218.957 9.02402C220.143 10.2092 221.551 11.1493 223.101 11.7908C224.651 12.4322 226.312 12.7623 227.989 12.7623Z" fill="#D32056"/>
<path d="M151.594 63.5532C149.917 63.5532 148.256 63.8833 146.706 64.5247C145.156 65.1662 143.748 66.1063 142.562 67.2915C141.376 68.4766 140.436 69.8836 139.794 71.432C139.153 72.9803 138.823 74.6398 138.824 76.3155H151.594V89.0728C153.272 89.0734 154.933 88.7439 156.483 88.1031C158.033 87.4623 159.441 86.5227 160.628 85.338C161.814 84.1534 162.755 82.7468 163.397 81.1987C164.039 79.6506 164.37 77.9912 164.37 76.3155C164.37 74.6395 164.039 72.98 163.397 71.4316C162.755 69.8832 161.814 68.4763 160.628 67.2912C159.442 66.1061 158.033 65.166 156.483 64.5246C154.933 63.8833 153.272 63.5532 151.594 63.5532Z" fill="#D32056"/>
<path d="M164.37 0H138.824C138.823 1.67573 139.153 3.33518 139.794 4.88355C140.436 6.43192 141.376 7.83887 142.562 9.02402C143.748 10.2092 145.156 11.1493 146.706 11.7908C148.256 12.4322 149.917 12.7623 151.594 12.7623C154.983 12.7623 158.232 11.4177 160.628 9.02433C163.024 6.63093 164.37 3.38478 164.37 0V0Z" fill="#D32056"/>
<path d="M131.951 76.3155C131.966 68.7366 130.449 61.2327 127.49 54.2539C126.952 52.9762 126.363 51.7187 125.734 50.4866C126.962 51.1204 128.221 51.7035 129.505 52.246C136.493 55.2006 144.006 56.7165 151.594 56.703V56.7587C156.788 56.7601 161.77 58.8201 165.445 62.4867C169.12 66.1533 171.189 71.1268 171.197 76.3155H171.253C171.236 83.8898 172.749 91.3896 175.699 98.3669C176.242 99.6498 176.826 100.902 177.46 102.134C176.229 101.506 174.971 100.921 173.689 100.38C166.7 97.4227 159.185 95.9067 151.594 95.923V103.529C158.048 103.523 164.44 104.789 170.403 107.254C176.366 109.719 181.784 113.336 186.346 117.896C190.909 122.456 194.525 127.871 196.99 133.829C199.454 139.788 200.717 146.174 200.707 152.621H200.783C200.996 159.687 203.955 166.392 209.034 171.315C214.114 176.237 220.912 178.989 227.989 178.987V171.331C222.796 171.325 217.817 169.262 214.145 165.594C210.473 161.926 208.407 156.952 208.402 151.764H208.336C208.243 144.474 206.732 137.272 203.884 130.559C203.34 129.282 202.754 128.026 202.128 126.792C203.357 127.426 204.615 128.009 205.899 128.551C212.888 131.506 220.401 133.022 227.989 133.008V125.403C221.538 125.409 215.149 124.144 209.187 121.68C203.226 119.217 197.809 115.603 193.248 111.046C188.686 106.489 185.069 101.078 182.603 95.1231C180.137 89.1679 178.87 82.7854 178.876 76.3409H178.81C178.81 69.1275 175.942 62.2096 170.836 57.109C165.73 52.0084 158.805 49.1429 151.584 49.1429V49.0871C145.018 49.0995 138.517 47.7888 132.469 45.2336C126.641 42.76 121.349 39.18 116.887 34.6921C112.4 30.223 108.825 24.926 106.359 19.0954C103.794 13.0557 102.475 6.56091 102.482 0L94.8427 0C94.8292 7.58043 96.3466 15.0857 99.3042 22.0666C99.8474 23.3495 100.431 24.6019 101.066 25.8391C99.8321 25.2053 98.5733 24.6222 97.2943 24.0796C90.8779 21.3642 84.0124 19.8633 77.0472 19.6531V19.5669C71.854 19.5615 66.875 17.4983 63.2029 13.83C59.5307 10.1616 57.4654 5.18782 57.46 0L49.8464 0C49.8366 3.57316 50.5363 7.11279 51.905 10.414C53.2737 13.7152 55.2843 16.7125 57.8204 19.2323C62.4651 23.8952 68.654 26.7043 75.225 27.132V27.2537C81.6763 27.2477 88.0654 28.5126 94.0267 30.9761C99.9881 33.4396 105.405 37.0532 109.966 41.6102C114.528 46.1672 118.145 51.5781 120.611 57.5333C123.077 63.4884 124.344 69.8709 124.338 76.3155H131.951Z" fill="#D32056"/>
<path d="M109.506 76.3155H117.12C117.131 65.519 112.965 55.1358 105.493 47.3357C98.0204 39.5355 87.8195 34.9219 77.0218 34.4588V34.2712C72.5148 34.2839 68.0501 33.403 63.8863 31.6797C59.7225 29.9563 55.9424 27.4248 52.7649 24.2317C49.5731 21.0555 47.0436 17.2783 45.3229 13.1189C43.6022 8.95957 42.7244 4.50055 42.7404 0L35.1268 0C35.1171 5.60355 36.2393 11.1514 38.426 16.3117C40.5298 21.289 43.5809 25.811 47.41 29.6267C51.2309 33.454 55.7593 36.5037 60.7439 38.6065C65.3366 40.5493 70.2418 41.6502 75.225 41.8566V42.0442C84.3233 42.0456 93.0486 45.6567 99.4821 52.0835C105.916 58.5104 109.53 67.2266 109.532 76.3155H109.506Z" fill="#D32056"/>
<path d="M76.1236 12.7218C76.4281 12.7471 76.7377 12.7623 77.0473 12.7623V12.6254C80.0791 12.1778 82.8488 10.6564 84.8511 8.33872C86.8535 6.02103 87.9551 3.06151 87.955 0L64.2515 0C64.2521 3.06452 65.3566 6.02649 67.3631 8.34462C69.3695 10.6628 72.144 12.1822 75.1795 12.6254V12.7623C75.5094 12.7623 75.819 12.7471 76.1236 12.7218Z" fill="#D32056"/>
<path d="M26.5388 25.8593C25.3054 25.2255 24.0466 24.6424 22.7624 24.0999C15.7703 21.1328 8.24942 19.6098 0.652588 19.6227L0.652588 27.2284C7.21891 27.2155 13.7203 28.5261 19.7678 31.0819C25.6066 33.5521 30.9092 37.1323 35.3807 41.6234C39.8674 46.0925 43.4426 51.3894 45.9077 57.2201C48.4662 63.2613 49.7782 69.756 49.7653 76.3155H57.3789C57.3958 68.7379 55.8836 61.2346 52.9325 54.2539C52.3894 52.9762 51.8057 51.7187 51.1712 50.4866C52.4249 51.1102 53.6736 51.7187 54.9628 52.2257C61.3793 54.9406 68.2447 56.4415 75.2099 56.6522V56.7384C80.4031 56.7438 85.382 58.807 89.0542 62.4754C92.7263 66.1437 94.7917 71.1175 94.7971 76.3053H102.411C102.412 69.4113 99.7921 62.7742 95.0804 57.737C90.3688 52.6998 83.9174 49.6387 77.032 49.1733V49.0516C70.4657 49.0645 63.9643 47.7539 57.9169 45.1981C52.0864 42.7368 46.7893 39.1688 42.3192 34.6921C37.8325 30.223 34.2573 24.926 31.7921 19.0954C29.2337 13.0542 27.9217 6.55952 27.9346 0L20.321 0C20.3054 7.58064 21.8229 15.0863 24.7826 22.0666C25.3003 23.3495 25.884 24.6069 26.5388 25.8593Z" fill="#D32056"/>
<path d="M0.652588 34.4132V42.0189C5.15958 42.0063 9.62429 42.8871 13.7881 44.6105C17.9519 46.3338 21.732 48.8653 24.9094 52.0584C28.1058 55.2325 30.64 59.0087 32.3651 63.1682C34.0902 67.3277 34.972 71.7878 34.9594 76.2901H42.5729C42.5826 70.6866 41.4604 65.1387 39.2737 59.9784C37.1734 55.0101 34.1294 50.4953 30.31 46.6837C26.4904 42.8586 21.9637 39.8106 16.9812 37.709C11.8156 35.5245 6.26194 34.4036 0.652588 34.4132H0.652588Z" fill="#D32056"/>
<path d="M0.652588 49.1175V56.7232C5.84578 56.7286 10.8247 58.7918 14.4969 62.4602C18.169 66.1285 20.2344 71.1023 20.2398 76.2901H27.8533C27.8632 72.7169 27.1635 69.1773 25.7948 65.8761C24.426 62.5749 22.4155 59.5776 19.8794 57.0579C17.3579 54.5321 14.3607 52.53 11.0608 51.1672C7.76083 49.8043 4.22341 49.1077 0.652588 49.1175H0.652588Z" fill="#D32056"/>
<path d="M0.652588 63.5532V76.3155H13.4282C13.4282 72.9307 12.0822 69.6846 9.68628 67.2912C7.2904 64.8978 4.04088 63.5532 0.652588 63.5532H0.652588Z" fill="#D32056"/>
<path d="M76.1235 63.5937C75.819 63.5937 75.5094 63.5532 75.1997 63.5532V63.6901C72.1643 64.1332 69.3898 65.6527 67.3833 67.9709C65.3769 70.289 64.2724 73.251 64.2717 76.3155H87.955C87.9544 73.251 86.8499 70.289 84.8434 67.9709C82.8369 65.6527 80.0625 64.1332 77.027 63.6901V63.5532C76.7377 63.5532 76.4281 63.5684 76.1235 63.5937Z" fill="#D32056"/>
<path d="M0.652588 12.7623C4.04088 12.7623 7.2904 11.4177 9.68628 9.02433C12.0822 6.63093 13.4282 3.38478 13.4282 0L0.652588 0V12.7623Z" fill="#D32056"/>
<path d="M227.989 193.692V186.035C218.891 186.034 210.165 182.423 203.732 175.996C197.298 169.569 193.684 160.853 193.682 151.764H193.53C193.315 140.801 188.802 130.361 180.962 122.687C173.122 115.014 162.58 110.72 151.604 110.729V118.36C160.702 118.36 169.427 121.969 175.861 128.394C182.296 134.818 185.912 143.533 185.916 152.621H186.079C186.285 163.587 190.792 174.034 198.629 181.715C206.467 189.395 217.01 193.696 227.989 193.692Z" fill="#D32056"/>
<path d="M203.884 206.008C203.34 204.73 202.754 203.474 202.128 202.24C203.356 202.869 204.614 203.456 205.899 204C212.888 206.954 220.401 208.47 227.989 208.457V200.826C221.538 200.832 215.149 199.567 209.187 197.103C203.226 194.64 197.809 191.026 193.248 186.469C188.686 181.912 185.069 176.501 182.602 170.546C180.136 164.591 178.87 158.209 178.876 151.764H178.81C178.589 144.704 175.625 138.008 170.547 133.093C165.469 128.178 158.675 125.431 151.604 125.433V133.064C156.797 133.068 161.775 135.129 165.448 138.796C169.121 142.462 171.189 147.434 171.197 152.621H171.263C171.357 159.909 172.869 167.109 175.714 173.821C176.257 175.103 176.841 176.356 177.475 177.588C176.244 176.959 174.987 176.373 173.704 175.828C166.709 172.875 159.189 171.363 151.594 171.382V179.018C158.045 179.012 164.435 180.277 170.396 182.74C176.357 185.204 181.774 188.817 186.336 193.374C190.897 197.931 194.515 203.342 196.981 209.297C199.447 215.252 200.713 221.635 200.707 228.08H208.346C208.362 220.497 206.845 212.99 203.884 206.008Z" fill="#D32056"/>
<path d="M151.594 193.808C156.1 193.807 160.563 194.692 164.727 196.414C168.89 198.136 172.674 200.66 175.861 203.842C179.048 207.025 181.577 210.803 183.302 214.962C185.027 219.12 185.915 223.578 185.916 228.079H193.53C193.534 222.576 192.451 217.125 190.345 212.039C188.238 206.954 185.149 202.333 181.253 198.441C177.357 194.549 172.732 191.463 167.641 189.359C162.55 187.254 157.094 186.173 151.584 186.177L151.594 193.808Z" fill="#D32056"/>
<path d="M151.594 200.882V208.513C156.79 208.514 161.773 210.575 165.448 214.244C169.124 217.913 171.191 222.889 171.197 228.08H178.81C178.81 220.866 175.942 213.948 170.836 208.848C165.73 203.747 158.805 200.882 151.584 200.882H151.594Z" fill="#D32056"/>
<path d="M151.594 215.317V228.079H164.37C164.37 226.403 164.039 224.744 163.397 223.195C162.755 221.647 161.814 220.24 160.628 219.055C159.442 217.87 158.033 216.93 156.483 216.288C154.933 215.647 153.272 215.317 151.594 215.317Z" fill="#D32056"/>
<path d="M227.989 215.317C226.312 215.317 224.651 215.647 223.101 216.289C221.551 216.93 220.143 217.87 218.957 219.055C217.771 220.24 216.831 221.647 216.189 223.196C215.548 224.744 215.218 226.404 215.219 228.079H227.989V215.317Z" fill="#D32056"/>
<path d="M164.334 151.764C164.114 148.538 162.677 145.515 160.312 143.307C157.947 141.099 154.831 139.87 151.594 139.869V164.521C154.832 164.521 157.95 163.292 160.315 161.082C162.68 158.873 164.117 155.848 164.334 152.621H164.37C164.37 152.474 164.37 152.332 164.37 152.185C164.37 152.038 164.37 151.896 164.37 151.754L164.334 151.764Z" fill="#D32056"/>
</svg>
