<svg width="17" height="17" viewBox="0 0 17 17" fill="none" xmlns="http://www.w3.org/2000/svg">
<path d="M7.93724 7.07236C7.75395 7.08556 7.57869 7.15279 7.4336 7.26557C7.28851 7.37835 7.18012 7.5316 7.12211 7.70597C7.0641 7.88034 7.05908 8.06799 7.10769 8.2452C7.1563 8.42242 7.25635 8.58125 7.3952 8.70162C7.53405 8.82199 7.70547 8.8985 7.88779 8.92147C8.07012 8.94445 8.25515 8.91286 8.41953 8.8307C8.5839 8.74854 8.72023 8.61949 8.81128 8.45987C8.90233 8.30026 8.94403 8.11723 8.93109 7.93392C8.91113 7.68882 8.79587 7.46131 8.61006 7.30023C8.42425 7.13915 8.18269 7.05734 7.93724 7.07236Z" fill="#5E1331"/>
<path d="M8.0017 0C6.41897 1.42207e-07 4.87179 0.469377 3.55584 1.34877C2.2399 2.22815 1.2143 3.47805 0.608772 4.94036C0.00324213 6.40268 -0.15502 8.01173 0.154002 9.564C0.463024 11.1163 1.22545 12.542 2.34485 13.661C3.46424 14.7799 4.89033 15.5417 6.44273 15.8501C7.99513 16.1584 9.60411 15.9995 11.0662 15.3933C12.5282 14.7872 13.7777 13.7611 14.6565 12.4447C15.5353 11.1284 16.0041 9.58104 16.0034 7.9983C15.9971 5.87836 15.152 3.84709 13.6526 2.34838C12.1533 0.849662 10.1216 0.00536905 8.0017 0V0ZM7.41489 1.71635C7.41489 1.594 7.46349 1.47666 7.55 1.39015C7.63651 1.30364 7.75385 1.25504 7.87619 1.25504H8.01527C8.07629 1.25459 8.13681 1.26617 8.19336 1.28911C8.24991 1.31205 8.30139 1.3459 8.34486 1.38874C8.38832 1.43158 8.42293 1.48256 8.44669 1.53877C8.47046 1.59498 8.48292 1.65532 8.48336 1.71635V3.55141C8.48247 3.67348 8.43359 3.7903 8.34727 3.87662C8.26094 3.96295 8.14412 4.01183 8.02205 4.01272H7.88298C7.76063 4.01272 7.6433 3.96412 7.55678 3.87761C7.47027 3.79109 7.42167 3.67376 7.42167 3.55141L7.41489 1.71635ZM3.95845 8.06954C3.95756 8.19161 3.90868 8.30843 3.82236 8.39475C3.73603 8.48107 3.61921 8.52996 3.49714 8.53085H1.66208C1.54 8.52996 1.42318 8.48107 1.33686 8.39475C1.25054 8.30843 1.20165 8.19161 1.20077 8.06954V7.93046C1.19987 7.86932 1.21113 7.8086 1.23391 7.75185C1.25669 7.69509 1.29053 7.64343 1.33346 7.59988C1.37639 7.55632 1.42754 7.52173 1.48396 7.49812C1.54037 7.47452 1.60092 7.46236 1.66208 7.46237H3.49714C3.61949 7.46237 3.73682 7.51097 3.82334 7.59749C3.90985 7.684 3.95845 7.80133 3.95845 7.92368V8.06954ZM8.48336 14.2837C8.48247 14.4057 8.43359 14.5225 8.34727 14.6089C8.26094 14.6952 8.14412 14.7441 8.02205 14.745H7.88298C7.76091 14.7441 7.64409 14.6952 7.55776 14.6089C7.47144 14.5225 7.42256 14.4057 7.42167 14.2837V12.4486C7.42167 12.3262 7.47027 12.2089 7.55678 12.1224C7.6433 12.0359 7.76063 11.9873 7.88298 11.9873H8.02205C8.14412 11.9882 8.26094 12.0371 8.34727 12.1234C8.43359 12.2097 8.48247 12.3265 8.48336 12.4486V14.2837ZM11.6379 4.1077L9.79267 8.91753C9.65954 9.21705 9.43981 9.46986 9.16176 9.64342L4.64024 12.1331C4.39602 12.2688 4.27391 12.1637 4.37567 11.9025L6.21412 7.08247C6.34617 6.78227 6.56615 6.52917 6.84503 6.35658L11.3666 3.86686C11.6108 3.73119 11.7329 3.83295 11.6311 4.09752L11.6379 4.1077ZM14.2328 8.54102H12.4011C12.279 8.54014 12.1622 8.49125 12.0759 8.40493C11.9896 8.31861 11.9407 8.20179 11.9398 8.07971V7.94064C11.9375 7.87922 11.9476 7.81796 11.9693 7.76046C11.991 7.70297 12.0241 7.6504 12.0664 7.60585C12.1087 7.56129 12.1596 7.52565 12.2159 7.50101C12.2722 7.47637 12.3329 7.46323 12.3943 7.46237H14.226C14.3487 7.46237 14.4663 7.51086 14.5534 7.59728C14.6404 7.68369 14.6898 7.80102 14.6907 7.92368V8.06275C14.6907 8.18631 14.6418 8.30486 14.5548 8.39255C14.4677 8.48024 14.3496 8.52995 14.226 8.53085L14.2328 8.54102Z" fill="#5E1331"/>
</svg>
