<svg width="172" height="172" viewBox="0 0 172 172" fill="none" xmlns="http://www.w3.org/2000/svg">
<path d="M119.16 138.35C114.788 133.969 109.594 130.495 103.876 128.127C98.1583 125.759 92.029 124.543 85.84 124.55V124.38C75.6176 124.38 65.8138 120.32 58.5846 113.092C51.3553 105.865 47.2927 96.0622 47.29 85.8399H47.13C47.141 79.5359 45.8792 73.2945 43.42 67.4899C41.0577 61.8848 37.6311 56.7908 33.33 52.4899C29.0295 48.1858 23.9355 44.7559 18.33 42.3899C12.5292 39.9444 6.29516 38.6929 0 38.7099L0 47.2899C5.06458 47.2759 10.0816 48.2666 14.7608 50.2045C19.44 52.1424 23.6883 54.9891 27.26 58.5799C30.8508 62.1515 33.6975 66.3999 35.6354 71.0791C37.5733 75.7582 38.564 80.7753 38.55 85.8399H38.71C38.7021 92.0327 39.9156 98.1663 42.2809 103.89C44.6462 109.613 48.117 114.814 52.4946 119.194C56.8722 123.574 62.0707 127.049 67.7925 129.418C73.5143 131.786 79.6472 133.004 85.84 133V133.16C96.0624 133.163 105.865 137.225 113.092 144.454C120.32 151.684 124.38 161.488 124.38 171.71H133C133.007 165.519 131.79 159.387 129.42 153.667C127.05 147.947 123.574 142.752 119.19 138.38L119.16 138.35Z" fill="#D32056"/>
<path d="M85.84 141.08V141C78.593 141.007 71.4158 139.585 64.7189 136.815C58.0219 134.046 51.9365 129.984 46.8107 124.861C41.6849 119.738 37.6193 113.654 34.8463 106.959C32.0733 100.263 30.6474 93.087 30.65 85.84H30.59C30.5967 81.8183 29.8046 77.8354 28.2596 74.1223C26.7147 70.4092 24.4476 67.0399 21.59 64.21C18.7609 61.3654 15.3965 59.109 11.6909 57.5712C7.98538 56.0333 4.01199 55.2445 0 55.25L0 63.83C5.83476 63.83 11.4305 66.1479 15.5563 70.2737C19.6821 74.3995 22 79.9953 22 85.83H22.06C22.0574 94.2052 23.705 102.499 26.9088 110.237C30.1127 117.975 34.8098 125.006 40.7319 130.928C46.6541 136.85 53.6851 141.547 61.4232 144.751C69.1613 147.955 77.4549 149.603 85.83 149.6V149.66C91.6648 149.66 97.2606 151.978 101.386 156.104C105.512 160.229 107.83 165.825 107.83 171.66H116.41C116.411 167.642 115.621 163.663 114.084 159.951C112.548 156.238 110.295 152.865 107.454 150.023C104.613 147.182 101.241 144.927 97.5286 143.39C93.8166 141.852 89.838 141.06 85.82 141.06L85.84 141.08Z" fill="#D32056"/>
<path d="M132.65 124.86C127.523 119.742 123.457 113.663 120.684 106.97C117.911 100.278 116.486 93.1041 116.49 85.86H116.43C116.433 81.8412 115.643 77.8612 114.107 74.1476C112.571 70.4339 110.318 67.0593 107.477 64.2167C104.637 61.374 101.264 59.119 97.5509 57.5804C93.8383 56.0419 89.8588 55.25 85.84 55.25V55.18C78.4614 55.198 71.1553 53.7252 64.36 50.85C57.8012 48.073 51.8442 44.0485 46.82 39C41.7845 33.979 37.7704 28.0292 35 21.48C32.1182 14.686 30.6386 7.37989 30.65 0L22.07 0C22.052 8.52525 23.7526 16.9667 27.07 24.82C27.69 26.28 28.37 27.7 29.07 29.1C27.67 28.38 26.25 27.7 24.79 27.1C16.9481 23.7762 8.51721 22.0656 0 22.07L0 30.65C7.37989 30.6386 14.686 32.1182 21.48 35C28.0292 37.7704 33.979 41.7845 39 46.82C44.0485 51.8442 48.073 57.8012 50.85 64.36C53.7252 71.1553 55.198 78.4614 55.18 85.84H55.25C55.25 93.953 58.4729 101.734 64.2096 107.47C69.9463 113.207 77.727 116.43 85.84 116.43V116.49C93.0873 116.486 100.264 117.911 106.96 120.684C113.656 123.456 119.74 127.522 124.863 132.648C129.987 137.774 134.049 143.86 136.818 150.557C139.587 157.255 141.008 164.433 141 171.68H149.59C149.611 163.151 147.911 154.706 144.59 146.85C143.98 145.39 143.29 143.97 142.59 142.57C143.99 143.29 145.41 143.98 146.87 144.57C154.726 147.891 163.171 149.592 171.7 149.57V141C164.455 141.008 157.281 139.584 150.588 136.811C143.895 134.038 137.816 129.969 132.7 124.84L132.65 124.86ZM110.65 112.92C102.798 109.599 94.3556 107.898 85.83 107.92V107.86C79.9952 107.86 74.3995 105.542 70.2737 101.416C66.1479 97.2906 63.83 91.6948 63.83 85.86H63.77C63.788 77.3347 62.0874 68.8933 58.77 61.04C58.15 59.58 57.46 58.16 56.77 56.76C58.17 57.47 59.59 58.16 61.05 58.76C68.9033 62.0774 77.3447 63.778 85.87 63.76V63.82C91.7048 63.82 97.3005 66.1378 101.426 70.2636C105.552 74.3895 107.87 79.9852 107.87 85.82H107.93C107.908 94.3456 109.609 102.788 112.93 110.64C113.55 112.1 114.23 113.52 114.93 114.92C113.54 114.22 112.12 113.54 110.66 112.92H110.65Z" fill="#D32056"/>
<path d="M133.13 85.84H133C133.005 79.6468 131.789 73.5134 129.42 67.791C127.052 62.0686 123.578 56.8696 119.197 52.4917C114.816 48.1138 109.615 44.6431 103.891 42.2782C98.1674 39.9133 92.0332 38.7008 85.84 38.71V38.55C80.7754 38.564 75.7584 37.5733 71.0792 35.6354C66.4 33.6975 62.1517 30.8508 58.58 27.26C54.9893 23.6883 52.1425 19.44 50.2046 14.7608C48.2667 10.0816 47.276 5.06458 47.29 0L38.71 0C38.6966 6.30326 39.9551 12.5444 42.41 18.35C44.776 23.9555 48.2059 29.0495 52.51 33.35C56.8109 37.6511 61.9049 41.0777 67.51 43.44C73.3146 45.8992 79.556 47.161 85.86 47.15V47.31C96.0824 47.3127 105.885 51.3753 113.113 58.6046C120.34 65.8338 124.4 75.6376 124.4 85.86H124.57C124.565 92.0495 125.779 98.1793 128.145 103.899C130.51 109.619 133.979 114.816 138.355 119.194C142.73 123.572 147.925 127.045 153.643 129.414C159.362 131.783 165.491 133.001 171.68 133V124.41C161.458 124.41 151.654 120.35 144.425 113.123C137.195 105.895 133.133 96.0924 133.13 85.87V85.84Z" fill="#D32056"/>
<path d="M149.67 85.84H149.61C149.617 77.4638 147.972 69.1684 144.769 61.4285C141.567 53.6886 136.87 46.656 130.947 40.7331C125.024 34.8102 117.991 30.1132 110.252 26.9108C102.512 23.7084 94.2163 22.0634 85.84 22.07V22C80.0053 22 74.4095 19.6821 70.2837 15.5563C66.1579 11.4305 63.84 5.83476 63.84 0L55.25 0C55.2444 4.02153 56.037 8.00418 57.5819 11.7171C59.1269 15.4301 61.3933 18.7994 64.25 21.63C67.0799 24.4876 70.4492 26.7547 74.1623 28.2996C77.8754 29.8446 81.8583 30.6367 85.88 30.63V30.69C93.1206 30.6913 100.29 32.1189 106.979 34.8913C113.668 37.6637 119.745 41.7265 124.863 46.8478C129.982 51.9691 134.041 58.0485 136.81 64.7388C139.579 71.4292 141.003 78.5994 141 85.84H141.06C141.06 89.858 141.852 93.8366 143.39 97.5486C144.927 101.261 147.182 104.633 150.023 107.474C152.865 110.315 156.238 112.568 159.951 114.104C163.663 115.641 167.642 116.431 171.66 116.43V107.85C168.771 107.849 165.91 107.278 163.242 106.172C160.573 105.065 158.149 103.443 156.107 101.399C154.065 99.3555 152.445 96.9295 151.341 94.2598C150.236 91.5901 149.669 88.7291 149.67 85.84Z" fill="#D32056"/>
<path d="M85.84 71.49C83.0018 71.49 80.2274 72.3316 77.8676 73.9084C75.5077 75.4852 73.6684 77.7264 72.5823 80.3485C71.4962 82.9706 71.212 85.8559 71.7657 88.6395C72.3194 91.4232 73.6861 93.9801 75.693 95.987C77.6999 97.9939 80.2568 99.3606 83.0404 99.9143C85.8241 100.468 88.7094 100.184 91.3315 99.0977C93.9536 98.0116 96.1948 96.1723 97.7716 93.8124C99.3484 91.4526 100.19 88.6782 100.19 85.84C100.191 83.9552 99.821 82.0886 99.1003 80.3469C98.3797 78.6053 97.3227 77.0229 95.9899 75.6901C94.6571 74.3573 93.0747 73.3003 91.3331 72.5796C89.5914 71.859 87.7248 71.4887 85.84 71.49Z" fill="#D32056"/>
</svg>
