<svg width="307" height="307" viewBox="0 0 307 307" fill="none" xmlns="http://www.w3.org/2000/svg">
<path d="M148.852 0.0271468C148.85 12.2737 143.99 24.0181 135.339 32.6777C126.688 41.3374 114.956 46.2031 102.722 46.2049L102.722 46.4098C95.3141 46.4045 87.9775 47.8612 81.1321 50.6966C74.2867 53.5321 68.067 57.6907 62.8285 62.9346C57.5901 68.1784 53.4358 74.4046 50.6033 81.2571C47.7708 88.1096 46.3156 95.4539 46.321 102.87L46.1298 102.87C46.1468 108.936 44.9612 114.946 42.6415 120.55C40.3219 126.155 36.9144 131.243 32.6165 135.52C28.3428 139.82 23.2595 143.229 17.6608 145.548C12.0621 147.868 6.05928 149.053 7.78138e-06 149.034L7.6294e-06 159.282C7.5425 159.295 15.0101 157.784 21.9559 154.841C28.6572 152.009 34.7443 147.9 39.8782 142.742C45.0311 137.602 49.1363 131.509 51.9652 124.801C54.905 117.847 56.4138 110.372 56.4014 102.822L56.5925 102.822C56.5979 90.5778 61.4602 78.8369 70.1104 70.1802C78.7607 61.5236 90.4909 56.6597 102.722 56.6579L102.722 56.4666C110.131 56.472 117.467 55.0153 124.313 52.1798C131.158 49.3443 137.378 45.1857 142.616 39.9419C147.855 34.698 152.009 28.4718 154.841 21.6193C157.674 14.7668 159.129 7.42259 159.124 0.00665436L148.852 0.0271468Z" fill="#D32056"/>
<path d="M139.331 0.0270552L129.06 0.0270551C129.053 7.01723 126.275 13.719 121.338 18.6618C116.4 23.6046 109.705 26.3847 102.722 26.3919L102.722 26.467C92.5209 26.4469 82.4206 28.4896 73.027 32.4724C71.3071 33.2057 69.6168 33.9937 67.9561 34.8363C68.8092 33.1829 69.594 31.4886 70.3243 29.7601C74.3012 20.3538 76.3416 10.2411 76.3235 0.0270546L66.086 0.0270545C66.1034 8.86548 64.3392 17.6166 60.8991 25.7565C57.5843 33.6129 52.777 40.7501 46.7441 46.7718C40.7286 52.811 33.5988 57.6233 25.7506 60.9415C17.6042 64.3915 8.84535 66.1577 8.71752e-06 66.1338L8.56503e-06 76.416C10.2034 76.4342 20.3057 74.3917 29.7022 70.4107C31.4289 69.6797 33.1147 68.894 34.78 68.04C33.9268 69.7001 33.142 71.3945 32.4117 73.1162C28.4312 82.5237 26.3907 92.6394 26.4126 102.856L26.3375 102.856C26.3303 109.846 23.5531 116.548 18.6154 121.491C13.6778 126.434 6.98293 129.214 7.78189e-06 129.221L7.6294e-06 139.503C4.80956 139.516 9.57398 138.574 14.0175 136.732C18.461 134.89 22.4954 132.184 25.8871 128.77C29.2971 125.375 32.0006 121.336 33.841 116.888C35.6815 112.44 36.6223 107.671 36.609 102.856L36.6841 102.856C36.676 94.1725 38.3787 85.5726 41.6945 77.5485C45.0104 69.5244 49.8744 62.2336 56.0083 56.0934C62.1421 49.9532 69.4253 45.0842 77.4411 41.7648C85.4568 38.4455 94.0478 36.7412 102.722 36.7492L102.722 36.6741C112.432 36.6741 121.743 32.8131 128.609 25.9404C135.474 19.0678 139.331 9.74646 139.331 0.0270552Z" fill="#D32056"/>
<path d="M119.894 0.027161L85.5439 0.0271606C85.5439 2.28508 85.9883 4.52089 86.8517 6.60685C87.7151 8.69281 88.9805 10.5881 90.5758 12.1843C92.171 13.7806 94.0648 15.0466 96.149 15.91C98.2331 16.7735 100.467 17.2174 102.722 17.2166C104.978 17.2174 107.211 16.7735 109.295 15.9099C111.378 15.0464 113.272 13.7803 114.867 12.1839C116.461 10.5876 117.726 8.69224 118.589 6.60633C119.451 4.52041 119.895 2.28476 119.894 0.027161Z" fill="#D32056"/>
<path d="M205.431 17.1756C209.773 16.8795 213.841 14.9441 216.812 11.7608C219.783 8.57745 221.435 4.38362 221.436 0.027161L188.266 0.0271606C188.268 4.38425 189.923 8.57813 192.895 11.7613C195.867 14.9445 199.935 16.8796 204.278 17.1756L204.278 17.2166C204.469 17.2166 204.667 17.2166 204.858 17.2166C205.049 17.2166 205.247 17.2166 205.445 17.2166L205.431 17.1756Z" fill="#D32056"/>
<path d="M7.6294e-06 56.487C7.54251 56.4999 15.0101 54.9895 21.9559 52.0462C28.6572 49.2144 34.7443 45.1049 39.8782 39.9466C45.0311 34.8074 49.1363 28.7139 51.9652 22.0057C54.9055 15.0527 56.4144 7.57736 56.4014 0.0270391L46.164 0.027039C46.181 6.09356 44.9953 12.1032 42.6757 17.7077C40.356 23.3123 36.9485 28.4004 32.6506 32.6773C28.374 36.9839 23.2857 40.3973 17.6807 42.7194C12.0758 45.0416 6.06598 46.2263 7.78189e-06 46.2048L7.6294e-06 56.487Z" fill="#D32056"/>
<path d="M26.3375 0.0272219C26.3303 7.01738 23.5531 13.7192 18.6154 18.662C13.6778 23.6048 6.98293 26.3848 7.78189e-06 26.392L7.6294e-06 36.6742C4.81148 36.6839 9.57705 35.7378 14.0207 33.8907C18.4643 32.0436 22.4976 29.3323 25.8871 25.9138C29.2971 22.5186 32.0006 18.48 33.841 14.0319C35.6815 9.5838 36.6223 4.81445 36.609 -9.12017e-05L26.3375 0.0272219Z" fill="#D32056"/>
<path d="M17.1784 0.0271608L7.88432e-06 0.0271606L7.62939e-06 17.2166C2.25559 17.2174 4.48924 16.7735 6.57338 15.91C8.65752 15.0466 10.5513 13.7806 12.1466 12.1843C13.7418 10.5881 15.0073 8.69281 15.8707 6.60685C16.734 4.52089 17.1784 2.28508 17.1784 0.0271608Z" fill="#D32056"/>
<path d="M85.5439 102.856C85.5439 105.114 85.9883 107.35 86.8517 109.436C87.7151 111.522 88.9805 113.417 90.5758 115.013C92.171 116.609 94.0648 117.875 96.149 118.739C98.2331 119.602 100.467 120.046 102.722 120.045L102.722 102.856L119.894 102.856C119.895 100.598 119.451 98.3621 118.589 96.2758C117.726 94.1895 116.462 92.2938 114.867 90.6969C113.272 89.0999 111.379 87.8332 109.295 86.9689C107.211 86.1046 104.978 85.6598 102.722 85.6598C100.466 85.6598 98.2326 86.1046 96.1485 86.9688C94.0643 87.833 92.1706 89.0996 90.5754 90.6964C88.9802 92.2933 87.7149 94.189 86.8516 96.2753C85.9883 98.3616 85.5439 100.598 85.5439 102.856Z" fill="#D32056"/>
<path d="M8.13935e-06 85.6598L7.62939e-06 120.045C2.25559 120.046 4.48924 119.602 6.57338 118.739C8.65752 117.875 10.5513 116.609 12.1466 115.013C13.7418 113.417 15.0073 111.522 15.8707 109.436C16.734 107.35 17.1784 105.114 17.1784 102.856C17.1784 98.2953 15.3685 93.9214 12.147 90.6964C8.9254 87.4715 4.556 85.6598 8.13935e-06 85.6598H8.13935e-06Z" fill="#D32056"/>
<path d="M102.722 129.296C92.5209 129.276 82.4206 131.319 73.027 135.302C71.3071 136.026 69.6145 136.818 67.9561 137.665C68.8092 136.012 69.594 134.318 70.3243 132.589C74.3012 123.183 76.3416 113.07 76.3235 102.856L76.3985 102.856C76.4003 95.8648 79.1732 89.1598 84.1085 84.213C89.0438 79.2662 95.7383 76.4817 102.722 76.4709L102.722 76.3957C112.917 76.4176 123.012 74.3822 132.404 70.4108C134.131 69.6798 135.817 68.8941 137.475 68.0401C136.629 69.698 135.842 71.3901 135.114 73.1163C131.133 82.5239 129.093 92.6396 129.114 102.856L139.352 102.856C139.344 94.1692 141.048 85.5659 144.366 77.5392C147.685 69.5124 152.552 62.2198 158.69 56.0791C164.829 49.9383 172.117 45.0701 180.137 41.7532C188.158 38.4363 196.753 36.7359 205.431 36.7494L205.431 36.6469C214.942 36.3609 223.968 32.377 230.593 25.5405C237.219 18.7039 240.923 9.55239 240.921 0.027224L230.615 0.0272239C230.608 7.01738 227.831 13.7192 222.893 18.662C217.955 23.6048 211.261 26.3848 204.278 26.3921L204.278 26.4809C194.465 26.6052 184.771 28.6403 175.736 32.4726C174.016 33.2059 172.325 33.9938 170.665 34.8364C171.518 33.1831 172.303 31.4888 173.033 29.7602C177.01 20.354 179.05 10.2412 179.032 0.0272234L168.795 0.0272233C168.803 8.71076 167.1 17.3107 163.784 25.3348C160.468 33.3589 155.604 40.6496 149.471 46.7898C143.337 52.93 136.054 57.7991 128.038 61.1184C120.022 64.4377 111.431 66.1421 102.756 66.134L102.756 66.2228C93.0472 66.2228 83.7355 70.0838 76.87 76.9565C70.0045 83.8291 66.1474 93.1505 66.1474 102.87L66.0724 102.87C66.089 111.708 64.3248 120.459 60.8854 128.599C57.5559 136.444 52.7371 143.567 46.6963 149.574C40.6808 155.613 33.551 160.425 25.7028 163.743C17.5732 167.196 8.83114 168.972 8.68013e-06 168.963L8.52764e-06 179.245C10.2034 179.263 20.3057 177.221 29.7022 173.24C31.4289 172.509 33.1147 171.723 34.78 170.869C33.9268 172.529 33.142 174.224 32.4117 175.945C28.7567 184.582 26.7364 193.823 26.4535 203.198L26.3375 203.198C26.3303 210.188 23.5531 216.89 18.6154 221.833C13.6778 226.776 6.98293 229.556 7.78138e-06 229.563L7.6294e-06 239.811C4.80956 239.824 9.57398 238.883 14.0175 237.04C18.461 235.198 22.4954 232.492 25.8871 229.078C32.1635 222.826 35.9445 214.496 36.5203 205.651L36.6841 205.651C36.676 196.967 38.3787 188.368 41.6945 180.343C45.0104 172.319 49.8744 165.029 56.0083 158.888C62.1421 152.748 69.4253 147.879 77.4411 144.56C85.4568 141.24 94.0478 139.536 102.722 139.544L102.722 129.296Z" fill="#D32056"/>
<path d="M102.722 159.507L102.722 149.259C88.19 149.244 74.2141 154.851 63.7149 164.91C53.2157 174.968 47.0056 188.698 46.3824 203.232L46.1299 203.232C46.1468 209.299 44.9612 215.308 42.6415 220.913C40.3219 226.518 36.9144 231.606 32.6165 235.883C28.3411 240.179 23.257 243.584 17.6584 245.9C12.0598 248.216 6.05785 249.397 7.78138e-06 249.376L7.6294e-06 259.624C7.54251 259.637 15.0101 258.127 21.9559 255.183C28.6555 252.351 34.7422 248.244 39.8782 243.09C45.0298 237.947 49.1348 231.852 51.9652 225.143C54.5803 218.961 56.0622 212.358 56.34 205.651L56.5925 205.651C56.5943 193.404 61.455 181.66 70.1056 173C78.7563 164.341 90.4885 159.475 102.722 159.473L102.722 159.507Z" fill="#D32056"/>
<path d="M17.1238 204.442C17.1579 204.032 17.1784 203.615 17.1784 203.198L16.9941 203.198C16.3916 199.117 14.3438 195.389 11.2241 192.694C8.10446 189.999 4.12087 188.516 8.10259e-06 188.516L7.62939e-06 220.422C4.12493 220.421 8.11181 218.934 11.2321 216.233C14.3523 213.533 16.3976 209.798 16.9941 205.712L17.1784 205.712C17.1784 205.268 17.1579 204.851 17.1238 204.442Z" fill="#D32056"/>
<path d="M34.8073 271.184C33.9541 272.844 33.1693 274.538 32.439 276.267C28.4452 285.678 26.3952 295.802 26.4126 306.027L36.65 306.027C36.6326 297.189 38.3968 288.438 41.837 280.298C45.1618 272.438 49.9809 265.301 56.026 259.282C62.0415 253.243 69.1714 248.431 77.0196 245.113C85.1511 241.669 93.8931 239.903 102.722 239.92L102.722 229.672C92.5227 229.649 82.4231 231.685 73.027 235.657C71.3071 236.388 69.6145 237.174 67.9561 238.028C68.7955 236.34 69.6145 234.66 70.297 232.924C73.9512 224.288 75.9715 215.047 76.2552 205.671L76.3712 205.671C76.3785 198.681 79.1556 191.979 84.0933 187.037C89.0309 182.094 95.7258 179.314 102.709 179.307L102.709 169.058C93.4292 169.056 84.4955 172.583 77.7153 178.925C70.9351 185.267 66.8149 193.951 66.1884 203.219L66.0246 203.219C66.042 212.057 64.2778 220.808 60.8376 228.948C57.5246 236.796 52.7222 243.926 46.6963 249.943C40.6808 255.982 33.551 260.794 25.7028 264.113C17.5713 267.556 8.82927 269.322 8.17401e-06 269.305L8.02202e-06 279.553C10.2037 279.574 20.3065 277.531 29.7022 273.548C31.4289 272.851 33.1215 272.065 34.8073 271.184Z" fill="#D32056"/>
<path d="M46.321 306.027L56.5584 306.027C56.5414 299.961 57.7271 293.951 60.0467 288.346C62.3663 282.742 65.7738 277.654 70.0718 273.377C74.3443 269.074 79.4271 265.663 85.0259 263.341C90.6246 261.019 96.628 259.832 102.688 259.849L102.688 249.601C95.1457 249.588 87.6781 251.099 80.7324 254.042C74.0449 256.869 67.9679 260.966 62.8373 266.108C57.6886 271.249 53.586 277.342 50.7572 284.048C47.8168 291.001 46.308 298.477 46.321 306.027V306.027Z" fill="#D32056"/>
<path d="M66.1133 306.027L76.3507 306.027C76.358 299.037 79.1351 292.335 84.0728 287.392C89.0105 282.45 95.7053 279.67 102.688 279.662L102.688 269.414C97.8787 269.401 93.1142 270.343 88.6707 272.185C84.2272 274.027 80.1929 276.734 76.8012 280.147C73.4014 283.541 70.7065 287.576 68.8721 292.017C67.0377 296.459 66.1001 301.221 66.1133 306.027V306.027Z" fill="#D32056"/>
<path d="M85.5439 306.027L102.722 306.027L102.722 288.831C98.1664 288.831 93.797 290.643 90.5754 293.868C87.3538 297.092 85.5439 301.466 85.5439 306.027V306.027Z" fill="#D32056"/>
<path d="M85.5985 204.441C85.5985 204.851 85.5439 205.268 85.5439 205.685L85.7282 205.685C86.3248 209.771 88.37 213.505 91.4903 216.206C94.6105 218.907 98.5974 220.393 102.722 220.394L102.722 188.516C98.5974 188.517 94.6105 190.004 91.4903 192.704C88.37 195.405 86.3248 199.14 85.7282 203.225L85.5439 203.225C85.5439 203.615 85.5644 204.032 85.5985 204.441Z" fill="#D32056"/>
<path d="M17.1784 306.027C17.1784 301.466 15.3685 297.092 12.147 293.868C8.9254 290.643 4.556 288.831 7.88442e-06 288.831L7.62939e-06 306.027L17.1784 306.027Z" fill="#D32056"/>
<path d="M260.713 0.0272533L250.407 0.0272532C250.406 12.2738 245.545 24.0182 236.894 32.6778C228.244 41.3374 216.511 46.2032 204.278 46.205L204.278 46.4099C189.522 46.6999 175.469 52.7743 165.14 63.3271C154.811 73.88 149.032 88.0686 149.043 102.843L159.315 102.843C159.315 90.5972 164.173 78.8531 172.821 70.1924C181.469 61.5317 193.198 56.6634 205.431 56.658L205.431 56.4394C220.192 56.1619 234.254 50.0958 244.592 39.546C254.931 28.9962 260.719 14.8057 260.713 0.0272533Z" fill="#D32056"/>
<path d="M277.291 32.4723C275.571 33.2056 273.881 33.9936 272.22 34.8362C273.066 33.1829 273.856 31.4908 274.588 29.76C278.565 20.3537 280.606 10.241 280.587 0.0269862L270.316 0.0269861C270.324 8.71053 268.621 17.3104 265.306 25.3345C261.99 33.3586 257.126 40.6494 250.992 46.7896C244.858 52.9298 237.575 57.7988 229.559 61.1182C221.543 64.4375 212.952 66.1419 204.278 66.1338L204.278 66.2226C194.775 66.5208 185.762 70.51 179.146 77.3453C172.531 84.1806 168.833 93.3252 168.836 102.842L179.107 102.842C179.113 95.8533 181.887 89.1518 186.822 84.2079C191.757 79.2641 198.449 76.4815 205.431 76.4706L205.431 76.3818C215.241 76.2542 224.932 74.2192 233.966 70.3901C235.693 69.6591 237.379 68.8734 239.037 68.0194C238.191 69.6773 237.401 71.3694 236.669 73.0956C232.694 82.5116 230.658 92.6338 230.683 102.856L240.962 102.856C240.954 94.1724 242.656 85.5725 245.972 77.5484C249.288 69.5243 254.152 62.2336 260.286 56.0934C266.42 49.9532 273.703 45.0841 281.719 41.7648C289.735 38.4455 298.326 36.7411 307 36.7492L307 26.467C296.794 26.445 286.689 28.4877 277.291 32.4723Z" fill="#D32056"/>
<path d="M260.87 102.856C260.868 96.7903 262.06 90.7838 264.378 85.1793C266.695 79.5748 270.092 74.4821 274.376 70.1921C278.66 65.9021 283.746 62.4988 289.343 60.1766C294.941 57.8543 300.941 56.6586 307 56.6577L307 46.4097C299.592 46.4043 292.255 47.861 285.41 50.6965C278.564 53.5319 272.345 57.6905 267.106 62.9344C261.868 68.1783 257.713 74.4045 254.881 81.257C252.048 88.1094 250.593 95.4537 250.599 102.87L260.87 102.856Z" fill="#D32056"/>
<path d="M270.391 102.856L280.663 102.856C280.664 95.8622 283.439 89.1552 288.377 84.208C293.316 79.2607 300.014 76.4779 307 76.4706L307 66.2226C297.291 66.2226 287.979 70.0836 281.114 76.9562C274.248 83.8289 270.391 93.1502 270.391 102.87L270.391 102.856Z" fill="#D32056"/>
<path d="M289.822 102.856L307 102.856L307 85.6597C304.744 85.6597 302.51 86.1045 300.426 86.9687C298.342 87.8329 296.448 89.0996 294.853 90.6964C293.258 92.2932 291.993 94.1889 291.129 96.2752C290.266 98.3616 289.822 100.598 289.822 102.856Z" fill="#D32056"/>
<path d="M289.822 0.0271606C289.822 2.28508 290.266 4.52089 291.129 6.60685C291.993 8.69281 293.258 10.5881 294.853 12.1843C296.449 13.7806 298.342 15.0466 300.427 15.91C302.511 16.7735 304.744 17.2174 307 17.2166L307 0.0271608L289.822 0.0271606Z" fill="#D32056"/>
<path d="M204.278 85.7075C199.935 86.0035 195.867 87.9387 192.895 91.1218C189.923 94.305 188.268 98.4989 188.266 102.856L221.449 102.856C221.449 98.4973 219.794 94.3016 216.82 91.1179C213.846 87.9342 209.775 86.0003 205.431 85.7075L205.431 85.6597C205.233 85.6597 205.042 85.6597 204.844 85.6597C204.646 85.6597 204.455 85.6597 204.264 85.6597L204.278 85.7075Z" fill="#D32056"/>
</svg>
