<svg width="16" height="16" viewBox="0 0 16 16" fill="none" xmlns="http://www.w3.org/2000/svg">
<path d="M11.6687 0L4.33125 0.09375C1.94375 0.09375 0.1875 1.94375 0.1875 4.33125L0 11.6687C0 14.0562 1.94375 16 4.33125 16L11.6687 15.7188C14.0562 15.7188 15.7188 14.0562 15.7188 11.6687L16 4.33125C16 1.94375 14.0562 0 11.6687 0ZM8 12.375C5.5875 12.375 3.625 10.4125 3.625 8C3.625 5.5875 5.5875 3.625 8 3.625C10.4125 3.625 12.375 5.5875 12.375 8C12.375 10.4125 10.4125 12.375 8 12.375ZM12.4781 4.65625C11.7656 4.65625 11.1844 4.075 11.1844 3.3625C11.1844 2.65 11.7656 2.06875 12.4781 2.06875C13.1906 2.06875 13.7719 2.65 13.7719 3.3625C13.7719 4.075 13.1937 4.65625 12.4781 4.65625Z" fill="#5E1331"/>
<path d="M7.84374 5.03439C6.20936 5.03439 5.03436 6.36564 5.03436 8.00002C5.03436 9.63439 6.49061 11.0906 8.12499 11.0906C9.75936 11.0906 10.9656 9.63439 10.9656 8.00002C10.9656 6.36564 9.47811 5.03439 7.84374 5.03439Z" fill="#5E1331"/>
<path d="M12.4156 3.00938C12.2188 3.00938 12.1219 3.16876 12.1219 3.36563C12.1219 3.56251 12.2813 3.75313 12.4781 3.75313C12.675 3.75313 12.8344 3.56251 12.8344 3.36563C12.8344 3.16876 12.6125 3.00938 12.4156 3.00938Z" fill="#5E1331"/>
</svg>
