<svg width="104" height="37" viewBox="0 0 104 37" fill="none" xmlns="http://www.w3.org/2000/svg">
<path d="M2.44991 35.4578C1.85411 35.1052 1.36668 34.594 1.04141 33.9804C0.697031 33.3477 0.517871 32.6375 0.520709 31.9162C0.507098 31.1836 0.686769 30.4605 1.04141 29.8206C1.38024 29.2147 1.87837 28.7144 2.48115 28.3746C3.11746 28.0185 3.83595 27.8377 4.56396 27.8507C5.10421 27.8429 5.64114 27.9371 6.14689 28.1284C6.64733 28.3358 7.10607 28.6332 7.50071 29.0059L6.80037 29.928C6.20825 29.3686 5.42291 29.0633 4.61082 29.0766C4.11957 29.0665 3.63501 29.1924 3.21013 29.4407C2.80811 29.6814 2.47942 30.0284 2.25985 30.444C2.02415 30.8941 1.9059 31.3971 1.91619 31.9057C1.90943 32.4074 2.02285 32.9034 2.24683 33.3517C2.4574 33.7748 2.78108 34.1304 3.18149 34.3785C3.59775 34.6329 4.07701 34.7637 4.56396 34.7557C5.01428 34.7632 5.4601 34.6646 5.86571 34.4676C6.24817 34.2726 6.58123 33.9921 6.83942 33.6477L7.68817 34.5226C7.32222 34.9914 6.85355 35.3689 6.31872 35.6254C5.76138 35.883 5.1538 36.0119 4.54053 36.0026C3.81037 36.0141 3.09073 35.8267 2.45772 35.4604" fill="#5E1331"/>
<path d="M9.67203 35.6516C9.2623 35.4297 8.92439 35.0942 8.69831 34.685C8.45897 34.2521 8.33771 33.7632 8.34684 33.2679C8.33873 32.7777 8.46002 32.2941 8.69831 31.8664C8.92722 31.462 9.26467 31.1307 9.67203 30.9103C10.1109 30.683 10.5974 30.5645 11.0909 30.5645C11.5845 30.5645 12.071 30.683 12.5098 30.9103C12.9206 31.1324 13.2607 31.4665 13.4914 31.8743C13.7263 32.3003 13.8465 32.7807 13.8402 33.2679C13.8476 33.7601 13.7273 34.2459 13.4914 34.6772C13.2623 35.0867 12.9218 35.4221 12.5098 35.6438C12.0715 35.8727 11.5848 35.9922 11.0909 35.9922C10.597 35.9922 10.1104 35.8727 9.67203 35.6438V35.6516ZM12.161 34.4283C12.4236 34.0998 12.5668 33.6908 12.5668 33.2692C12.5668 32.8475 12.4236 32.4386 12.161 32.11C12.0209 31.9679 11.8542 31.8552 11.6705 31.7782C11.4869 31.7013 11.2899 31.6616 11.0909 31.6616C10.892 31.6616 10.695 31.7013 10.5114 31.7782C10.3277 31.8552 10.161 31.9679 10.0209 32.11C9.75513 32.4346 9.6098 32.8421 9.6098 33.2626C9.6098 33.6832 9.75513 34.0906 10.0209 34.4152C10.1553 34.5644 10.3205 34.6822 10.5048 34.7605C10.6892 34.8387 10.8883 34.8756 11.0883 34.8684C11.2884 34.8761 11.4878 34.8403 11.6729 34.7635C11.858 34.6866 12.0245 34.5705 12.161 34.4231" fill="#5E1331"/>
<path d="M20.6745 28.7492C20.519 28.9333 20.4406 29.1709 20.4558 29.4119V30.7033H21.8695V31.7747H20.4688V35.8481H19.2191V31.7747H16.5245V35.8481H15.2722V31.7747H14.3349V30.7033H15.2722V29.3386C15.2467 28.8196 15.42 28.3105 15.7564 27.9162C15.9287 27.7361 16.1379 27.596 16.3694 27.5055C16.601 27.4151 16.8493 27.3764 17.0972 27.3923C17.3246 27.391 17.5515 27.4139 17.7741 27.4604C17.9997 27.513 18.2188 27.5903 18.4276 27.6909L18.0709 28.6601C17.8407 28.5679 17.595 28.5207 17.3472 28.5213C17.2363 28.5159 17.1255 28.5344 17.0222 28.5755C16.919 28.6166 16.8256 28.6794 16.7484 28.7597C16.6695 28.8498 16.6091 28.9548 16.5707 29.0685C16.5322 29.1823 16.5165 29.3025 16.5245 29.4224V30.7138H19.2191V29.3386C19.1926 28.8212 19.3619 28.313 19.6929 27.9162C19.8623 27.7367 20.0687 27.5967 20.2977 27.5062C20.5267 27.4157 20.7726 27.3768 21.0181 27.3923C21.2763 27.3892 21.5335 27.4254 21.7809 27.4997C22.0233 27.581 22.253 27.6965 22.4631 27.8428L22.0179 28.7413C21.9019 28.6705 21.7777 28.6142 21.6482 28.5737C21.522 28.5377 21.3914 28.52 21.2602 28.5213C21.1513 28.5164 21.0426 28.5352 20.9416 28.5763C20.8405 28.6175 20.7494 28.68 20.6745 28.7597" fill="#5E1331"/>
<path d="M26.574 31.2456C27.0077 31.7539 27.2313 32.4101 27.1989 33.0792C27.1989 33.2024 27.1832 33.4014 27.152 33.6791H23.4836C23.5398 34.0532 23.7388 34.3906 24.0382 34.6195C24.3507 34.8434 24.7274 34.9584 25.1108 34.947C25.3658 34.9508 25.6195 34.91 25.8606 34.8265C26.0822 34.7441 26.287 34.6216 26.4647 34.465L26.9854 35.2718C26.7046 35.4941 26.391 35.6709 26.0559 35.7957C25.7138 35.9199 25.3522 35.9811 24.9885 35.9764C24.4868 35.9865 23.991 35.8665 23.5487 35.628C23.1401 35.4046 22.8026 35.0695 22.575 34.6614C22.3446 34.2339 22.2263 33.7542 22.2314 33.2678C22.2268 32.7897 22.3433 32.3182 22.5698 31.8978C22.7905 31.4939 23.1163 31.1579 23.5123 30.926C23.924 30.6833 24.3942 30.5592 24.8713 30.5671C25.1871 30.5507 25.5027 30.603 25.7966 30.7206C26.0904 30.8381 26.3556 31.0181 26.574 31.2482V31.2456ZM23.9705 31.9214C23.7136 32.165 23.5442 32.4875 23.4889 32.8382H26.0221C26.0304 32.4985 25.9072 32.1688 25.6784 31.9188C25.5704 31.8105 25.4414 31.7257 25.2994 31.6698C25.1574 31.614 25.0055 31.5881 24.8531 31.594C24.5286 31.5886 24.2138 31.7054 23.9705 31.9214Z" fill="#5E1331"/>
<path d="M32.3304 31.2456C32.764 31.7539 32.9876 32.4101 32.9552 33.0792C32.9552 33.2024 32.9396 33.4014 32.9084 33.6791H29.24C29.2972 34.0529 29.496 34.3898 29.7946 34.6195C30.1072 34.843 30.4838 34.958 30.8672 34.9469C31.1222 34.9508 31.3759 34.91 31.617 34.8264C31.8386 34.7441 32.0433 34.6216 32.221 34.465L32.7417 35.2718C32.4621 35.4944 32.1493 35.6712 31.8149 35.7957C31.4727 35.9199 31.1112 35.9811 30.7474 35.9764C30.2466 35.9869 29.7515 35.8669 29.3103 35.628C28.9004 35.4054 28.5618 35.0702 28.334 34.6614C28.1091 34.2313 27.9917 33.7525 27.9917 33.2665C27.9917 32.7805 28.1091 32.3018 28.334 31.8716C28.5547 31.4677 28.8805 31.1317 29.2765 30.8998C29.6882 30.6571 30.1584 30.533 30.6355 30.5409C30.9513 30.5247 31.2668 30.5771 31.5607 30.6946C31.8545 30.8122 32.1197 30.992 32.3382 31.222L32.3304 31.2456ZM29.7347 31.8952C29.4778 32.1388 29.3084 32.4613 29.253 32.812H31.7628C31.7711 32.4723 31.6479 32.1426 31.4191 31.8926C31.3112 31.7843 31.1821 31.6995 31.0401 31.6437C30.8981 31.5878 30.7462 31.5619 30.5938 31.5678C30.2691 31.5606 29.9537 31.6776 29.7112 31.8952" fill="#5E1331"/>
<path d="M37.0375 31.7747H36.0846V30.7033H37.0375V29.3386C37.0119 28.8204 37.1832 28.3119 37.5166 27.9162C37.6874 27.7371 37.8948 27.5975 38.1245 27.507C38.3542 27.4166 38.6007 27.3774 38.8469 27.3923C39.1017 27.3897 39.3554 27.4259 39.5994 27.4997C39.8418 27.5809 40.0714 27.6965 40.2815 27.8428L39.8337 28.7308C39.7198 28.6613 39.5984 28.605 39.4718 28.5632C39.3475 28.5267 39.2185 28.509 39.0891 28.5108C38.9795 28.5066 38.8702 28.5256 38.7683 28.5667C38.6665 28.6077 38.5744 28.6699 38.4981 28.7492C38.3398 28.9319 38.2593 29.17 38.2742 29.4119V30.7033H39.6853V31.7747H38.2872V35.8507H37.0375V31.7747Z" fill="#5E1331"/>
<path d="M43.9993 30.8081L43.6765 31.8559C43.4639 31.7772 43.2391 31.7373 43.0126 31.738C42.8495 31.7314 42.6868 31.7589 42.5349 31.8189C42.3829 31.8788 42.245 31.97 42.13 32.0864C42.0159 32.2145 41.9279 32.3639 41.8712 32.5262C41.8144 32.6884 41.79 32.8603 41.7993 33.0321V35.8376H40.547V30.7033H41.3958L41.6379 31.463C41.7708 31.1935 41.9777 30.968 42.2341 30.8134C42.5022 30.6582 42.8075 30.5802 43.1167 30.5881C43.4251 30.5811 43.7298 30.6571 43.9993 30.8081Z" fill="#5E1331"/>
<path d="M45.5822 35.6516C45.1736 35.4282 44.8361 35.0931 44.6085 34.685C44.3712 34.2514 44.2509 33.7628 44.2596 33.2679C44.252 32.778 44.3723 32.2948 44.6085 31.8664C44.8377 31.4603 45.1749 31.1264 45.5822 30.9024C46.0225 30.6759 46.5102 30.5585 47.0047 30.5599C47.4992 30.5612 47.9862 30.6814 48.4253 30.9103C48.836 31.1324 49.1761 31.4665 49.4068 31.8743C49.6422 32.3028 49.7616 32.7861 49.7531 33.2757C49.7613 33.7678 49.642 34.2535 49.4068 34.685C49.1777 35.0946 48.8372 35.4299 48.4253 35.6516C47.9864 35.8806 47.4994 36.0001 47.005 36.0001C46.5107 36.0001 46.0237 35.8806 45.5848 35.6516H45.5822ZM48.0764 34.4362C48.339 34.1076 48.4822 33.6987 48.4822 33.277C48.4822 32.8554 48.339 32.4464 48.0764 32.1179C47.9363 31.9758 47.7696 31.863 47.5859 31.7861C47.4023 31.7091 47.2053 31.6695 47.0063 31.6695C46.8074 31.6695 46.6104 31.7091 46.4268 31.7861C46.2431 31.863 46.0764 31.9758 45.9363 32.1179C45.6705 32.4425 45.5252 32.8499 45.5252 33.2705C45.5252 33.691 45.6705 34.0985 45.9363 34.4231C46.0707 34.5722 46.2359 34.6901 46.4203 34.7683C46.6046 34.8466 46.8038 34.8834 47.0037 34.8762C47.2038 34.8838 47.4032 34.8479 47.5883 34.7711C47.7733 34.6942 47.9398 34.5782 48.0764 34.4309" fill="#5E1331"/>
<path d="M58.1233 31.0884C58.4482 31.498 58.6114 32.0138 58.5815 32.537V35.8507H57.3319V32.6758C57.3473 32.4162 57.2676 32.16 57.108 31.9555C57.0337 31.8691 56.9411 31.8008 56.837 31.7554C56.7329 31.7101 56.6199 31.6889 56.5065 31.6935C56.341 31.6836 56.1756 31.7164 56.0261 31.7889C55.8767 31.8613 55.7481 31.9709 55.6526 32.1074C55.4538 32.3953 55.3508 32.7392 55.3584 33.0897V35.8481H54.1191V32.6627C54.1292 32.4148 54.0528 32.171 53.903 31.9738C53.8291 31.8813 53.7344 31.8078 53.6266 31.7596C53.5188 31.7113 53.4012 31.6895 53.2834 31.6961C53.1198 31.6872 52.9566 31.7206 52.8094 31.793C52.6623 31.8655 52.5359 31.9746 52.4425 32.11C52.2437 32.3979 52.1407 32.7418 52.1483 33.0923V35.8507H50.8986V30.7033H51.7473L52.0077 31.5232C52.1678 31.2312 52.4012 30.9864 52.6846 30.8134C52.9728 30.6445 53.3015 30.5584 53.6349 30.5645C53.963 30.556 54.2868 30.6404 54.5695 30.8081C54.8316 30.9656 55.041 31.1982 55.1709 31.4761C55.3341 31.1972 55.5676 30.9668 55.8479 30.8081C56.1497 30.641 56.4901 30.5569 56.8346 30.5645C57.0765 30.5498 57.3187 30.5891 57.5438 30.6797C57.7689 30.7703 57.9712 30.9099 58.1363 31.0884" fill="#5E1331"/>
<path d="M69.5657 35.814V35.8507H68.1572L67.5116 34.4283H63.8536L63.2262 35.8507H61.8021V35.8245L65.4834 27.9659H65.8974L69.5657 35.814ZM65.1632 31.4866L64.3067 33.3569H67.0664L66.2176 31.4866C66.0202 31.0502 65.8464 30.6033 65.6969 30.148C65.5234 30.6125 65.3498 31.0587 65.1762 31.4866" fill="#5E1331"/>
<path d="M70.3806 31.7747H69.4278V30.7033H70.3806V29.3386C70.3547 28.82 70.5271 28.311 70.8623 27.9162C71.0324 27.7369 71.2393 27.5971 71.4687 27.5066C71.698 27.4161 71.9442 27.3771 72.1901 27.3923C72.4448 27.3897 72.6985 27.4259 72.9425 27.4997C73.1849 27.5809 73.4146 27.6965 73.6246 27.8428L73.1768 28.7413C73.0638 28.6718 72.9433 28.6156 72.8175 28.5737C72.6923 28.5373 72.5625 28.5196 72.4322 28.5213C72.3226 28.517 72.2133 28.5361 72.1115 28.5771C72.0096 28.6182 71.9176 28.6804 71.8412 28.7597C71.6829 28.9424 71.6025 29.1805 71.6173 29.4224V30.7138H73.0284V31.7852H71.6303V35.8612H70.3806V31.7747Z" fill="#5E1331"/>
<path d="M77.3502 30.8081L77.03 31.8559C76.8173 31.7777 76.5926 31.7378 76.3661 31.7381C76.2026 31.7313 76.0395 31.7588 75.8872 31.8188C75.7348 31.8788 75.5965 31.9699 75.4809 32.0865C75.3668 32.2145 75.2789 32.3639 75.2221 32.5262C75.1654 32.6884 75.141 32.8604 75.1503 33.0321V35.8376H73.9006V30.7034H74.7467L74.9889 31.463C75.1217 31.1935 75.3286 30.968 75.5851 30.8134C75.854 30.658 76.1602 30.58 76.4703 30.5881C76.7778 30.5815 77.0816 30.6574 77.3502 30.8081Z" fill="#5E1331"/>
<path d="M78.2172 29.4172C78.0825 29.2717 78.0076 29.0803 78.0076 28.8815C78.0076 28.6827 78.0825 28.4912 78.2172 28.3458C78.3736 28.2058 78.5755 28.1285 78.7848 28.1285C78.994 28.1285 79.196 28.2058 79.3523 28.3458C79.4226 28.4164 79.4777 28.5006 79.5144 28.5934C79.5511 28.6862 79.5686 28.7856 79.5658 28.8854C79.567 28.9831 79.5483 29.0801 79.5106 29.1702C79.473 29.2604 79.4174 29.3417 79.3471 29.4093C79.1911 29.5478 78.9902 29.6242 78.7822 29.6242C78.5741 29.6242 78.3732 29.5478 78.2172 29.4093V29.4172ZM78.1521 30.6955H79.407V35.8428H78.1547L78.1521 30.6955Z" fill="#5E1331"/>
<path d="M81.909 35.6804C81.5035 35.4654 81.1641 35.1429 80.9275 34.7479C80.6826 34.3035 80.5528 33.8042 80.5501 33.2961C80.5474 32.7879 80.6718 32.2873 80.9118 31.8402C81.1432 31.4376 81.4836 31.1096 81.8934 30.8946C82.3103 30.673 82.7756 30.5595 83.2472 30.5645C83.9442 30.5491 84.6218 30.7956 85.1477 31.2561L84.5411 32.0995C84.3754 31.9571 84.1871 31.8437 83.984 31.7643C83.7762 31.6929 83.5578 31.6583 83.3383 31.6621C83.136 31.6564 82.9347 31.6928 82.747 31.769C82.5593 31.8451 82.3892 31.9595 82.2474 32.1048C81.9665 32.4325 81.812 32.8508 81.812 33.2836C81.812 33.7163 81.9665 34.1347 82.2474 34.4624C82.3866 34.6031 82.5527 34.7137 82.7358 34.7876C82.9189 34.8615 83.1151 34.897 83.3123 34.892C83.5541 34.8951 83.7943 34.8524 84.0204 34.7662C84.2432 34.6706 84.4456 34.5327 84.6166 34.3602L85.2467 35.2037C84.9763 35.4719 84.6533 35.6804 84.2982 35.8157C83.9431 35.9511 83.5638 36.0103 83.1847 35.9895C82.7392 35.991 82.3002 35.8821 81.9064 35.6726" fill="#5E1331"/>
<path d="M89.821 31.1067C90.0118 31.2877 90.1606 31.5088 90.2569 31.7542C90.3532 31.9995 90.3946 32.2632 90.3782 32.5265V35.8507H89.5399L89.3108 35.0648C89.12 35.3415 88.8618 35.5643 88.5609 35.7119C88.2247 35.8701 87.8569 35.9489 87.4857 35.9424C87.0642 35.9631 86.6501 35.8249 86.3245 35.5547C86.1771 35.4248 86.0608 35.2631 85.9842 35.0817C85.9075 34.9003 85.8726 34.7038 85.8819 34.5069C85.8725 34.2406 85.9321 33.9764 86.0549 33.7403C86.1777 33.5043 86.3594 33.3044 86.5823 33.1604C87.1502 32.8133 87.8088 32.6463 88.4724 32.6811C88.6573 32.6811 88.8708 32.6811 89.1155 32.7047V32.482C89.1216 32.3677 89.0996 32.2537 89.0514 32.1499C89.0033 32.0462 88.9305 31.956 88.8395 31.8874C88.6069 31.7386 88.3335 31.668 88.0585 31.6857C87.5032 31.7036 86.9588 31.8459 86.4651 32.1022L86.111 31.1434C86.7789 30.8168 87.5087 30.6381 88.2511 30.6195C88.8148 30.5838 89.3716 30.7602 89.8132 31.1146L89.821 31.1067ZM88.7718 34.6221C89.0273 34.3208 89.1603 33.9334 89.1441 33.5377C88.9462 33.5149 88.7471 33.5036 88.5479 33.5036C88.1823 33.4847 87.8183 33.5642 87.4935 33.7341C87.376 33.7975 87.2784 33.8926 87.2117 34.0088C87.145 34.1249 87.1118 34.2575 87.116 34.3916C87.111 34.4784 87.126 34.5652 87.1598 34.6452C87.1937 34.7252 87.2455 34.7962 87.3113 34.8527C87.4655 34.9684 87.6554 35.0259 87.8476 35.0151C88.0206 35.0202 88.1928 34.9878 88.3523 34.92C88.5118 34.8522 88.6549 34.7506 88.7718 34.6221Z" fill="#5E1331"/>
<path d="M60.1411 14.7662C59.787 12.4087 59.4537 10.0275 59.0996 7.66471C58.7456 5.30191 58.3472 2.89457 57.9697 0.508194C57.9489 0.361501 57.9879 0.20171 57.8343 0.0969298C57.4646 -0.149305 56.0119 0.125744 55.7515 0.497716C53.4448 3.81577 51.139 7.14343 48.834 10.4807C48.6361 10.7662 48.5476 10.9181 48.269 10.5121C46.0977 7.3687 43.8691 4.24886 41.7368 1.06615C41.2161 0.280296 40.659 -0.104773 39.7452 0.0497785C39.702 0.0563117 39.6581 0.0563117 39.615 0.0497785C39.2869 0.0078663 39.1854 0.146701 39.1385 0.481999C38.8782 2.27113 38.5996 4.05502 38.321 5.83891C38.0086 7.88213 37.6919 9.92448 37.3708 11.966C37.1443 13.4303 36.9151 14.8893 36.6886 16.3536C36.4283 18.0511 36.1679 19.759 35.9076 21.4512C35.8581 21.7629 36.0143 21.8206 36.2773 21.8206C37.9279 21.8206 39.5785 21.8206 41.224 21.8206C41.4661 21.8206 41.6093 21.7787 41.6535 21.4748C42.0336 18.761 42.419 16.0445 42.8433 13.336C42.9266 12.8121 42.9371 12.2698 43.0646 11.6411C44.52 13.9044 46.0821 15.9424 47.5453 18.0432C47.6491 18.2094 47.7932 18.3463 47.9639 18.4412C48.1346 18.5361 48.3265 18.5859 48.5216 18.5859C48.7167 18.5859 48.9085 18.5361 49.0793 18.4412C49.25 18.3463 49.3941 18.2094 49.4979 18.0432C50.318 16.9195 51.1277 15.7852 51.9426 14.6562C52.5831 13.7656 53.2209 12.8723 53.8666 11.9686C54.0983 12.1546 54.0567 12.3641 54.0853 12.5475C54.5409 15.4944 55.0043 18.4414 55.4313 21.391C55.4886 21.7839 55.6318 21.831 55.952 21.831C57.5349 21.831 59.1231 21.8127 60.7086 21.831C61.1408 21.831 61.1903 21.7053 61.1226 21.2888C60.7737 19.1225 60.4561 16.9378 60.1411 14.7662Z" fill="#5E1331"/>
<path d="M77.7017 10.9312C77.3346 10.7217 77.293 10.5907 77.6653 10.3156C78.5304 9.64961 79.1593 8.72101 79.4591 7.66732C80.2167 5.28094 79.3836 2.66404 77.3632 1.30451C76.214 0.548678 74.87 0.147994 73.497 0.151928C70.4587 0.112635 67.4178 0.151928 64.3848 0.117874C63.8823 0.117874 63.7833 0.280284 63.7859 0.754416C63.8042 4.15979 63.7859 7.56516 63.7859 10.9705C63.7859 14.3759 63.8016 17.7394 63.7677 21.1238C63.7677 21.7263 63.9395 21.8284 64.4889 21.8258C67.4829 21.797 70.477 21.8048 73.4736 21.8258C74.2528 21.8315 75.0303 21.7543 75.7933 21.5953C78.9774 20.9116 80.9014 18.0458 80.3417 14.8317C80.0449 13.1159 79.2143 11.7931 77.6965 10.9365L77.7017 10.9312ZM69.5683 6.62475C69.5683 6.10085 69.5683 5.57694 69.5683 5.05304C69.5683 4.86444 69.5215 4.62868 69.8287 4.62868C70.8389 4.62868 71.8698 4.50294 72.8227 4.94302C73.1601 5.09555 73.441 5.35144 73.6252 5.67417C73.8094 5.99689 73.8876 6.36993 73.8485 6.74001C73.7314 7.64636 73.1638 8.36411 72.3905 8.53962C71.6173 8.71512 70.7555 8.66011 69.9328 8.66797C69.584 8.66797 69.5709 8.44793 69.5735 8.1886C69.5735 7.6647 69.5735 7.14079 69.5735 6.61689L69.5683 6.62475ZM74.4968 15.5573C74.4239 16.4715 73.4554 17.2993 72.3931 17.3229C71.5913 17.3412 70.7868 17.3229 69.9823 17.3229C69.6725 17.3229 69.5605 17.2338 69.5709 16.9142C69.5892 16.3248 69.5709 15.7354 69.5709 15.146C69.5709 14.5776 69.5709 14.0092 69.5709 13.4433C69.5709 13.1814 69.636 13.0137 69.9302 13.0268C70.8623 13.0661 71.7969 12.9378 72.7212 13.1159C74.0229 13.3779 74.6061 14.1637 74.4968 15.5442" fill="#5E1331"/>
<path d="M33.3718 16.7439C30.8516 16.7675 28.3314 16.7439 25.8216 16.7649C25.3946 16.7649 25.2046 16.7046 25.2332 16.2096C25.2788 15.4672 25.2788 14.7227 25.2332 13.9804C25.2098 13.5272 25.3269 13.3936 25.7956 13.3988C27.8575 13.425 29.9221 13.3988 31.9841 13.425C32.5438 13.425 32.6792 13.2521 32.6636 12.7204C32.6272 11.518 32.6193 10.313 32.6636 9.11329C32.687 8.55795 32.4762 8.46365 31.9893 8.46627C29.9482 8.48723 27.907 8.46627 25.8658 8.48461C25.3972 8.48461 25.1994 8.37983 25.2306 7.8664C25.2788 7.1687 25.2788 6.46849 25.2306 5.77079C25.1967 5.24689 25.3816 5.16568 25.8528 5.1683C28.2845 5.1945 30.7188 5.1683 33.1427 5.1945C33.6998 5.1945 33.8378 5.02423 33.8196 4.48985C33.7857 3.26653 33.7831 2.0406 33.8196 0.822524C33.8456 0.261947 33.6581 0.117874 33.1218 0.117874C28.7826 0.13883 24.4435 0.13883 20.1043 0.117874C19.5211 0.117874 19.4404 0.327435 19.443 0.835621C19.4612 4.2017 19.443 7.56778 19.443 10.9339C19.443 14.3392 19.443 17.7446 19.443 21.15C19.443 21.6267 19.5107 21.8258 20.0652 21.8232C24.5381 21.797 29.0126 21.797 33.4889 21.8232C33.9341 21.8232 34.0903 21.7184 34.0773 21.2495C34.0461 19.9817 34.0357 18.7086 34.0773 17.4433C34.0955 16.888 33.9159 16.7361 33.3796 16.7413" fill="#5E1331"/>
<path d="M16.173 3.00198C16.5963 2.32272 16.8017 1.52893 16.7614 0.728238C16.7458 0.277682 16.6208 0.12313 16.1652 0.12575C11.1057 0.136228 6.04795 0.136228 0.991932 0.12575C0.57537 0.12575 0.429574 0.261965 0.434781 0.686326C0.460816 2.1061 0.466023 3.52588 0.434781 4.94566C0.434781 5.43813 0.57537 5.5822 1.05962 5.57696C3.29604 5.54815 5.53245 5.55339 7.76886 5.55601C7.93028 5.55601 8.14117 5.45384 8.24791 5.62935C8.35465 5.80486 8.17241 5.94893 8.0891 6.09301C5.60795 10.355 3.14243 14.6248 0.635251 18.8736C0.212202 19.5531 -0.00826755 20.3404 -4.86805e-06 21.1421C-4.86805e-06 21.7629 0.205672 21.8337 0.736788 21.8284C1.99689 21.8145 3.25612 21.8092 4.51448 21.8127H12.2C13.5018 21.8127 14.8035 21.8127 16.1053 21.8127C16.5531 21.8127 16.7093 21.6975 16.7015 21.2286C16.6729 19.8559 16.6677 18.4781 16.7015 17.1028C16.7015 16.5475 16.5323 16.3798 15.9933 16.3903C13.6502 16.4375 11.307 16.3432 8.96388 16.4506C8.78684 16.4506 8.54471 16.5475 8.44317 16.3327C8.34164 16.1179 8.54731 16.0157 8.63323 15.8743C11.1378 11.573 13.632 7.26917 16.1834 2.98888" fill="#5E1331"/>
<path d="M102.724 20.8854C99.6154 14.3366 96.4756 7.78781 93.4191 1.22069C93.0025 0.324814 92.5651 -0.115265 91.5524 0.0261891C91.3774 0.0254233 91.2063 0.0781011 91.0618 0.177258C90.9172 0.276416 90.8059 0.417384 90.7427 0.581526C89.1181 4.04191 87.4779 7.48919 85.8247 10.9417C84.1714 14.3942 82.5677 17.8127 80.9275 21.2338C80.7114 21.6896 80.7634 21.831 81.2946 21.8232C82.9868 21.8022 84.6791 21.8075 86.374 21.8232C86.7203 21.8232 86.9207 21.7551 87.0457 21.3857C87.2644 20.7518 87.5664 20.1441 87.8267 19.5206C87.87 19.3663 87.9675 19.2331 88.1012 19.1459C88.2348 19.0586 88.3955 19.0233 88.5531 19.0465C90.7869 19.0709 93.0225 19.0709 95.2598 19.0465C95.6607 19.0465 95.8846 19.1408 96.0252 19.5521C96.2309 20.1703 96.5459 20.7492 96.7594 21.3595C96.7873 21.5073 96.8715 21.6383 96.9941 21.7244C97.1167 21.8106 97.2679 21.8451 97.4155 21.8206C98.259 21.797 99.1077 21.8206 99.9539 21.8206C100.8 21.8206 101.649 21.7996 102.495 21.8206C102.987 21.8389 103.146 21.7027 102.896 21.239C102.836 21.1238 102.792 20.998 102.737 20.8828L102.724 20.8854ZM93.6248 14.8029C92.4558 14.7819 91.2816 14.8029 90.1178 14.8029C89.959 14.8029 89.7481 14.8788 89.7533 14.6667C90.0397 13.9777 90.3053 13.3569 90.55 12.7413C90.9405 11.7302 91.3198 10.7173 91.6878 9.70268C91.7346 9.5717 91.7554 9.42239 91.8986 9.40405C92.0418 9.38572 92.0574 9.55337 92.0965 9.66601C92.6458 11.2377 93.2499 12.8094 93.919 14.3183C94.0882 14.6981 94.0517 14.8081 93.6169 14.8003" fill="#5E1331"/>
</svg>
