<svg width="18" height="18" viewBox="0 0 18 18" fill="none" xmlns="http://www.w3.org/2000/svg">
<path d="M6.99327 3.41357C5.53355 3.42813 4.28413 4.06812 4 5.5H8.5C9.01419 5.5 9.52412 5.9858 9.52412 6.5V11.1722C9.5231 11.2782 9.50378 11.3832 9.46702 11.4825H9.98964C10.0753 11.4825 10.1448 11.4131 10.1448 11.3274V6.62254C10.1535 4.86904 8.74663 3.43656 6.99327 3.41357Z" fill="#D31E56"/>
<path d="M5.32671 9.71148C4.97907 10.0033 4.47209 10.0033 4.12444 9.71148L3.19141 9L1 11.4826H8.44719L6.19141 9L5.32671 9.71148Z" fill="#D31E56"/>
<path d="M8.45001 11.5V7.06885L6.19141 9L8.45001 11.5Z" fill="#D31E56"/>
<path d="M4.8981 8.50093L8.1396 6.51709H1.31201L4.49992 8.5C4.61493 8.59663 4.78264 8.59702 4.8981 8.50093Z" fill="#D31E56"/>
<path d="M1.00171 7.06885V11.5L3.19137 9L1.00171 7.06885Z" fill="#D31E56"/>
<path d="M14.5862 3.41379H11.1724V1.86207H13.3448C13.5162 1.86207 13.6552 1.72312 13.6552 1.55172V0.310345C13.6552 0.138946 13.5162 0 13.3448 0H10.8621C10.6907 0 10.5517 0.138946 10.5517 0.310345V1.86207V3.41379H7C8.04188 4.10276 9.6197 5.26816 9.62069 6.51724V11.3276C9.62069 11.4133 9.69016 11.4828 9.77586 11.4828H17.5345C17.6202 11.4828 17.6897 11.4133 17.6897 11.3276V6.51724C17.6897 4.80325 16.3002 3.41379 14.5862 3.41379Z" fill="#D31E56"/>
<path d="M9.77578 12.8447C9.69008 12.8447 9.62061 12.9142 9.62061 12.9999V17.5345C9.62061 17.6202 9.69008 17.6896 9.77578 17.6896C10.2649 17.6896 11.771 17.6927 12.2585 17.6915C12.3442 17.6915 12.4137 17.622 12.4137 17.5363V13.0018C12.4137 12.9161 12.3442 12.8466 12.2585 12.8466C11.4309 12.8449 10.6034 12.8447 9.77578 12.8447Z" fill="#D31E56"/>
</svg>
