<svg width="16" height="21" viewBox="0 0 16 21" fill="none" xmlns="http://www.w3.org/2000/svg">
<g clip-path="url(#clip0)">
<path d="M4.19583 7.59401L4.64881 7.64987L4.70371 7.22175C4.71166 7.14231 4.73553 7.06518 4.77392 6.99489C4.81232 6.9246 4.86446 6.86254 4.92731 6.81236C4.99017 6.76218 5.06246 6.72488 5.13996 6.70264C5.21747 6.6804 5.29863 6.67367 5.3787 6.68284L6.18154 6.78059C6.34731 6.80083 6.49845 6.88412 6.60299 7.01283C6.70754 7.14155 6.75729 7.30561 6.74175 7.47033L6.68685 7.89845L8.66057 8.14185L9.04613 5.1134C9.0632 4.98087 9.10647 4.85288 9.17346 4.73676C9.24046 4.62063 9.32986 4.51863 9.43658 4.43659C9.6521 4.27089 9.92504 4.19654 10.1954 4.22987C10.4657 4.26321 10.7112 4.4015 10.878 4.61434C11.0447 4.82718 11.119 5.09712 11.0846 5.36478L10.6986 8.39042L11.1103 8.4407C11.2761 8.46094 11.4273 8.54422 11.5318 8.67294C11.6363 8.80166 11.6861 8.96572 11.6706 9.13044L10.4136 18.9763C10.388 19.1404 10.2982 19.2882 10.1635 19.3875C10.0289 19.4869 9.86024 19.5299 9.69416 19.5072L2.78288 18.6629C2.70216 18.6539 2.62414 18.629 2.55345 18.5895C2.48276 18.55 2.42085 18.4969 2.37139 18.4332C2.32192 18.3696 2.28592 18.2967 2.26551 18.2189C2.2451 18.1411 2.24071 18.06 2.25259 17.9804L3.52084 8.13293C3.52879 8.05348 3.55266 7.97636 3.59105 7.90606C3.62945 7.83577 3.68159 7.77372 3.74444 7.72354C3.8073 7.67336 3.87959 7.63605 3.95709 7.61381C4.0346 7.59157 4.11576 7.58484 4.19583 7.59401ZM4.90392 17.9276L7.93044 18.299L8.05311 17.3094L5.02659 16.938L4.90392 17.9276ZM4.00315 12.7368L10.1128 13.4717L10.5033 10.4168L4.39164 9.6679L4.00315 12.7368Z" fill="#D31E56"/>
<path d="M10.3524 3.25852C10.2866 3.25123 10.2231 3.23112 10.1653 3.19934C10.1076 3.16756 10.0568 3.12475 10.0159 3.07338C9.97502 3.02201 9.94486 2.9631 9.92716 2.90006C9.90946 2.83701 9.90456 2.77108 9.91277 2.70608L10.0542 1.66522C10.0625 1.60096 10.0836 1.53891 10.1161 1.48262C10.1487 1.42633 10.1921 1.37691 10.2439 1.33717C10.2957 1.29743 10.3548 1.26816 10.418 1.25102C10.4811 1.23388 10.5471 1.22922 10.612 1.23729C10.6769 1.24535 10.7395 1.266 10.7963 1.29805C10.853 1.3301 10.9028 1.37293 10.9428 1.42408C10.9828 1.47523 11.0122 1.5337 11.0293 1.59617C11.0465 1.65863 11.051 1.72386 11.0427 1.78812L10.9012 2.82898C10.8842 2.9571 10.8172 3.07371 10.7147 3.15394C10.6122 3.23418 10.4821 3.2717 10.3524 3.25852Z" fill="#D31E56"/>
<path d="M11.6989 4.01124C11.6181 3.90805 11.5819 3.77734 11.5982 3.64757C11.6144 3.51781 11.6818 3.3995 11.7856 3.31841L12.6223 2.6765C12.6726 2.6289 12.7324 2.59223 12.7978 2.56885C12.8633 2.54547 12.9329 2.5359 13.0022 2.54075C13.0715 2.54561 13.139 2.56478 13.2003 2.59704C13.2616 2.62929 13.3153 2.67392 13.3581 2.72804C13.4008 2.78216 13.4316 2.84457 13.4485 2.91126C13.4654 2.97795 13.4679 3.04744 13.456 3.11525C13.4441 3.18307 13.418 3.2477 13.3793 3.30499C13.3407 3.36229 13.2904 3.41097 13.2316 3.44791L12.3981 4.11224C12.2932 4.19143 12.1612 4.2266 12.0305 4.21012C11.9643 4.2015 11.9006 4.17937 11.8435 4.14514C11.7865 4.11091 11.7372 4.06532 11.6989 4.01124Z" fill="#D31E56"/>
<path d="M8.4496 3.75973C8.31848 3.74388 8.19906 3.67763 8.1171 3.57527L7.47106 2.74901C7.40505 2.64585 7.38021 2.52197 7.40139 2.40145C7.42256 2.28092 7.48823 2.17236 7.58563 2.09687C7.68303 2.02138 7.8052 1.98435 7.9284 1.99298C8.0516 2.00161 8.16702 2.05528 8.25222 2.14356L8.90636 2.96582C8.96718 3.04356 9.00316 3.13754 9.00972 3.23577C9.01629 3.334 8.99313 3.43202 8.94321 3.51734C8.89329 3.60265 8.81887 3.67139 8.72944 3.71477C8.64001 3.75816 8.53963 3.77423 8.4411 3.76093L8.4496 3.75973Z" fill="#D31E56"/>
</g>
<defs>
<clipPath id="clip0">
<rect width="13.1739" height="18" transform="matrix(-0.990096 0.140394 0.140394 0.990096 13.1196 0.864746)" fill="white"/>
</clipPath>
</defs>
</svg>
