<svg width="16" height="16" viewBox="0 0 16 16" fill="none" xmlns="http://www.w3.org/2000/svg">
<path d="M6.55296 13.1123C7.90209 13.1123 9.14844 12.7011 10.1892 12.0072L13.9539 15.772C14.2496 16.0675 14.7379 16.0675 15.0461 15.772L15.7785 15.0396C16.074 14.7441 16.074 14.2558 15.7785 13.9474L12.0009 10.1955C12.6946 9.15478 13.1059 7.90844 13.1059 6.5593C13.1059 2.94875 10.1635 0.00634766 6.55296 0.00634766C2.94241 0.00634766 0 2.94875 0 6.5593C0 10.1697 2.92956 13.1123 6.55296 13.1123ZM6.55296 2.57613C8.75012 2.57613 10.5361 4.36213 10.5361 6.5593C10.5361 8.75647 8.75012 10.5425 6.55296 10.5425C4.35579 10.5425 2.56979 8.75647 2.56979 6.5593C2.56979 4.36213 4.35579 2.57613 6.55296 2.57613Z" fill="#670631"/>
</svg>
