<svg width="142" height="29" viewBox="0 0 142 29" fill="none" xmlns="http://www.w3.org/2000/svg">
<path d="M62.9907 24.2975V3.90869H70.1561V12.3769L79.4712 3.90869H88.9165L79.3409 11.9209L89.6982 24.2975H81.4905L74.5857 15.8945L70.1561 19.6075V24.2975H62.9907Z" fill="#E66622"/>
<path d="M91.4568 21.7566C88.721 19.6722 87.353 17.1317 87.353 14.0701C87.353 11.0737 88.721 8.53319 91.4568 6.38356C94.1927 4.29908 97.5149 3.25684 101.488 3.25684C105.527 3.25684 108.849 4.29908 111.455 6.38356C114.06 8.46805 115.363 11.0085 115.363 14.0701V15.2426H94.8441C95.1047 16.5454 95.8864 17.718 97.124 18.6299C98.3617 19.5419 99.8599 19.9979 101.488 19.9979C103.312 19.9979 104.876 19.607 106.179 18.8253C106.7 18.4996 107.09 18.1088 107.416 17.6528H115.103C114.516 19.0208 113.67 20.1933 112.562 21.2355C109.826 23.6457 106.179 24.8182 101.554 24.8182C97.5149 24.8834 94.1276 23.8411 91.4568 21.7566ZM95.0396 11.9205H107.612C107.351 10.8782 106.634 9.96627 105.527 9.24973C104.42 8.53319 103.052 8.14235 101.423 8.14235C99.7948 8.14235 98.4268 8.53319 97.3195 9.24973C96.2121 9.90113 95.4304 10.8131 95.0396 11.9205Z" fill="#E66622"/>
<path d="M141.256 24.2975H132.267L127.642 10.3445H127.023L122.203 24.2975H113.995L122.333 3.90869H132.352L141.256 24.2975Z" fill="#E66622"/>
<path d="M21.0403 28.9222H13.8748V25.1441C5.08093 25.079 0 20.1934 0 14.0051C0 7.81682 5.08093 3.77813 13.8097 3.77813V0H20.9751V3.77813C29.769 3.77813 34.7848 7.75168 34.7848 14.0051C34.7848 20.2586 29.7039 25.079 20.9751 25.079V28.9222H21.0403ZM13.8097 7.49112C9.51046 7.49112 7.55626 10.4224 7.55626 14.0051C7.55626 17.5878 9.51046 20.7146 13.8097 20.7146V7.49112ZM21.0403 7.68654V20.5191C25.2092 20.5191 27.1634 17.5227 27.1634 14.0051C27.0983 10.4876 25.2092 7.68654 21.0403 7.68654Z" fill="#E66622"/>
<path d="M36.2827 10.0969C36.6735 4.75546 42.1453 3.12695 48.3336 3.12695C54.7173 3.12695 59.8634 4.95088 59.8634 10.3575V24.5581H52.698V20.5845H52.4374C52.4374 20.5845 50.8089 25.2095 43.9692 25.2095C39.0837 25.2095 35.501 23.4507 35.501 19.6074C35.501 15.699 39.6048 13.9402 44.0343 13.0934C48.4639 12.1814 52.698 11.9209 52.698 9.64097C52.698 8.01246 51.1346 7.03536 48.3336 7.03536C45.272 7.03536 43.5784 8.01246 43.4481 10.2272H36.2827V10.0969ZM47.0959 15.699C44.816 16.155 42.8618 17.0669 42.8618 18.8909C42.8618 20.5194 44.2949 21.4965 46.5748 21.4965C51.4603 21.4965 52.698 17.0669 52.698 14.0054C51.5254 14.8522 49.1153 15.3082 47.0959 15.699Z" fill="#E66622"/>
</svg>
