<svg width="66" height="74" viewBox="0 0 66 74" fill="none" xmlns="http://www.w3.org/2000/svg">
<g clip-path="url(#clip0)">
<path d="M56.5662 21.6991C48.9764 13.5416 32.9417 16.1713 20.7019 27.6026C8.46204 39.0339 4.66716 54.9197 12.2569 63.0772C14.3949 65.385 17.1742 66.834 20.3812 67.4244C25.5123 68.4441 31.6055 67.3707 37.6452 64.4189C41.2263 62.6479 44.8074 60.2328 48.1212 57.1201C60.3076 45.6888 64.1025 29.803 56.5662 21.6991Z" fill="#FFB200"/>
</g>
<path d="M29.329 55.5366C28.6054 54.8058 27.303 54.7571 26.6276 55.5366C26.5794 55.5853 26.5312 55.634 26.5312 55.634C27.0136 53.3443 23.4439 52.4187 22.8168 54.7571C22.2862 56.6571 23.1545 58.3135 24.7463 59.3365C25.5182 59.8237 26.4829 59.9211 27.3512 59.7263C28.1713 59.5314 28.8466 58.8006 29.3772 58.216C30.0043 57.4853 30.1008 56.3161 29.329 55.5366Z" fill="#FFD400"/>
<path d="M48.7694 51.3469C48.6246 51.3469 48.4799 51.3469 48.3352 51.3956C47.5634 51.152 46.6951 51.1033 45.9715 51.2007C43.7525 51.493 41.7265 52.4674 39.7005 53.393C37.8674 54.2212 38.8322 56.6083 40.4723 56.9006C40.617 57.1441 40.8582 57.3877 41.1477 57.5339C42.9807 58.6056 44.7655 59.2877 46.888 58.6544C48.9141 58.0698 50.3612 56.2185 50.5059 54.1237C50.5059 54.0263 50.5059 53.9289 50.5059 53.8314C50.8436 52.7109 50.2165 51.3469 48.7694 51.3469Z" fill="#F7EED7"/>
<path d="M55.6673 43.9422C55.3297 43.6012 55.1367 43.1627 54.9438 42.7243C54.799 42.5294 54.7026 42.2858 54.6061 42.0422C54.5096 41.7987 54.4614 41.5551 54.4131 41.3115C54.0272 40.3859 53.5448 39.509 53.5448 38.4859C53.5448 38.4372 53.5448 38.4372 53.5448 38.3885C52.6765 36.7809 51.6635 35.3194 50.4576 34.0041C49.9269 31.958 48.721 31.0811 46.8397 30.0093C46.2126 29.6683 45.5855 29.3273 44.9584 29.0837C44.9584 29.0837 44.9584 29.0837 44.9101 29.0837C44.7654 29.035 44.6689 28.9863 44.5242 28.9376C43.9936 27.671 43.0771 26.8428 41.5817 26.8428C40.7134 26.8428 39.7486 27.3299 39.025 28.0607C35.7448 27.8171 32.754 29.035 30.4868 31.4708C30.4386 31.5195 30.3421 31.5682 30.2938 31.617C28.0266 33.2246 27.2066 35.7091 26.29 38.1937C25.9524 39.1193 26.3383 39.85 26.9654 40.2397C26.8207 41.4576 26.7242 42.6755 26.6277 43.8934C26.1453 43.6986 25.5665 43.6499 24.9876 43.9422C22.6722 45.0626 22.2862 47.06 22.8169 49.0574C22.6722 49.3009 22.5757 49.642 22.5757 49.983C22.5274 51.4445 23.6852 52.7111 24.7947 53.5393C24.8429 53.4418 24.9876 53.3444 25.1323 53.4418C25.1806 53.4905 25.2288 53.5393 25.277 53.588C25.3735 53.6854 25.47 53.7341 25.5665 53.8316C25.5665 53.8316 25.5665 53.8803 25.6147 53.8803C25.7112 53.929 25.7594 54.0264 25.8559 54.0751C26.0971 54.4649 26.5312 54.8546 26.9654 55.0007C27.0619 55.1956 27.1101 55.3905 27.2066 55.6341C27.3031 55.8289 27.3995 56.0725 27.496 56.2674C27.5925 55.9751 27.7372 55.6828 27.8819 55.4879C27.8337 55.4879 27.8337 55.4879 27.7854 55.4879C27.5925 55.4392 27.6407 55.1469 27.7854 55.0982H27.8337H27.8819C28.1231 55.1469 28.3643 55.2443 28.6055 55.3418C28.6537 55.3418 28.7502 55.3905 28.7502 55.4392C28.8949 55.5366 28.9914 55.6341 29.1361 55.7315C29.3291 55.9264 29.4738 56.2187 29.6185 56.4622C29.7632 56.6571 29.8597 56.852 29.9079 57.0955C29.9562 57.3391 29.5703 57.4366 29.522 57.193C29.4738 56.9494 29.3291 56.7058 29.1844 56.4622C29.1844 56.7545 29.1844 57.0468 29.1844 57.3391C29.1844 57.4366 29.1361 57.4853 29.0396 57.534C29.0396 57.5827 29.0396 57.6801 29.0396 57.7289C29.0396 57.9237 29.1361 58.5083 28.8467 58.6057C28.8949 58.7032 28.9914 58.8006 29.0396 58.898C29.522 59.6288 30.1009 60.3108 30.6798 60.9441C32.7058 62.0159 34.2976 63.7697 36.2754 64.9389C38.3014 66.108 40.6169 67.1798 42.9324 67.7644C46.4055 67.9593 49.8305 66.4978 52.1942 63.7697C52.1942 63.7209 52.1942 63.6722 52.2424 63.6235C52.7248 62.9415 52.966 62.162 53.4484 61.48C53.9307 60.798 54.3649 60.0185 54.799 59.2878L54.8473 59.2391C55.9085 56.3648 56.2944 53.1008 56.2944 50.1778C56.4391 48.1318 56.198 46.037 55.6673 43.9422ZM49.6375 56.9007C47.6115 58.6057 44.8137 59.4826 42.3535 58.1186C41.8229 57.8263 41.5334 57.3878 41.437 56.9494C39.5557 57.7776 37.9638 54.7084 39.8451 53.3931C41.3405 52.3701 43.1253 51.9316 44.8137 51.4445C46.4055 51.006 48.1904 50.7137 49.5893 51.7368C50.6988 52.5649 50.6023 53.929 49.9269 54.7572C50.3611 55.4879 50.2646 56.4135 49.6375 56.9007Z" fill="#A7572A"/>
<path d="M52.146 32.4451C52.0013 31.958 51.9048 31.4708 51.8083 30.9837C51.7601 30.7401 51.6636 30.4478 51.5671 30.2042C51.5671 30.2042 51.3259 29.6196 51.4706 29.9119C51.3259 29.6196 51.2777 29.2786 51.2294 28.9863C51.133 28.8889 50.9883 28.8401 50.8918 28.7914C50.6988 27.5735 49.927 26.3556 49.4929 25.5274C47.8527 22.3609 45.1032 20.3148 42.4018 18.1713C39.9416 16.2226 37.5297 13.8842 34.153 15.3457C33.96 15.4432 33.7671 15.5406 33.5741 15.638C33.4294 15.4432 33.2847 15.2483 33.14 15.1021C32.0305 13.9817 30.8728 13.9817 29.715 14.5663C29.2809 14.3227 28.7985 14.1765 28.2196 14.1765C27.4961 14.1278 26.9654 14.4201 26.4831 14.9073C26.1454 14.7611 25.7595 14.7124 25.3253 14.8098C24.6018 14.956 23.8299 14.9073 23.1546 15.1021C22.431 15.297 21.8039 15.7355 21.0321 15.8816C19.0061 16.3201 18.1378 18.561 16.353 19.243C15.147 19.6815 14.8576 20.9481 15.1952 21.9224C14.8093 22.2634 14.5681 22.7993 14.5681 23.3352C14.5681 23.4326 14.5681 23.4813 14.5681 23.5788C13.4104 25.4787 12.8798 27.4761 13.0245 30.0093C13.2175 33.2246 12.8315 36.4399 12.8315 39.6551C12.8315 43.114 12.9763 46.037 14.5681 49.2035C14.9058 49.8368 15.2917 50.4702 15.6776 51.0548C15.7741 52.7111 16.16 54.4649 17.6072 55.4392C17.8484 55.5854 18.0895 55.7315 18.379 55.8777C18.7649 56.6571 19.1508 57.3879 19.5849 58.1186C20.8874 60.3108 23.8299 58.4109 22.9134 56.17C23.0581 56.4135 23.0581 56.2674 22.9134 55.7802C22.8652 55.4392 22.8169 55.0982 22.8169 54.7085C23.444 53.4906 23.2028 52.1265 22.7205 50.7137C22.4793 50.0804 22.0451 49.6907 21.5627 49.4958C21.7557 49.2523 21.9004 48.96 22.0451 48.6677C23.0099 46.7677 23.2028 44.7704 24.457 43.114C24.5535 43.114 24.65 43.114 24.7465 43.114C26.2419 43.114 26.8207 41.7012 26.5313 40.5808C26.9172 39.7526 27.1102 38.8757 27.1102 37.7065C27.1102 36.4399 26.0489 35.7091 24.9877 35.8553C25.7112 34.5887 26.3383 33.2733 26.9654 31.958C27.689 30.3503 26.1936 28.8889 24.9394 28.9863C24.9394 28.7914 24.9877 28.5478 24.9877 28.353C26.3383 27.8171 27.689 27.2812 29.0397 26.8915C29.1362 26.8915 29.2327 26.8428 29.3291 26.7941C31.4034 26.3556 33.2365 27.6709 35.2625 27.6709C36.7579 27.6709 38.4462 28.0607 39.7004 26.9889C39.9416 26.7941 40.1346 26.5505 40.3275 26.3069C41.5817 26.6966 42.7395 27.2812 43.8489 28.012C44.5725 28.4504 45.2479 29.0837 45.9232 29.717C46.0679 29.8145 46.2126 29.8632 46.3091 29.9606C45.9232 29.6683 46.5021 30.058 46.5503 30.1068C46.7433 30.2042 46.888 30.3503 47.0809 30.4478C47.4186 30.6426 47.7563 30.7888 48.0939 30.9349C48.6246 31.1785 48.914 31.6657 49.0105 32.2016C49.107 32.299 49.2034 32.3964 49.2999 32.4451C49.3481 32.4939 49.3964 32.5426 49.4446 32.5913C50.1682 33.322 51.4224 33.322 52.146 32.5913C52.146 32.4939 52.146 32.4939 52.146 32.4451Z" fill="#D01F50"/>
<path d="M35.6965 43.5525C36.1307 43.6012 36.6613 43.6499 37.1919 43.6012C37.8673 43.5525 38.4944 43.455 39.025 43.3089H39.0732C39.1215 43.3576 39.1697 43.3576 39.1215 43.455C39.025 43.6012 38.9285 43.6986 38.832 43.8448C38.7356 43.9422 38.6391 43.9909 38.5909 44.0396C38.3014 44.2345 38.012 44.4294 37.6743 44.5268C37.4331 44.5755 37.5296 44.9652 37.7708 44.9165C37.819 44.9165 37.9155 44.8678 37.9638 44.8678H38.012C38.2049 44.7704 38.4461 44.6729 38.6391 44.5755C38.6873 44.5755 38.6873 44.5755 38.7356 44.5268C40.2792 43.8448 41.6299 42.9192 41.9676 41.1654C42.1605 40.532 42.1605 39.85 42.1123 39.168C42.1123 39.1193 42.1123 39.1193 42.1123 39.0706C42.1123 38.7295 42.0158 38.486 41.8228 38.2911C41.6781 37.9988 41.4369 37.8039 41.0993 37.7552C41.0993 37.7552 41.051 37.7552 41.0028 37.7552C41.0028 37.7552 40.9545 37.7552 40.9063 37.7552C40.9063 37.7552 40.8581 37.7552 40.8581 37.7065C40.8098 37.6578 40.7134 37.6578 40.6651 37.7065C40.3757 37.6578 40.038 37.6091 39.5556 37.5603C39.1215 37.5116 38.5909 37.4629 38.012 37.5116C37.7226 37.5116 37.4331 37.5116 37.1437 37.5603C36.8543 37.5603 36.5648 37.6091 36.2272 37.6578C35.9377 37.7065 35.6483 37.7552 35.3589 37.8526C35.0694 37.9501 34.78 37.9988 34.5388 38.1449C34.2976 38.2424 34.0082 38.3398 33.8152 38.486C33.574 38.6321 33.3811 38.7295 33.1881 38.8757C32.9952 39.0218 32.8505 39.1193 32.7058 39.2654C32.561 39.3629 32.4646 39.509 32.3681 39.6064C32.1751 39.8013 32.0787 39.8987 32.0787 39.8987C32.0304 39.9475 31.9822 40.0449 32.0787 40.1423C32.1269 40.2398 32.2716 40.2398 32.3198 40.191H32.3681C32.3681 40.191 32.4646 40.0936 32.6575 39.9475C32.754 39.8987 32.8505 39.8013 32.9952 39.7039C33.1399 39.6064 33.3329 39.5577 33.4776 39.4603C33.6705 39.3629 33.8635 39.3141 34.1047 39.2167C34.2976 39.1193 34.5871 39.1193 34.8282 39.0218C35.0694 38.9731 35.3589 38.9731 35.6001 38.9244C35.8413 38.9244 36.1307 38.9244 36.4201 38.9244C36.7096 38.9244 36.9507 38.9244 37.2402 38.9731C37.4814 39.0218 37.7708 39.0218 38.012 39.0706C38.1085 39.0706 38.1567 39.1193 38.2532 39.1193C38.3979 39.168 38.4944 39.2167 38.6391 39.2654C39.025 39.3629 39.3144 39.509 39.6521 39.7039C39.8451 39.9475 40.038 40.191 40.1827 40.4833C40.4239 40.9705 40.4239 41.5551 39.9415 41.8474C39.8451 41.8961 39.7003 41.9448 39.6039 41.8961C38.9285 41.6038 38.1085 41.3115 37.1919 41.3602C35.986 41.4089 34.9247 42.0423 34.2494 42.5294C33.574 42.8704 32.9952 42.9679 32.2234 43.114C31.9822 43.1627 32.0787 43.5038 32.2716 43.5038C32.8022 43.5038 33.3329 43.455 33.8152 43.4063C33.8635 43.4063 33.9117 43.455 33.9117 43.5038V43.5525C33.574 43.7473 33.2846 43.9909 33.0917 44.2345C32.9469 44.3806 33.1399 44.6242 33.3329 44.5268C33.9117 44.2345 34.4906 43.8448 35.1177 43.6986C35.2142 43.6012 35.4553 43.5525 35.6965 43.5525Z" fill="#6D0B2E"/>
<path d="M41.1476 47.4498C41.0029 47.3523 41.0029 47.1087 40.9546 46.9139C40.9064 46.719 40.8581 46.6216 40.7134 46.5729C40.6652 46.5242 40.6169 46.5242 40.5687 46.5242C39.7969 46.7677 39.4592 47.742 39.3145 48.4728C39.2663 48.7163 39.6039 48.8138 39.7004 48.5702C39.8451 48.1805 39.9898 47.9369 40.4722 47.8882C40.7134 47.8882 40.9546 47.9856 41.1958 48.0343C41.6782 48.3266 42.1606 48.2779 42.643 48.3266H42.7394C43.0771 48.2779 43.4148 48.3266 43.7524 48.424C43.9936 48.4728 44.3313 48.4728 44.6207 48.4728C44.8137 48.5702 44.9584 48.5215 45.0549 48.424C45.3443 48.2779 45.3443 47.7908 45.0549 47.6933C44.8137 47.401 44.5243 47.2062 44.0901 47.1575C43.656 47.1087 43.2701 47.2062 42.9324 47.3036C42.7877 47.3523 42.643 47.401 42.4982 47.4498C42.3053 47.4985 42.1123 47.5472 41.9194 47.5959C41.5817 47.5959 41.3405 47.5959 41.1476 47.4498Z" fill="#6D0B2E"/>
<path d="M37.3366 59.3363L37.3848 59.385C37.4813 59.6286 37.819 59.4337 37.7225 59.1901C37.6743 59.0927 37.5778 58.9953 37.4813 58.8979C37.3848 58.8004 37.3366 58.6543 37.2401 58.5568C37.1437 58.4107 37.0954 58.3133 36.9989 58.1671C36.9989 58.1184 36.9989 58.0697 36.9507 58.021C36.9025 57.9235 36.9025 57.8748 36.8542 57.7774C36.7577 57.2415 36.6613 56.6082 37.1437 56.2185C37.5296 55.9262 38.1084 56.1698 38.5908 56.462C38.7838 56.7543 39.3144 57.4851 40.2792 58.2645C40.5686 58.5081 40.9545 58.8004 41.3404 59.044C41.5334 59.1414 41.7746 59.2876 41.9675 59.385C42.2087 59.4824 42.4017 59.5799 42.6429 59.726C42.884 59.8235 43.1252 59.9209 43.4147 60.0183C43.6559 60.1157 43.9453 60.1645 44.2347 60.2132C44.5242 60.2619 44.8136 60.3106 45.103 60.3106C45.3925 60.3593 45.6819 60.3106 45.9713 60.3106C46.2607 60.3106 46.5502 60.2619 46.8396 60.2132L47.0326 60.1645H47.0808H47.1773L47.2738 60.1158L47.6597 60.0183C47.8044 59.9696 47.9009 59.9696 48.0456 59.9209C48.1903 59.8722 48.335 59.8235 48.4797 59.726C48.7692 59.6286 49.0103 59.4337 49.2515 59.2876C49.7339 58.9953 50.1198 58.6056 50.4575 58.1671C50.6022 57.9722 50.7469 57.7287 50.8916 57.5338C50.9881 57.2902 51.1328 57.0954 51.1811 56.9005C51.2776 56.7056 51.3258 56.5108 51.374 56.3159C51.4223 56.121 51.4705 55.9262 51.5188 55.78C51.567 55.6339 51.6635 55.5364 51.7117 55.5852C51.8564 55.6826 51.8564 55.9262 51.8564 56.121C51.8564 56.3159 51.8082 56.5108 51.8564 56.7543C51.9047 56.9492 52.1459 56.9979 52.2423 56.8031C52.3388 56.5595 52.3388 56.3159 52.4353 56.0723C52.4835 55.9262 52.4835 55.7313 52.5318 55.5852C52.58 55.439 52.58 55.2441 52.58 55.098C52.58 55.0493 52.58 55.0493 52.58 55.0006C52.58 53.9775 52.5318 52.9545 52.387 51.9315C52.2906 51.2007 51.9529 50.5187 51.6152 49.8367C51.567 49.6418 51.4705 49.4469 51.3258 49.2521C51.2776 49.1546 51.2293 49.0572 51.1811 49.0085V48.9598C51.1811 48.9111 51.1328 48.9111 51.1328 48.9111C51.1328 48.9111 51.1328 48.9111 51.1328 48.8624C51.0364 48.7649 50.8434 48.8136 50.8434 48.9598C50.7952 49.0085 50.7469 49.1546 50.8434 49.2034C50.8916 49.2521 50.8916 49.3008 50.9399 49.3008C51.1811 50.129 51.374 50.9084 51.6152 51.7366C51.6152 51.834 51.6152 51.9315 51.6152 52.0289C51.6152 52.2238 51.6152 52.4673 51.6152 52.6622L51.567 52.6135V52.5648C51.4705 52.3212 51.374 52.0289 51.1811 51.7366C50.9881 51.4443 50.6987 51.152 50.361 50.9084C50.0234 50.6648 49.5892 50.47 49.1551 50.3238C48.7209 50.1777 48.2385 50.129 47.7079 50.0803C47.4667 50.0803 47.2255 50.0803 46.9843 50.0803C46.8396 50.0803 46.7431 50.0803 46.5984 50.0803L46.2607 50.129C45.7301 50.1777 45.2477 50.2751 44.7654 50.3725C43.7523 50.6161 42.7876 50.9571 41.9675 51.4443C41.0992 51.8827 40.3756 52.4186 39.7968 52.9545C39.7003 53.0032 39.6521 53.1006 39.6038 53.1494C39.5556 53.1494 39.5556 53.1494 39.5073 53.1981C39.4109 53.2955 39.3626 53.3929 39.2179 53.4904C39.1214 53.4904 39.0732 53.5391 38.9767 53.5878C38.9767 53.5878 38.4461 54.2211 38.012 54.416C37.8672 54.4647 37.7708 54.4647 37.626 54.416C37.1919 54.2211 36.9989 53.9288 36.9989 53.4904C37.1437 51.9802 37.3848 50.4213 38.2049 49.1059V49.0572C38.2531 49.0085 38.2531 49.0085 38.3014 48.9598C38.4461 48.7649 38.1084 48.5701 37.9637 48.7649C36.7577 50.4213 35.8412 52.0776 35.6965 54.1724C35.6 56.0723 35.8895 57.9235 37.3366 59.2876C37.1919 59.3363 37.2884 59.3363 37.3366 59.3363ZM49.1068 57.0466C48.8174 57.2415 48.528 57.4851 48.1903 57.6312C48.0938 57.68 47.9973 57.7287 47.9491 57.7774C47.8526 57.8261 47.7561 57.8261 47.7079 57.8748C47.6114 57.9235 47.5632 57.9235 47.4667 57.9722C47.3702 58.021 47.2255 58.021 47.129 58.0697L46.7914 58.1671H46.6949H46.6467L46.5019 58.2158C46.309 58.2645 46.0678 58.3133 45.8748 58.3133C45.6819 58.3133 45.4407 58.362 45.2477 58.362C45.0548 58.362 44.8136 58.362 44.6206 58.3133C44.4277 58.2645 44.1865 58.2645 43.9935 58.2158C43.8006 58.1671 43.5594 58.1184 43.3664 58.0697C43.1735 58.021 42.9323 57.9722 42.7393 57.9235C42.5464 57.8748 42.3534 57.7774 42.1605 57.7287C44.8136 57.9235 47.0808 57.6799 49.4927 56.5595C49.5892 56.5108 49.6374 56.4621 49.7339 56.4133C49.7822 56.3646 49.8304 56.3646 49.8786 56.3646C49.7822 56.462 49.6857 56.6082 49.5892 56.7056C49.348 56.8031 49.2515 56.9005 49.1068 57.0466ZM42.3052 52.5648C42.6911 52.3699 43.077 52.175 43.5111 52.0289C43.9453 51.8827 44.3794 51.7366 44.8136 51.6392C45.2477 51.5417 45.7301 51.493 46.1643 51.4443L46.5019 51.3956H46.8396C47.0326 51.3956 47.2738 51.3956 47.4667 51.3956C48.2868 51.4443 49.0586 51.5904 49.541 51.9315C49.6374 51.9802 49.6857 52.0289 49.7822 52.1263C49.8304 52.175 49.8786 52.175 49.8786 52.2238C49.9269 52.2725 49.9751 52.3212 50.0234 52.3699C50.2645 52.6622 50.361 53.1006 50.3128 53.4904C50.3128 53.5391 50.3128 53.5391 50.3128 53.5878C50.3128 53.6365 50.2645 53.734 50.2163 53.734C50.1681 53.8314 50.1681 53.8314 49.9751 53.8314C49.7339 53.8314 49.541 53.8314 49.348 53.8801C49.2998 53.8801 49.2998 53.8801 49.2515 53.8801C49.1551 53.8801 49.0586 53.8801 49.0103 53.8801C48.9139 53.8801 48.8174 53.8801 48.7691 53.8801H48.7209C47.2738 54.0262 45.8266 54.0262 44.4277 54.2698C42.8358 54.5621 41.3886 55.2929 39.845 55.6339C39.7485 55.6826 39.6038 55.7313 39.5073 55.78C39.3144 55.6826 39.1214 55.5364 38.9767 55.3903C38.9285 55.3416 38.9285 55.2929 38.8802 55.2441C38.9767 55.098 39.0732 54.9519 39.2179 54.8544C39.5073 54.5621 39.845 54.2211 40.3274 53.8314C40.858 53.3929 41.5334 52.9545 42.3052 52.5648Z" fill="#6D0B2E"/>
<path d="M34.78 50.324C34.7318 50.3727 34.7318 50.4214 34.6835 50.4701C34.0564 50.9573 33.8152 51.688 33.5258 52.4188C33.3328 52.9059 33.0917 54.3675 33.6705 54.7085C33.767 54.7572 33.9117 54.7572 33.9599 54.611C34.2494 54.1726 34.2011 53.3931 34.2976 52.9059C34.3941 52.1265 34.6835 51.4444 35.0212 50.7624C35.1177 50.7137 35.1177 50.6163 35.1177 50.5675C35.2624 50.2752 34.8765 50.0804 34.78 50.324Z" fill="#6D0B2E"/>
<path d="M53.0623 53.1982C53.1105 53.4418 53.4482 53.3443 53.4964 53.1495C53.5446 52.6623 53.5929 52.1751 53.5929 51.6879C53.5929 51.2495 53.2552 50.9572 53.014 50.6649C52.9658 50.5674 52.9175 50.47 52.8693 50.3726C52.7246 50.129 52.3869 50.3238 52.5316 50.5674C52.7728 51.0059 52.9175 51.3469 53.014 51.8341C52.9658 52.2725 52.9175 52.7597 53.0623 53.1982Z" fill="#6D0B2E"/>
<path d="M57.3075 50.0804C57.3075 49.7394 57.3075 49.3984 57.3075 49.0573C57.2593 48.7163 57.211 48.3753 57.1628 48.0343C56.7769 46.3779 56.2463 44.7216 55.2332 43.2114C55.1368 43.0652 55.0403 42.9191 54.9921 42.7242C54.6061 42.0909 54.4132 41.3115 54.2685 40.5807C54.172 40.191 54.0273 39.7525 53.9308 39.3628C53.5449 37.9987 53.0625 36.8296 53.0143 35.5142V35.4655C52.7248 34.0527 52.966 32.5912 52.4354 31.1785C52.2425 30.6913 51.9048 29.717 51.7601 29.2298C50.8918 26.6966 49.8305 24.212 47.9975 21.8249C45.5855 18.6584 43.463 16.8072 39.5557 15.297C37.7709 14.5662 34.7801 14.5175 34.4907 14.4688C28.702 12.0817 21.3698 13.1534 17.2695 16.9533C14.7611 19.2917 13.0245 22.2147 12.3974 25.6735C11.8668 28.6939 11.7703 31.5682 12.3009 34.5886C10.8538 38.1449 11.4326 46.4754 14.0857 51.006C15.1952 53.4905 16.6906 55.7802 18.379 57.875C19.8744 59.7262 21.7074 61.0903 23.5887 62.503C28.9915 66.4978 33.3812 62.9902 30.1492 57.0468C29.9562 56.6571 29.715 56.2673 29.4256 55.8289C29.3774 55.7315 29.2809 55.634 29.1844 55.5853C29.3291 56.5596 29.3291 57.534 28.895 58.4596C28.3644 59.6288 27.1102 59.8724 26.0489 59.3852C24.7465 58.8006 24.3123 57.2904 24.4088 56.0238C24.5053 55.1469 24.9394 54.3187 25.47 53.6367C24.5535 52.7111 23.3958 51.347 23.2993 50.5188C23.0581 48.424 23.2511 46.719 24.457 44.819L24.5053 44.7703C24.5535 44.7216 24.5535 44.6729 24.6017 44.6242C24.6017 44.5754 24.65 44.5754 24.65 44.5267C25.0359 44.0396 25.6148 44.0396 26.2419 44.137C26.3866 44.2344 26.5795 44.3319 26.7725 44.3806C27.2066 44.4293 27.2549 43.8447 27.2066 43.455C27.3031 42.7242 27.3031 41.7986 27.1584 40.6781C26.0971 30.7887 36.5167 28.4016 41.0511 28.4504C42.8842 28.4504 44.9102 29.2785 46.7433 30.4477C46.7915 30.4964 46.7915 30.5452 46.888 30.5939C47.9975 31.3246 49.0105 32.2502 49.8305 33.322C50.4094 34.0527 50.8435 34.8322 51.2777 35.6117C51.3742 35.9527 51.3742 36.3424 51.2777 36.6834C51.2294 36.7321 51.2294 36.7808 51.1812 36.8296C51.0365 37.0731 50.7471 37.1219 50.4576 37.1219H50.4094C50.3611 37.1219 50.2647 37.1219 50.2164 37.1219C49.7823 37.1219 49.2999 37.1219 48.914 37.1706C48.4798 37.2193 48.0939 37.268 47.7563 37.3654C47.6115 37.4142 47.4186 37.4142 47.2739 37.4629C47.1292 37.5116 47.0327 37.5116 46.9362 37.5603C46.7433 37.609 46.6468 37.6577 46.6468 37.6577C46.5503 37.7065 46.5021 37.7064 46.4056 37.7552C46.1162 37.95 45.9232 38.2423 45.9232 38.5833V38.6321C45.8267 38.9731 45.8267 39.2654 45.8267 39.6064C45.8267 39.8987 45.8267 40.2397 45.8267 40.532C45.8267 41.0679 45.875 41.555 46.0197 41.896C46.3091 42.7242 46.7915 43.455 47.3221 44.1857C47.4668 44.3806 47.6598 44.6242 47.8045 44.819C47.9975 45.16 48.2869 45.4523 48.5281 45.7446C48.5281 45.7446 48.5281 45.7934 48.5763 45.7934C48.7693 46.2318 48.9622 46.8164 48.6728 47.06C48.1904 47.1574 47.6598 47.1087 47.2256 47.3523C46.8397 47.5959 46.7433 47.9856 46.8397 48.3753C46.8397 48.4727 46.9362 48.4727 46.9845 48.5215H47.0327C47.1774 48.5702 47.4186 48.424 47.5633 48.3753C47.7563 48.2779 47.9492 48.1805 48.1422 48.083C48.1904 48.083 48.2387 48.0343 48.2869 48.0343C48.6246 47.9856 48.9622 47.9856 49.2517 47.9369C49.4929 47.7907 49.6858 47.5959 49.734 47.3523C49.7823 46.8651 49.734 46.2805 49.5411 45.8421C49.5411 45.7934 49.4929 45.7446 49.4929 45.6959C49.3481 45.4523 49.1552 45.16 48.9622 44.9165C48.914 44.8677 48.914 44.819 48.8658 44.7703C48.8658 44.7216 48.8175 44.7216 48.7693 44.6729C48.5281 44.3319 48.2869 43.9908 48.0939 43.6498C48.0939 43.6498 48.0939 43.6498 48.0939 43.6011C48.0939 43.455 48.1904 43.455 48.2869 43.5037C48.3351 43.5037 48.3834 43.5524 48.4316 43.5524C48.5763 43.6986 48.7693 43.796 48.9622 43.8934C49.4446 44.137 50.2164 44.2344 50.7471 44.1857C50.94 44.1857 51.0365 43.8447 50.7953 43.796C50.0717 43.6986 49.3481 43.3575 48.7693 42.8704C48.7693 42.8704 48.7693 42.8217 48.721 42.8217C48.721 42.8217 48.5763 42.6755 48.6246 42.6268C48.6728 42.6268 48.6728 42.5781 48.721 42.5781C49.2517 42.6755 49.8305 42.7242 50.5059 42.7242C51.133 42.7242 51.7601 42.6268 52.2907 42.5294C53.159 42.5781 53.8343 42.9678 54.3167 43.6985C54.6061 44.5267 54.8473 45.2575 55.1368 45.8908C56.2945 48.6189 56.198 50.4701 55.7639 53.8803C55.5227 55.9751 54.7991 58.0211 53.8826 59.5313C53.5931 60.0185 53.2072 60.5544 52.8213 61.1877C52.2425 62.1133 51.7118 63.2825 50.9883 64.3055C50.6023 64.7927 50.2164 65.2799 49.6858 65.6696C49.2034 66.0593 48.6246 66.3029 47.9492 66.4978C47.3221 66.6926 46.6468 66.7901 45.9714 66.8875L45.7302 66.9362H45.4891C45.2961 66.9362 45.1514 66.9362 44.9584 66.9362C44.6208 66.9362 44.3313 66.9362 43.9937 66.9362C43.3666 66.8875 42.7395 66.7901 42.1606 66.6926C41.5817 66.5952 41.0511 66.4003 40.5687 66.2055C40.0863 66.0106 39.6522 65.8157 39.2663 65.6696C38.8804 65.4747 38.5427 65.3286 38.2533 65.1824C37.9638 65.0363 37.7226 64.9388 37.5779 64.8901C37.4332 64.8414 37.3367 64.7927 37.3367 64.7927C37.1438 64.744 36.9508 64.7927 36.8543 64.9876C36.7579 65.1824 36.8543 65.426 37.0473 65.4747C37.0473 65.4747 37.3367 65.6209 37.9156 65.9132C38.4462 66.2055 39.218 66.6439 40.231 67.0824C40.7617 67.2772 41.2923 67.5208 41.9194 67.667C42.5465 67.8131 43.2218 67.9593 43.8972 68.008C44.2348 68.0567 44.6208 68.0567 44.9584 68.0567C45.1514 68.0567 45.2961 68.0567 45.4891 68.0567H45.7785H46.0679C46.7915 68.008 47.5151 67.9105 48.2869 67.667C49.0105 67.4721 49.734 67.1311 50.3611 66.6926C50.9883 66.2542 51.5189 65.6696 51.953 65.085C52.3872 64.5004 52.7248 63.9158 53.0143 63.3799C53.3037 62.8441 53.5931 62.3569 53.8826 61.8697C54.1238 61.48 54.3167 61.0903 54.5579 60.7492C54.7026 60.5057 54.8473 60.2134 54.9921 59.9698C55.0403 59.8724 55.1368 59.7262 55.185 59.6288C55.185 59.6288 55.185 59.6288 55.185 59.5801C55.2332 59.4826 55.2332 59.4339 55.2815 59.3365C55.378 59.1416 55.4744 58.9467 55.6192 58.7519C55.6192 58.7032 55.6674 58.7032 55.6674 58.6544C55.6674 58.6057 55.7156 58.6057 55.7156 58.557C56.1015 57.4853 56.5839 56.4135 56.8251 55.2443C57.211 53.588 57.3075 51.9316 57.3557 50.2752C57.3075 50.1778 57.3075 50.1291 57.3075 50.0804ZM39.7004 17.1482C40.7617 17.4892 41.7747 17.9276 42.7877 18.5122C42.9806 18.6584 43.1736 18.7558 43.3183 18.902C39.1698 19.4866 34.9248 20.4609 30.9692 22.0198C32.0305 21.4839 33.0917 20.9968 33.96 20.4122C35.8896 19.1456 37.7226 18.0251 39.7004 17.1482ZM34.973 15.5893C35.8413 15.8328 36.7579 16.0764 37.6262 16.2713H37.6744C36.2272 17.002 34.8766 17.8789 33.4776 18.8533C31.3069 20.4122 28.2679 21.3378 26.2901 23.2377C27.6408 21.3865 29.2327 19.8763 31.2104 18.3661C32.4164 17.5379 33.6706 16.4662 34.973 15.5893ZM31.6928 14.7124C32.1752 14.8098 32.6576 14.956 33.14 15.0534C32.5129 15.5405 31.8858 16.0277 31.2587 16.5149C28.1232 18.9994 25.5665 21.1916 23.637 24.6992C23.5887 24.7966 23.5887 24.8454 23.5405 24.9428C23.2511 24.9428 23.0099 24.9915 22.7204 24.9915C23.7335 22.9941 24.3606 20.8506 25.5665 18.9994C26.9172 16.9046 29.3774 15.6867 31.6928 14.7124ZM26.8207 15.638C26.3866 15.979 25.9524 16.32 25.5183 16.7097C25.47 16.7585 25.4218 16.8072 25.3736 16.8559C25.2771 16.7585 25.1806 16.661 25.0841 16.5636C25.0359 16.4174 24.9394 16.32 24.7465 16.2226C24.6982 16.2226 24.65 16.1739 24.65 16.1739C24.1194 15.7841 23.5405 15.4431 22.9134 15.1508C24.2158 15.0047 25.47 15.0534 26.8207 15.638ZM19.8261 16.661C19.8744 16.6123 19.9226 16.5149 19.9708 16.4662C19.9708 16.4662 20.0191 16.4662 20.0191 16.4174C21.3698 16.4174 22.7687 16.9533 23.9264 17.5379C24.0711 17.6841 24.2641 17.8302 24.3606 17.9764C23.9746 18.561 23.637 19.1456 23.2993 19.8276C23.2993 19.6814 23.2028 19.5353 23.1064 19.4378C22.1416 18.4148 20.8391 18.0251 19.5367 17.6841C19.3437 17.6353 19.1508 17.5866 18.9578 17.5379C19.2473 17.2456 19.5367 16.9533 19.8261 16.661ZM17.6072 18.9507C18.0413 19.0481 18.4754 19.243 18.8614 19.3891C20.1638 19.9737 21.3698 20.7532 22.5757 21.4839C22.5275 21.5814 22.4792 21.6301 22.4792 21.7275H22.431C20.7909 21.3865 19.199 20.8019 17.5107 20.7045C17.0765 20.6558 16.6424 20.6558 16.2082 20.7045C16.6424 20.0712 17.1248 19.4866 17.6072 18.9507ZM15.0987 22.3608C15.6776 22.2634 16.2082 22.2147 16.7871 22.2147C18.5719 22.166 20.1638 22.7993 21.9004 23.189C19.7779 22.8967 17.5589 23.4326 15.4364 23.53C15.147 23.53 14.8576 23.5787 14.5681 23.6274C14.7128 23.189 14.9058 22.7993 15.0987 22.3608ZM14.0857 25.2838C14.9058 25.0889 15.7259 25.0402 16.5941 25.0402C18.1378 24.9915 19.6332 24.5531 21.1768 24.6992C21.0803 24.8941 21.0803 25.0402 21.1286 25.2351C18.8614 25.5761 16.6906 26.2094 14.4716 26.8914C14.2305 26.9402 14.0375 27.0376 13.7963 27.135C13.8928 26.453 13.941 25.8684 14.0857 25.2838ZM13.3139 37.8039C13.4104 37.4629 13.4586 37.1219 13.5069 36.7808C14.9058 35.2706 16.6906 34.004 18.1378 33.0297C19.5367 32.1041 21.0803 31.3246 22.7204 30.74C20.7909 31.6169 19.1026 33.0297 17.5107 34.8322C15.967 36.5373 14.6646 38.4372 13.4104 40.3858C13.2174 40.6294 13.0727 40.9217 12.928 41.214C12.8798 40.0935 12.9763 38.9731 13.3139 37.8039ZM13.7481 34.4425C13.7481 33.9553 13.7481 33.4681 13.7481 32.9323C16.4012 31.081 19.1508 29.6683 22.431 28.9862C23.0581 28.8401 23.6852 28.7427 24.3606 28.6452C21.7074 29.376 19.1508 30.5452 16.8836 32.0554C15.8223 32.7374 14.7611 33.5168 13.7481 34.4425ZM13.5551 45.3062C13.4104 44.7216 13.3139 44.1857 13.2174 43.6011C13.5069 43.2114 13.7963 42.7729 14.0375 42.3832C15.147 40.4833 16.4012 38.6808 17.8001 36.927C19.6332 34.686 21.5627 32.8835 23.9746 31.9092C21.7074 33.2246 19.9708 35.9527 18.4754 37.8526C16.8836 39.85 15.5329 41.9448 14.2305 44.137C13.9893 44.5267 13.7481 44.9165 13.5551 45.3062ZM14.2787 47.0113C14.7611 46.1344 15.3399 45.3062 15.8223 44.478C16.9801 42.5781 18.186 40.7269 19.5367 38.9731C20.9839 37.1219 22.8169 34.004 25.2288 33.0297C25.1806 33.1271 25.1324 33.2246 25.1324 33.322C24.1194 34.1502 23.3475 35.2219 22.5275 36.1962C21.2733 37.7552 20.0191 39.4115 18.9096 41.0679C17.8483 42.6755 17.2212 44.5754 16.4977 46.3779C16.0635 47.4984 15.5329 48.5702 15.0987 49.6419C14.8093 48.8138 14.5199 47.8882 14.2787 47.0113ZM17.1248 53.7341C16.7389 53.1008 16.353 52.4188 16.0153 51.7367C16.353 50.4214 16.9801 49.2035 17.5107 47.8882C18.186 46.2318 18.8131 44.5267 19.6332 42.9191C20.0191 42.1396 21.0803 40.2397 21.611 39.5577C20.9356 40.9217 19.7779 43.5524 19.199 44.9652C18.0895 47.7907 17.4142 50.7624 17.1248 53.7341ZM21.5145 58.4596C21.5145 58.557 21.4662 58.6544 21.4662 58.7032C21.1286 58.4596 20.8391 58.1673 20.5015 57.875C20.5497 56.1699 20.6944 54.4161 20.9839 52.8572C21.0803 52.2726 21.5627 50.9086 21.8521 50.3727C22.0933 50.9086 22.1898 51.9803 22.5757 52.4188C23.0099 54.3187 21.9004 56.6084 21.5145 58.4596ZM23.5405 43.0652C23.0581 43.6011 22.624 43.9421 22.3345 44.6242C21.9004 45.6472 21.611 46.3292 21.2733 47.7907C20.8874 49.6419 20.0191 51.347 19.6814 53.1982C19.4885 54.2213 19.1026 55.0007 19.0061 56.1212C18.8131 55.9263 18.6684 55.7315 18.4754 55.4879C18.6202 52.6136 19.1026 49.8368 19.9226 47.06C20.5497 44.9652 21.3698 43.114 22.2863 41.1653C22.624 40.4346 24.6982 38.5346 25.5183 37.5603C25.2289 39.1679 25.7112 42.1396 25.7112 42.1396C25.7112 42.1396 24.5053 42.0422 23.5405 43.0652ZM21.4662 27.6222C19.0061 28.2068 16.6906 29.035 14.6164 30.4477C14.3269 30.6426 14.0375 30.8862 13.7481 31.081C13.7481 30.6913 13.7481 30.3016 13.7481 29.9118C13.7481 29.5221 13.7481 29.1324 13.7481 28.7914C14.3269 28.5478 14.954 28.3529 15.5811 28.1581C17.7036 27.476 19.8261 26.8914 22.0451 26.6479C23.9264 26.4043 25.856 26.453 27.7373 26.453C28.1714 26.453 28.5573 26.453 28.9432 26.5017C26.3866 26.5991 23.8782 27.0376 21.4662 27.6222ZM28.8467 24.6018C28.7985 24.6018 28.7503 24.6018 28.702 24.6018C31.5481 23.2377 34.6836 22.2634 37.9156 21.5814C37.8191 21.6301 37.7226 21.6301 37.6744 21.6788C35.6966 22.5557 33.96 23.871 32.3682 25.3325C31.2587 24.9428 30.1492 24.6505 28.8467 24.6018ZM34.3942 26.3556C34.3942 26.3556 34.3459 26.3556 34.3459 26.3068C34.1047 26.2094 33.9118 26.1607 33.6706 26.112C34.8283 25.0402 36.0825 24.1146 37.4332 23.3352C39.6522 22.0685 42.1606 21.3865 44.5243 20.5096C44.669 20.4609 44.7655 20.3635 44.8619 20.266C45.2479 20.7532 45.5855 21.2891 45.9714 21.7762C46.0197 21.8249 46.0679 21.9224 46.0679 21.9711C44.2348 21.9224 42.5465 22.1172 40.8581 22.8967C38.9286 23.7736 36.9026 24.7479 35.2625 26.1607C35.0213 26.2094 34.6836 26.3068 34.3942 26.3556ZM40.1828 24.9428C40.3758 24.8454 40.617 24.7479 40.8099 24.6505C42.3535 23.871 43.8007 23.53 45.5373 23.53C46.0197 23.53 46.5503 23.53 47.0809 23.4813C47.3704 23.871 47.6598 24.2608 47.9492 24.6505C47.1774 24.6505 46.3573 24.6992 45.5855 24.6992C43.9454 24.6992 41.9676 24.6505 40.1828 24.9428ZM44.9584 26.3068C45.1031 26.3068 45.2479 26.3068 45.3443 26.3068C46.3573 26.3068 47.4186 26.2581 48.4316 26.2581C48.8175 26.6479 49.1552 27.0863 49.4929 27.5735C47.9975 27.0863 46.5021 26.5991 44.9584 26.3068ZM50.3611 31.2759C49.8305 30.4964 49.3964 29.6195 48.8658 28.8888C49.1552 29.035 49.4446 29.2298 49.734 29.376C49.927 29.4734 50.0717 29.5708 50.2164 29.6683C50.5541 30.4477 50.7953 31.2272 51.0365 32.0066C50.8435 31.7631 50.6023 31.4708 50.3611 31.2759ZM52.4836 40.7756C52.3389 40.9217 52.0495 40.9217 51.8565 40.9217C51.4224 40.7756 50.94 40.6781 50.4576 40.6781C49.7823 40.6781 49.1552 40.873 48.6728 41.1166C48.6246 41.1166 48.5763 41.1166 48.5763 41.1166C48.4316 41.2627 48.1422 41.2627 48.0457 41.0192C47.4668 39.8012 49.2517 38.1449 50.4576 38.4859C50.4576 38.4859 50.4576 38.4859 50.5059 38.4859C51.2294 38.4859 51.8565 38.6321 52.2907 39.3628C52.3872 39.7525 52.6766 40.3858 52.4836 40.7756Z" fill="#6D0B2E"/>
<path d="M26.7722 57.3392C28.0264 57.6315 28.1229 56.17 28.1229 55.1469C27.4958 55.0007 26.8205 55.0007 26.4346 54.6597C26.3863 54.611 26.3381 54.5623 26.2416 54.4648C26.0969 54.7084 26.0004 54.8546 25.904 55.1469C25.7592 56.0238 25.7592 57.0469 26.7722 57.3392Z" fill="#6D0B2E"/>
<path d="M26.2901 54.4162C26.5795 53.8803 27.0136 53.1495 27.3513 52.6623C27.3996 52.6136 27.496 52.5162 27.5443 52.4674C27.8819 52.1751 27.3996 51.688 27.1101 51.9803C26.5795 52.4674 25.9042 52.9546 25.3735 53.588C25.663 53.8803 26.0006 54.2213 26.2901 54.4162Z" fill="#6D0B2E"/>
<defs>
<clipPath id="clip0">
<rect x="8.35522" y="15.098" width="52.0593" height="52.7021" fill="white"/>
</clipPath>
</defs>
</svg>
